<?xml version="1.0" encoding="utf-8"?>
<!-- Generator: Adobe Illustrator 19.0.1, SVG Export Plug-In . SVG Version: 6.00 Build 0)  -->
<svg version="1.1" id="Слой_1" xmlns="http://www.w3.org/2000/svg" xmlns:xlink="http://www.w3.org/1999/xlink" x="0px" y="0px"
	 viewBox="-141 264.9 312 312" style="enable-background:new -141 264.9 312 312;" xml:space="preserve">
<style type="text/css">
	.st0{display:none;}
	.st1{fill:#FFFFFF;}
	.st2{fill:#F92841;}
	.st3{fill:url(#SVGID_1_);stroke:#4D4D4D;stroke-width:0.2;}
	.st4{fill:url(#SVGID_2_);}
	.st5{fill:none;stroke:#FFFFFF;stroke-width:0.3;}
	.st6{fill:url(#SVGID_3_);stroke:#4D4D4D;stroke-width:0.2;}
	.st7{fill:url(#SVGID_4_);}
	.st8{fill:url(#SVGID_5_);}
	.st9{fill:url(#SVGID_6_);}
	.st10{fill:#4D4D4D;}
	.st11{fill:url(#SVGID_7_);}
	.st12{fill:url(#SVGID_8_);}
</style>
<g id="Hilfslinien" class="st0">
</g>
<g id="White_below">
	<rect x="96.3" y="470.6" class="st1" width="14.6" height="36.3"/>
	<path class="st1" d="M29.2,470.6v21.2c0,5.3-1.8,8.3-4.1,10.6c-4.6,4.5-11.1,5.8-19.7,5.8c-7.1,0-14.6-1.3-19-5.7
		c-2.6-2.4-4.1-5.9-4.1-10.6v-21.3h14.3v19.2c0,7.1,3.1,9.6,9.3,9.6c7.2,0,9.2-3.8,9.2-9.1v-19.7H29.2z"/>
	<path class="st1" d="M71.4,497.4c-2.7,1.5-5.9,1.8-8.7,1.8s-6.1-0.6-8.8-1.9c-3.3-1.7-5.9-4.9-5.9-8.5c0-4.3,3.3-7.6,7.1-9.3
		c2.3-1.1,5.2-1.5,7.4-1.5c2.1,0,5.2,0.3,7.6,1.3c4.4,1.8,7.4,5.4,7.4,9.3C77.4,492.7,74.7,495.7,71.4,497.4z M84.4,472.7
		c5.3,6.7,6.9,11.4,6.9,15.5c0,5.7-2.3,10.1-5.7,13.2c-5.8,5.3-16.2,6.8-22.9,6.8c-4.6,0-16.8-0.7-23.5-7.4c-3-3.1-5.3-7-5.3-12.2
		c0-6.7,3.7-11.8,9.3-14.9c5.2-2.9,11.1-4.1,16.9-4.1c2.4,0,5.5,0.6,7.8,1.9l0.5-0.7c0,0-0.5-0.4-1.3-1.1c-0.8-0.7-1.7-1.5-2.5-2.5
		l-9.5-10.7h16.7L84.4,472.7z"/>
	<path class="st1" d="M-50.2,456.6l33.5,50.3h-16.8l-4.7-7.7c-0.1-0.2-0.1-0.3-0.1-0.5V498l-0.6,0.3c-0.1,0.1-0.4,0.1-0.9,0.1h-30.7
		c-0.2,0-0.4,0-0.6-0.1l-0.3-0.1c-0.1,0-0.2,0-0.3,0h-0.4v0.4c0,0.1-0.1,0.4-0.2,0.7l-4.5,7.5H-93l29.4-44l0.3-0.1l0.8-0.4l-0.8-0.4
		l-0.4-0.2l-4.4-5.2L-50.2,456.6L-50.2,456.6z M-46.7,489.4h-17c-0.8,0-1.7,0.1-2.2,0.2l-1.4,0.3l1-1c0.3-0.3,0.8-0.8,1.4-1.6
		l7.6-12.7c1-1.7,1.5-2.8,1.7-3.3l0.4-1l0.4,1c0.2,0.5,0.7,1.6,1.7,3.4l7.9,12.8c0.4,0.5,0.9,1.1,1.2,1.3l1,1l-1.4-0.3
		C-45,489.5-45.8,489.4-46.7,489.4z"/>
</g>
<g id="Fills">
	<rect x="95.9" y="470.2" class="st2" width="15.4" height="37.1"/>
	<path class="st2" d="M29.6,491.8v-21.6h-15v16.6c0,4.7-0.2,6.1-0.5,7.3c-1,3.4-4.6,4.9-8.3,4.9c-5.1,0-7.5-2-8.4-5.1
		c-0.3-1-0.4-2.2-0.5-3.3c-0.1-1.2,0-2.6,0-4v-16.4h-15.2v21.7c0,4.8,1.6,8.4,4.3,10.9c4.5,4.5,12.2,5.8,19.3,5.8
		c8.6,0,15.3-1.2,20-5.9C27.8,500.3,29.6,497.2,29.6,491.8z"/>
	<path class="st2" d="M-44.5,489.2c-0.5-0.1-1.3-0.2-2.3-0.2h-17c-0.9,0-1.8,0.1-2.3,0.2c0.3-0.3,0.9-0.9,1.4-1.6l7.7-12.7
		c1-1.7,1.5-2.8,1.7-3.3c0.2,0.5,0.7,1.6,1.7,3.4l7.9,12.8C-45.3,488.3-44.7,488.9-44.5,489.2z M-15.9,507.3L-50,456.2h-19.1l5,6
		c0.1,0.1,0.3,0.2,0.5,0.3c-0.2,0.1-0.4,0.2-0.5,0.3l-29.7,44.6h17.2l4.6-7.7c0.2-0.4,0.3-0.8,0.3-0.9c0.2,0,0.7,0.2,1.1,0.2h30.8
		c0.5,0,0.9-0.1,1-0.2c0,0.2,0,0.5,0.2,0.8l4.8,7.9h17.9V507.3z"/>
	<path class="st2" d="M91.7,488.1c0-4.2-1.7-9-7-15.7l-12.8-16.2H54.1l10.1,11.4c1.7,1.9,3.9,3.6,3.9,3.6c-2.5-1.4-5.6-2-8.1-2
		c-5.9,0-11.8,1.2-17.1,4.2c-5.7,3.1-9.5,8.3-9.5,15.3c0,5.3,2.4,9.4,5.4,12.5c6.8,6.8,19.2,7.5,23.8,7.5c6.7,0,17.2-1.5,23.2-6.9
		C89.4,498.4,91.7,494,91.7,488.1z M77,488.6c0,3.9-2.6,6.8-5.8,8.4c-2.7,1.4-5.8,1.8-8.5,1.8s-6-0.6-8.6-1.9
		c-3.2-1.6-5.7-4.7-5.7-8.1c0-4.1,3.1-7.3,6.8-8.9c2.3-1,5-1.4,7.2-1.4c2.1,0,5.1,0.3,7.5,1.2C74.1,481.5,77,484.9,77,488.6z"/>
</g>
<g>
	<g>
		<linearGradient id="SVGID_1_" gradientUnits="userSpaceOnUse" x1="-120.592" y1="363.4035" x2="-47.8387" y2="436.1568">
			<stop  offset="0" style="stop-color:#FFFFFF"/>
			<stop  offset="0.1685" style="stop-color:#B3B3B3"/>
			<stop  offset="0.1869" style="stop-color:#A7A7A7"/>
			<stop  offset="0.2436" style="stop-color:#868686"/>
			<stop  offset="0.3022" style="stop-color:#6D6D6D"/>
			<stop  offset="0.3629" style="stop-color:#5B5B5B"/>
			<stop  offset="0.427" style="stop-color:#505050"/>
			<stop  offset="0.5" style="stop-color:#4D4D4D"/>
			<stop  offset="0.6062" style="stop-color:#505050"/>
			<stop  offset="0.7036" style="stop-color:#5B5B5B"/>
			<stop  offset="0.7975" style="stop-color:#6E6E6E"/>
			<stop  offset="0.8893" style="stop-color:#888888"/>
			<stop  offset="0.9788" style="stop-color:#A9A9A9"/>
			<stop  offset="1" style="stop-color:#B3B3B3"/>
		</linearGradient>
		<path class="st3" d="M-84.2,348.3c-28.4,0-51.4,23-51.4,51.4c0,28.4,23,51.4,51.4,51.4s51.4-23,51.4-51.4
			C-32.8,371.4-55.8,348.3-84.2,348.3z M-84.2,439.4c-21.9,0-39.6-17.7-39.6-39.6c0-21.9,17.7-39.6,39.6-39.6
			c21.9,0,39.6,17.7,39.6,39.6C-44.6,421.7-62.3,439.4-84.2,439.4z"/>
		<linearGradient id="SVGID_2_" gradientUnits="userSpaceOnUse" x1="-52.1292" y1="431.8657" x2="-116.3007" y2="367.6942">
			<stop  offset="0" style="stop-color:#FFFFFF"/>
			<stop  offset="0.1685" style="stop-color:#B3B3B3"/>
			<stop  offset="0.1869" style="stop-color:#A7A7A7"/>
			<stop  offset="0.2436" style="stop-color:#868686"/>
			<stop  offset="0.3022" style="stop-color:#6D6D6D"/>
			<stop  offset="0.3629" style="stop-color:#5B5B5B"/>
			<stop  offset="0.427" style="stop-color:#505050"/>
			<stop  offset="0.5" style="stop-color:#4D4D4D"/>
			<stop  offset="0.6062" style="stop-color:#505050"/>
			<stop  offset="0.7036" style="stop-color:#5B5B5B"/>
			<stop  offset="0.7975" style="stop-color:#6E6E6E"/>
			<stop  offset="0.8893" style="stop-color:#888888"/>
			<stop  offset="0.9788" style="stop-color:#A9A9A9"/>
			<stop  offset="1" style="stop-color:#B3B3B3"/>
		</linearGradient>
		<path class="st4" d="M-84.2,354.4c-25.1,0-45.4,20.3-45.4,45.4c0,25.1,20.3,45.4,45.4,45.4s45.4-20.3,45.4-45.4
			C-38.8,374.7-59.2,354.4-84.2,354.4z M-84.2,439.6c-22,0-39.8-17.8-39.8-39.8c0-22,17.8-39.8,39.8-39.8c22,0,39.8,17.8,39.8,39.8
			C-44.4,421.8-62.2,439.6-84.2,439.6z"/>
	</g>
	<circle class="st5" cx="-84.2" cy="399.8" r="45.4"/>
	<linearGradient id="SVGID_3_" gradientUnits="userSpaceOnUse" x1="79.3912" y1="363.4029" x2="152.1458" y2="436.1575">
		<stop  offset="0" style="stop-color:#FFFFFF"/>
		<stop  offset="0.1685" style="stop-color:#B3B3B3"/>
		<stop  offset="0.1869" style="stop-color:#A7A7A7"/>
		<stop  offset="0.2436" style="stop-color:#868686"/>
		<stop  offset="0.3022" style="stop-color:#6D6D6D"/>
		<stop  offset="0.3629" style="stop-color:#5B5B5B"/>
		<stop  offset="0.427" style="stop-color:#505050"/>
		<stop  offset="0.5" style="stop-color:#4D4D4D"/>
		<stop  offset="0.6062" style="stop-color:#505050"/>
		<stop  offset="0.7036" style="stop-color:#5B5B5B"/>
		<stop  offset="0.7975" style="stop-color:#6E6E6E"/>
		<stop  offset="0.8893" style="stop-color:#888888"/>
		<stop  offset="0.9788" style="stop-color:#A9A9A9"/>
		<stop  offset="1" style="stop-color:#B3B3B3"/>
	</linearGradient>
	<path class="st6" d="M115.8,348.3c-28.4,0-51.4,23-51.4,51.4c0,28.4,23,51.4,51.4,51.4s51.4-23,51.4-51.4
		C167.2,371.4,144.2,348.3,115.8,348.3z M115.8,439.4c-21.9,0-39.6-17.7-39.6-39.6c0-21.9,17.7-39.6,39.6-39.6s39.6,17.7,39.6,39.6
		C155.4,421.7,137.6,439.4,115.8,439.4z"/>
	<linearGradient id="SVGID_4_" gradientUnits="userSpaceOnUse" x1="147.8546" y1="431.8664" x2="83.6817" y2="367.6935">
		<stop  offset="0" style="stop-color:#FFFFFF"/>
		<stop  offset="0.1685" style="stop-color:#B3B3B3"/>
		<stop  offset="0.1869" style="stop-color:#A7A7A7"/>
		<stop  offset="0.2436" style="stop-color:#868686"/>
		<stop  offset="0.3022" style="stop-color:#6D6D6D"/>
		<stop  offset="0.3629" style="stop-color:#5B5B5B"/>
		<stop  offset="0.427" style="stop-color:#505050"/>
		<stop  offset="0.5" style="stop-color:#4D4D4D"/>
		<stop  offset="0.6062" style="stop-color:#505050"/>
		<stop  offset="0.7036" style="stop-color:#5B5B5B"/>
		<stop  offset="0.7975" style="stop-color:#6E6E6E"/>
		<stop  offset="0.8893" style="stop-color:#888888"/>
		<stop  offset="0.9788" style="stop-color:#A9A9A9"/>
		<stop  offset="1" style="stop-color:#B3B3B3"/>
	</linearGradient>
	<path class="st7" d="M115.8,354.4c-25.1,0-45.4,20.3-45.4,45.4c0,25.1,20.3,45.4,45.4,45.4s45.4-20.3,45.4-45.4
		C161.1,374.7,140.8,354.4,115.8,354.4z M115.8,439.6c-22,0-39.8-17.8-39.8-39.8c0-22,17.8-39.8,39.8-39.8c22,0,39.8,17.8,39.8,39.8
		C155.6,421.8,137.8,439.6,115.8,439.6z"/>
	<circle class="st5" cx="115.8" cy="399.8" r="45.4"/>
	<linearGradient id="SVGID_5_" gradientUnits="userSpaceOnUse" x1="-53.9719" y1="363.525" x2="18.531" y2="436.0279">
		<stop  offset="0" style="stop-color:#FFFFFF"/>
		<stop  offset="0.1685" style="stop-color:#B3B3B3"/>
		<stop  offset="0.1869" style="stop-color:#A7A7A7"/>
		<stop  offset="0.2436" style="stop-color:#868686"/>
		<stop  offset="0.3022" style="stop-color:#6D6D6D"/>
		<stop  offset="0.3629" style="stop-color:#5B5B5B"/>
		<stop  offset="0.427" style="stop-color:#505050"/>
		<stop  offset="0.5" style="stop-color:#4D4D4D"/>
		<stop  offset="0.6062" style="stop-color:#505050"/>
		<stop  offset="0.7036" style="stop-color:#5B5B5B"/>
		<stop  offset="0.7975" style="stop-color:#6E6E6E"/>
		<stop  offset="0.8893" style="stop-color:#888888"/>
		<stop  offset="0.9788" style="stop-color:#A9A9A9"/>
		<stop  offset="1" style="stop-color:#B3B3B3"/>
	</linearGradient>
	<path class="st8" d="M-17.7,439.4c-9.4,0-18-3.3-24.7-8.7H-51v8.3c9,7.6,20.6,12.2,33.2,12.2c12.8,0,24.4-4.7,33.4-12.3v-8.2H7
		C0.2,436.1-8.4,439.4-17.7,439.4z M-51,360.6v8.5h8.2c6.8-5.6,15.5-8.9,25-8.9s18.2,3.3,25,8.9h8.4v-8.4
		c-9-7.7-20.7-12.4-33.5-12.4C-30.4,348.3-42,352.9-51,360.6z M-69.2,399.8c0,11.5,3.8,22.2,10.2,30.7h7.9v-9.3
		c-4-6.2-6.3-13.5-6.3-21.4c0-7.9,2.3-15.3,6.3-21.4v-9.2h-8C-65.4,377.7-69.2,388.3-69.2,399.8z M23.5,369.1h-7.7v9.7
		c3.8,6.1,6.1,13.3,6.1,21c0,7.7-2.2,14.9-6.1,21v9.7h7.7c6.4-8.6,10.2-19.2,10.2-30.7C33.7,388.3,29.9,377.6,23.5,369.1z"/>
	<linearGradient id="SVGID_6_" gradientUnits="userSpaceOnUse" x1="14.3469" y1="431.8567" x2="-49.8111" y2="367.6986">
		<stop  offset="0" style="stop-color:#FFFFFF"/>
		<stop  offset="0.1685" style="stop-color:#B3B3B3"/>
		<stop  offset="0.1869" style="stop-color:#A7A7A7"/>
		<stop  offset="0.2436" style="stop-color:#868686"/>
		<stop  offset="0.3022" style="stop-color:#6D6D6D"/>
		<stop  offset="0.3629" style="stop-color:#5B5B5B"/>
		<stop  offset="0.427" style="stop-color:#505050"/>
		<stop  offset="0.5" style="stop-color:#4D4D4D"/>
		<stop  offset="0.6062" style="stop-color:#505050"/>
		<stop  offset="0.7036" style="stop-color:#5B5B5B"/>
		<stop  offset="0.7975" style="stop-color:#6E6E6E"/>
		<stop  offset="0.8893" style="stop-color:#888888"/>
		<stop  offset="0.9788" style="stop-color:#A9A9A9"/>
		<stop  offset="1" style="stop-color:#B3B3B3"/>
	</linearGradient>
	<path class="st9" d="M-17.7,439.6c-9.5,0-18.3-3.3-25.1-8.9h-8.1c8.3,8.9,20.1,14.5,33.2,14.5c13.1,0,24.9-5.6,33.2-14.5H7.4
		C0.5,436.3-8.2,439.6-17.7,439.6z M-63.1,399.8c0,11.9,4.6,22.7,12,30.7h0.1v-8.9c-4.1-6.3-6.5-13.8-6.5-21.8
		c0-8.1,2.4-15.6,6.5-21.8v-8.8h-0.1C-58.6,377.2-63.1,388-63.1,399.8z M-17.7,354.4c-13.2,0-25,5.6-33.3,14.5v0.2h7.9
		c6.9-5.7,15.7-9.2,25.4-9.2c9.7,0,18.5,3.4,25.4,9.2h8C7.4,360.1-4.5,354.4-17.7,354.4z M15.8,369.2v9.1c4,6.2,6.3,13.5,6.3,21.4
		c0,7.9-2.3,15.3-6.3,21.4v9.1c7.3-8.1,11.8-18.8,11.8-30.5S23.2,377.3,15.8,369.2z"/>
	<path class="st10" d="M33.6,399.8c0,11.2-3.6,21.9-10.2,30.7h0.4c6.6-8.8,10.1-19.5,10.1-30.7s-3.6-21.9-10.1-30.7h-0.4
		C30,377.9,33.6,388.6,33.6,399.8z"/>
	<g>
		<g>
			<path class="st1" d="M-17.7,354.2c-13.1,0-24.9,5.6-33.3,14.5v0.5h0.2c8.2-8.9,20-14.5,33.1-14.5c13,0,24.8,5.6,33.1,14.5h0.4
				v-0.3C7.4,359.8-4.5,354.2-17.7,354.2z M-63.3,399.8c0,11.8,4.5,22.6,11.9,30.7h0.4v-0.3c-7.3-8-11.8-18.7-11.8-30.4
				c0-11.7,4.5-22.4,11.8-30.4v-0.2h-0.4C-58.9,377.2-63.3,388-63.3,399.8z M16,369.1h-0.1v0.6c7.2,8,11.6,18.6,11.6,30.1
				c0,11.6-4.4,22.1-11.6,30.1v0.6H16c7.4-8.1,11.9-18.9,11.9-30.7C27.9,388,23.4,377.2,16,369.1z"/>
		</g>
	</g>
	<path class="st1" d="M15.1,430.7c-8.2,8.7-19.9,14.2-32.8,14.2c-12.9,0-24.6-5.5-32.8-14.2H-51v0.3c8.3,8.9,20.1,14.4,33.2,14.4
		c13.2,0,25.1-5.6,33.4-14.6v-0.1H15.1z"/>
	<path class="st10" d="M-17.7,348.5c12.4,0,24.2,4.4,33.5,12.4v-0.4c-9.3-8-21.1-12.3-33.5-12.3c-12.3,0-24,4.3-33.3,12.2v0.4
		C-41.7,352.8-30.1,348.5-17.7,348.5z"/>
	<path class="st10" d="M-17.7,451.1c-12.3,0-24-4.3-33.2-12.2v0.4c9.3,7.8,20.9,12.1,33.2,12.1c12.4,0,24.1-4.3,33.4-12.3v-0.4
		C6.4,446.7-5.3,451.1-17.7,451.1z"/>
	<path class="st10" d="M-69,399.8c0-11.2,3.6-21.8,10.2-30.7h-0.4c-6.5,8.8-10.1,19.5-10.1,30.7c0,11.2,3.6,21.9,10.1,30.7h0.4
		C-65.4,421.7-69,411-69,399.8z"/>
	<g>
		<linearGradient id="SVGID_7_" gradientUnits="userSpaceOnUse" x1="12.5448" y1="363.5242" x2="85.0494" y2="436.0287">
			<stop  offset="0" style="stop-color:#FFFFFF"/>
			<stop  offset="0.1685" style="stop-color:#B3B3B3"/>
			<stop  offset="0.1869" style="stop-color:#A7A7A7"/>
			<stop  offset="0.2436" style="stop-color:#868686"/>
			<stop  offset="0.3022" style="stop-color:#6D6D6D"/>
			<stop  offset="0.3629" style="stop-color:#5B5B5B"/>
			<stop  offset="0.427" style="stop-color:#505050"/>
			<stop  offset="0.5" style="stop-color:#4D4D4D"/>
			<stop  offset="0.6062" style="stop-color:#505050"/>
			<stop  offset="0.7036" style="stop-color:#5B5B5B"/>
			<stop  offset="0.7975" style="stop-color:#6E6E6E"/>
			<stop  offset="0.8893" style="stop-color:#888888"/>
			<stop  offset="0.9788" style="stop-color:#A9A9A9"/>
			<stop  offset="1" style="stop-color:#B3B3B3"/>
		</linearGradient>
		<path class="st11" d="M48.8,439.4c-9.4,0-18-3.3-24.7-8.7h-8.5v8.3c9,7.6,20.6,12.2,33.2,12.2c12.8,0,24.4-4.7,33.4-12.3v-8.2
			h-8.7C66.7,436.1,58.1,439.4,48.8,439.4z M15.5,360.6v8.5h8.2c6.8-5.6,15.5-8.9,25-8.9c9.5,0,18.2,3.3,25,8.9h8.4v-8.4
			c-9-7.7-20.7-12.4-33.5-12.4C36.1,348.3,24.5,352.9,15.5,360.6z M-2.7,399.8c0,11.5,3.8,22.2,10.2,30.7h7.9v-9.3
			c-4-6.2-6.3-13.5-6.3-21.4c0-7.9,2.3-15.3,6.3-21.4v-9.2h-8C1.1,377.7-2.7,388.3-2.7,399.8z M90.1,369.1h-7.7v9.7
			c3.8,6.1,6.1,13.3,6.1,21c0,7.7-2.2,14.9-6.1,21v9.7h7.7c6.4-8.6,10.2-19.2,10.2-30.7C100.2,388.3,96.4,377.6,90.1,369.1z"/>
		<linearGradient id="SVGID_8_" gradientUnits="userSpaceOnUse" x1="80.8651" y1="431.8575" x2="16.7056" y2="367.6979">
			<stop  offset="0" style="stop-color:#FFFFFF"/>
			<stop  offset="0.1685" style="stop-color:#B3B3B3"/>
			<stop  offset="0.1869" style="stop-color:#A7A7A7"/>
			<stop  offset="0.2436" style="stop-color:#868686"/>
			<stop  offset="0.3022" style="stop-color:#6D6D6D"/>
			<stop  offset="0.3629" style="stop-color:#5B5B5B"/>
			<stop  offset="0.427" style="stop-color:#505050"/>
			<stop  offset="0.5" style="stop-color:#4D4D4D"/>
			<stop  offset="0.6062" style="stop-color:#505050"/>
			<stop  offset="0.7036" style="stop-color:#5B5B5B"/>
			<stop  offset="0.7975" style="stop-color:#6E6E6E"/>
			<stop  offset="0.8893" style="stop-color:#888888"/>
			<stop  offset="0.9788" style="stop-color:#A9A9A9"/>
			<stop  offset="1" style="stop-color:#B3B3B3"/>
		</linearGradient>
		<path class="st12" d="M48.8,439.6c-9.5,0-18.3-3.3-25.1-8.9h-8.1c8.3,8.9,20.1,14.5,33.2,14.5c13.1,0,24.9-5.6,33.2-14.5h-8.1
			C67,436.3,58.3,439.6,48.8,439.6z M3.4,399.8c0,11.9,4.6,22.7,12,30.7h0.1v-8.9c-4.1-6.3-6.5-13.8-6.5-21.8
			c0-8.1,2.4-15.6,6.5-21.8v-8.8h-0.1C7.9,377.2,3.4,388,3.4,399.8z M48.8,354.4c-13.2,0-25,5.6-33.3,14.5v0.2h7.9
			c6.9-5.7,15.7-9.2,25.4-9.2s18.5,3.4,25.4,9.2h8C73.9,360.1,62,354.4,48.8,354.4z M82.3,369.2v9.1c4,6.2,6.3,13.5,6.3,21.4
			c0,7.9-2.3,15.3-6.3,21.4v9.1c7.3-8.1,11.8-18.8,11.8-30.5S89.7,377.3,82.3,369.2z"/>
		<path class="st10" d="M88.2,399.8c0,7.4-2.1,14.6-5.9,20.8v0.6c4-6.3,6.2-13.7,6.2-21.3c0-7.7-2.2-15-6.2-21.3v0.6
			C86.2,385.2,88.2,392.3,88.2,399.8z"/>
		<path class="st10" d="M100.1,399.8c0,11.2-3.6,21.9-10.2,30.7h0.4c6.6-8.8,10.1-19.5,10.1-30.7s-3.6-21.9-10.1-30.7h-0.4
			C96.5,377.9,100.1,388.6,100.1,399.8z"/>
		<g>
			<g>
				<path class="st1" d="M3.2,399.8c0,11.8,4.5,22.6,11.9,30.7h0.4v-0.3c-7.3-8-11.8-18.7-11.8-30.4c0-11.7,4.5-22.4,11.8-30.4v-0.2
					H15C7.7,377.2,3.2,388,3.2,399.8z M48.8,354.2c-13.1,0-24.9,5.6-33.3,14.5v0.5h0.2c8.2-8.9,20-14.5,33.1-14.5
					c13,0,24.8,5.6,33.1,14.5h0.4v-0.3C73.9,359.8,62,354.2,48.8,354.2z M82.5,369.1h-0.1v0.6c7.2,8,11.6,18.6,11.6,30.1
					c0,11.6-4.4,22.1-11.6,30.1v0.6h0.1c7.4-8.1,11.9-18.9,11.9-30.7C94.4,388,89.9,377.2,82.5,369.1z"/>
			</g>
		</g>
		<path class="st1" d="M81.6,430.7c-8.2,8.7-19.9,14.2-32.8,14.2c-12.9,0-24.6-5.5-32.8-14.2h-0.4v0.3c8.3,8.9,20.1,14.4,33.2,14.4
			c13.2,0,25.1-5.6,33.4-14.6v-0.1H81.6z"/>
		<path class="st10" d="M73.8,430.7h-0.5c-6.9,5.5-15.5,8.5-24.5,8.5c-9,0-17.5-3-24.5-8.5h-0.5c7.1,5.7,15.8,8.8,25,8.8
			C58,439.5,66.7,436.4,73.8,430.7z"/>
		<path class="st10" d="M48.8,348.5c12.4,0,24.2,4.4,33.5,12.4v-0.4c-9.3-8-21.1-12.3-33.5-12.3c-12.3,0-24,4.3-33.3,12.2v0.4
			C24.8,352.8,36.4,348.5,48.8,348.5z"/>
		<path class="st10" d="M48.8,451.1c-12.3,0-24-4.3-33.2-12.2v0.4c9.3,7.8,20.9,12.1,33.2,12.1c12.4,0,24.1-4.3,33.4-12.3v-0.4
			C72.9,446.7,61.2,451.1,48.8,451.1z"/>
		<path class="st10" d="M-2.5,399.8c0-11.2,3.6-21.8,10.2-30.7H7.3C0.7,378-2.8,388.6-2.8,399.8c0,11.2,3.6,21.9,10.1,30.7h0.4
			C1.1,421.7-2.5,411-2.5,399.8z"/>
		<path class="st10" d="M15.5,420.9c-4-6.3-6.1-13.5-6.1-21.2c0-7.6,2.2-14.9,6.1-21.2V378c-4.2,6.4-6.5,13.9-6.5,21.7
			c0,7.8,2.3,15.3,6.5,21.7V420.9z"/>
		<path class="st10" d="M23.5,369.1H24c7-5.7,15.7-8.8,24.8-8.8c9.1,0,17.8,3.1,24.8,8.8h0.5c-7.1-5.9-16-9.1-25.3-9.1
			S30.6,363.2,23.5,369.1z"/>
	</g>
	<path class="st10" d="M15.8,378.4v0.6c3.8,6.2,5.9,13.3,5.9,20.8c0,7.4-2.1,14.6-5.9,20.8v0.6c4-6.3,6.2-13.7,6.2-21.3
		C22,392.1,19.9,384.8,15.8,378.4z M-17.7,439.2c-9,0-17.5-3-24.5-8.5h-0.5c7.1,5.7,15.8,8.8,25,8.8c9.2,0,17.9-3.1,25-8.8H6.8
		C-0.2,436.2-8.7,439.2-17.7,439.2z M-51,421.5v-0.6c-4-6.3-6.1-13.5-6.1-21.2c0-7.6,2.2-14.9,6.1-21.2V378
		c-4.2,6.4-6.5,13.9-6.5,21.7C-57.5,407.6-55.2,415.1-51,421.5z M-43,369.1h0.5c7-5.7,15.7-8.8,24.8-8.8c9.1,0,17.8,3.1,24.8,8.8
		h0.5c-7.1-5.9-16-9.1-25.3-9.1C-27.1,360-35.9,363.2-43,369.1z"/>
</g>
</svg>
