<?xml version="1.0" encoding="utf-8"?>
<!-- Generator: Adobe Illustrator 19.0.1, SVG Export Plug-In . SVG Version: 6.00 Build 0)  -->
<svg version="1.1" id="Слой_1" xmlns="http://www.w3.org/2000/svg" xmlns:xlink="http://www.w3.org/1999/xlink" x="0px" y="0px"
	 viewBox="-58 181.4 478.5 478.5" style="enable-background:new -58 181.4 478.5 478.5;" xml:space="preserve">
<style type="text/css">
	.st0{fill:url(#SVGID_1_);}
	.st1{fill:#333333;}
	.st2{fill:url(#SVGID_2_);}
	.st3{fill:url(#SVGID_3_);}
	.st4{fill:#FFFFFF;}
	.st5{fill:url(#SVGID_4_);}
	.st6{fill:url(#SVGID_5_);}
	.st7{fill:url(#SVGID_6_);}
	.st8{fill:url(#SVGID_7_);}
	.st9{fill:url(#SVGID_8_);}
	.st10{fill:url(#SVGID_9_);}
	.st11{fill:#C1D5DE;}
	.st12{fill:url(#SVGID_10_);}
	.st13{fill:#0F404E;}
	.st14{fill:url(#SVGID_11_);}
	.st15{fill:url(#SVGID_12_);}
	.st16{fill:url(#SVGID_13_);}
	.st17{fill:url(#SVGID_14_);}
</style>
<linearGradient id="SVGID_1_" gradientUnits="userSpaceOnUse" x1="-278.2285" y1="160.9445" x2="45.3716" y2="-162.6555" gradientTransform="matrix(1 0 0 -1 297.6378 419.7251)">
	<stop  offset="0" style="stop-color:#E6F3F6"/>
	<stop  offset="1" style="stop-color:#2B2B2B"/>
</linearGradient>
<path class="st0" d="M181.2,191.8c-126.4,0-228.8,102.4-228.8,228.8S54.9,649.4,181.2,649.4C307.6,649.4,410,547,410,420.6
	C410.1,294.3,307.6,191.8,181.2,191.8L181.2,191.8z M181.2,638L181.2,638C61.1,638-36.2,540.7-36.2,420.6s97.3-217.4,217.4-217.4
	s217.4,97.3,217.4,217.4C398.6,540.7,301.3,638,181.2,638L181.2,638z"/>
<path class="st1" d="M400.3,420.6c0,120.9-98.1,219-219,219s-219-98.1-219-219c0-121,98.1-219,219-219S400.3,299.7,400.3,420.6
	L400.3,420.6z"/>
<radialGradient id="SVGID_2_" cx="-346.8123" cy="212.1284" r="447.7923" gradientTransform="matrix(1 0 0 -1 297.6378 419.7251)" gradientUnits="userSpaceOnUse">
	<stop  offset="0.23" style="stop-color:#FFFFFF"/>
	<stop  offset="0.77" style="stop-color:#000000"/>
</radialGradient>
<path class="st2" d="M398.6,420.6c0,120.1-97.3,217.4-217.4,217.4S-36.2,540.7-36.2,420.6s97.3-217.4,217.4-217.4
	C301.3,203.3,398.6,300.6,398.6,420.6L398.6,420.6z"/>
<linearGradient id="SVGID_3_" gradientUnits="userSpaceOnUse" x1="-13.319" y1="-103.9211" x2="-219.394" y2="102.1539" gradientTransform="matrix(1 0 0 -1 297.6378 419.7251)">
	<stop  offset="0" style="stop-color:#E6F3F6"/>
	<stop  offset="1" style="stop-color:#000000"/>
</linearGradient>
<path class="st3" d="M327,420.6c0,80.5-65.2,145.7-145.7,145.7S35.6,501.1,35.6,420.6s65.2-145.7,145.7-145.7
	C261.7,274.9,327,340.2,327,420.6L327,420.6z"/>
<polygon points="187.1,271 202.2,230.8 202.2,271 213.7,271 213.7,213.5 196.4,213.5 180.7,254.6 180.9,254.6 165.2,213.5 
	147.9,213.5 147.9,271 159.4,271 159.4,230.8 174.5,271 "/>
<polygon points="344.9,296.7 325.2,325.4 356.1,310.2 364.4,320.2 315.9,344.6 306.1,332.7 324.9,304.4 324.8,304.2 293.5,317.6 
	283.5,305.8 316.3,262.5 324.7,272.5 304.2,300.1 335.9,286 "/>
<path class="st1" d="M79.5,285.8c-4.6-4.5-11.8-5.8-18.5-1.7c1.3-3.3,0.8-6.7,0.1-8.6c-2.9-5.3-3.9-5.9-6.3-7.9
	c-7.7-6.5-15.8-0.9-21.6,6L5.2,307l44.1,37l29.6-35.2C85.5,300.6,86.6,292.7,79.5,285.8L79.5,285.8z M22.4,301.9L22.4,301.9
	l16.8-20.1c2-2.3,6.4-2.2,9.2,0.2c3.1,2.6,3.1,6.3,1,8.8l-16.7,19.8L22.4,301.9L22.4,301.9z M68.9,305.2L68.9,305.2l-17.6,20.9
	l-11-9.2L58,295.8c2-2.4,6.5-3.1,9.5-0.6C70.9,298.1,71.2,302.4,68.9,305.2L68.9,305.2z"/>
<polygon class="st4" points="187.2,268.7 202.3,228.6 202.3,268.7 213.8,268.7 213.8,211.3 196.6,211.3 180.8,252.4 181,252.4 
	165.3,211.3 148,211.3 148,268.7 159.5,268.7 159.5,228.6 174.6,268.7 "/>
<polygon class="st4" points="345,292.9 325.3,321.5 356.2,306.3 364.6,316.4 316,340.8 306.2,328.9 325,300.5 324.9,300.4 
	293.6,313.8 283.7,302 316.4,258.6 324.8,268.6 304.3,296.3 336,282.1 "/>
<path class="st4" d="M77.4,284.6c-4.6-4.5-11.8-5.8-18.5-1.7c1.3-3.3,0.8-6.7,0.1-8.6c-2.9-5.3-3.9-5.9-6.3-7.9
	c-7.7-6.5-15.8-0.9-21.6,6L3,305.8l44.1,37l29.6-35.2C83.5,299.5,84.5,291.5,77.4,284.6L77.4,284.6z M20.4,300.7L20.4,300.7
	l16.8-20.1c1.9-2.3,6.4-2.2,9.2,0.1c3.1,2.6,3.1,6.3,1,8.8l-16.6,19.8L20.4,300.7L20.4,300.7z M66.9,304.1L66.9,304.1L49.3,325
	l-11-9.2L56,294.7c2-2.4,6.5-3.1,9.5-0.5C68.9,297,69.2,301.3,66.9,304.1L66.9,304.1z"/>
<radialGradient id="SVGID_4_" cx="-265.7374" cy="137.1671" r="290.2232" gradientTransform="matrix(1 0 0 -1 297.6378 419.7251)" gradientUnits="userSpaceOnUse">
	<stop  offset="0.23" style="stop-color:#E5E5E5"/>
	<stop  offset="0.77" style="stop-color:#000000"/>
</radialGradient>
<path class="st5" d="M40.4,420.6c0-77.8,63.1-140.9,140.9-140.9s140.9,63.1,140.9,140.9s-63.1,140.9-140.9,140.9
	C103.4,561.5,40.4,498.4,40.4,420.6L40.4,420.6z"/>
<radialGradient id="SVGID_5_" cx="-206.709" cy="108.5669" r="246.3127" gradientTransform="matrix(1 0 0 -1 297.6378 419.7251)" gradientUnits="userSpaceOnUse">
	<stop  offset="4.000000e-002" style="stop-color:#FFFFFF"/>
	<stop  offset="0.8556" style="stop-color:#9F9F9F"/>
	<stop  offset="0.9844" style="stop-color:#3F3F3F"/>
	<stop  offset="0.9906" style="stop-color:#3F3F3F"/>
	<stop  offset="1" style="stop-color:#3F3F3F"/>
	<stop  offset="1" style="stop-color:#000000"/>
</radialGradient>
<path class="st6" d="M44.4,420.6c0-75.6,61.3-136.8,136.8-136.8c75.6,0,136.8,61.3,136.8,136.8c0,75.6-61.3,136.8-136.8,136.8
	C105.7,557.5,44.4,496.2,44.4,420.6L44.4,420.6z"/>
<radialGradient id="SVGID_6_" cx="-298.6745" cy="204.6351" r="205.5616" gradientTransform="matrix(1 0 0 -1 297.6378 419.7251)" gradientUnits="userSpaceOnUse">
	<stop  offset="0" style="stop-color:#FFFFFF"/>
	<stop  offset="0.49" style="stop-color:#99CAE1"/>
	<stop  offset="0.68" style="stop-color:#3399C5"/>
	<stop  offset="1" style="stop-color:#3399C5"/>
</radialGradient>
<path class="st7" d="M44.2,420.6h137v-137C105.5,283.6,44.2,344.9,44.2,420.6L44.2,420.6z"/>
<radialGradient id="SVGID_7_" cx="-298.6757" cy="225.2272" r="363.1824" gradientTransform="matrix(1 0 0 -1 297.6378 419.7251)" gradientUnits="userSpaceOnUse">
	<stop  offset="0" style="stop-color:#FFFFFF"/>
	<stop  offset="0.19" style="stop-color:#FFFFFF"/>
	<stop  offset="0.31" style="stop-color:#99CAE1"/>
	<stop  offset="0.63" style="stop-color:#3399C5"/>
	<stop  offset="0.89" style="stop-color:#597582"/>
	<stop  offset="0.99" style="stop-color:#282828"/>
	<stop  offset="1" style="stop-color:#282828"/>
</radialGradient>
<path class="st8" d="M181.2,420.6v137c75.7,0,137-61.4,137-137L181.2,420.6L181.2,420.6z"/>
<radialGradient id="SVGID_8_" cx="-262.8756" cy="134.5213" r="284.6607" gradientTransform="matrix(1 0 0 -1 297.6378 419.7251)" gradientUnits="userSpaceOnUse">
	<stop  offset="0.23" style="stop-color:#E5E5E5"/>
	<stop  offset="0.77" style="stop-color:#000000"/>
</radialGradient>
<polygon class="st9" points="319.4,418.2 183.7,418.2 183.7,282.5 178.8,282.5 178.8,418.2 43.1,418.2 43.1,423.1 178.8,423.1 
	178.8,558.8 183.7,558.8 183.7,423.1 319.4,423.1 "/>
<linearGradient id="SVGID_9_" gradientUnits="userSpaceOnUse" x1="-48.0077" y1="95.8363" x2="-19.6601" y2="67.4887" gradientTransform="matrix(1 0 0 -1 297.6378 419.7251)">
	<stop  offset="0" style="stop-color:#F5F6F8"/>
	<stop  offset="1" style="stop-color:#2B2B2B"/>
</linearGradient>
<path class="st10" d="M183.7,286.3c72.3,1.3,130.6,59.6,131.9,131.9h2.4c-1.3-73.6-60.7-133.1-134.3-134.3L183.7,286.3L183.7,286.3z
	"/>
<path class="st11" d="M46.6,418.2c1.3-72.4,59.7-130.8,132.1-132.1v-2.4C105,285,45.5,344.5,44.2,418.2H46.6L46.6,418.2z"/>
<linearGradient id="SVGID_10_" gradientUnits="userSpaceOnUse" x1="-213.1393" y1="-69.2946" x2="-184.7936" y2="-97.6403" gradientTransform="matrix(1 0 0 -1 297.6378 419.7251)">
	<stop  offset="0" style="stop-color:#F5F6F8"/>
	<stop  offset="1" style="stop-color:#2B2B2B"/>
</linearGradient>
<path class="st12" d="M178.8,555c-72.3-1.3-130.6-59.6-131.9-131.9h-2.4c1.3,73.6,60.7,133.1,134.3,134.3L178.8,555L178.8,555z"/>
<path class="st13" d="M315.6,423.1C314.3,495.4,256,553.7,183.7,555v2.4c73.6-1.3,133.1-60.7,134.3-134.3H315.6L315.6,423.1z"/>
<linearGradient id="SVGID_11_" gradientUnits="userSpaceOnUse" x1="-253.3131" y1="136.0605" x2="-118.8385" y2="1.5859" gradientTransform="matrix(1 0 0 -1 297.6378 419.7251)">
	<stop  offset="0" style="stop-color:#C4D9E3"/>
	<stop  offset="1" style="stop-color:#3B586F"/>
</linearGradient>
<polygon class="st14" points="176.2,283.7 176.2,415.5 44.3,415.5 44.3,418.1 176.2,418.1 178.8,418.1 178.8,415.5 178.8,283.7 "/>
<linearGradient id="SVGID_12_" gradientUnits="userSpaceOnUse" x1="-186.9863" y1="-3.4664" x2="-119.1369" y2="-71.3157" gradientTransform="matrix(1 0 0 -1 297.6378 419.7251)">
	<stop  offset="0" style="stop-color:#F5F6F8"/>
	<stop  offset="1" style="stop-color:#2B2B2B"/>
</linearGradient>
<polygon class="st15" points="176,556.1 176,425.8 45.4,425.8 45.4,423.3 176,423.3 178.6,423.3 178.6,425.8 178.6,556.1 "/>
<linearGradient id="SVGID_13_" gradientUnits="userSpaceOnUse" x1="-113.7378" y1="-3.5648" x2="19.1168" y2="-136.4195" gradientTransform="matrix(1 0 0 -1 297.6378 419.7251)">
	<stop  offset="0" style="stop-color:#DBE1E8"/>
	<stop  offset="0.65" style="stop-color:#6F8396"/>
	<stop  offset="0.97" style="stop-color:#193E5E"/>
	<stop  offset="1" style="stop-color:#193E5E"/>
</linearGradient>
<polygon class="st16" points="186.5,556.1 186.5,425.8 316.7,425.8 316.7,423.3 186.5,423.3 183.9,423.3 183.9,425.8 183.9,556.1 
	"/>
<linearGradient id="SVGID_14_" gradientUnits="userSpaceOnUse" x1="-113.7322" y1="69.7795" x2="-46.0242" y2="2.0715" gradientTransform="matrix(1 0 0 -1 297.6378 419.7251)">
	<stop  offset="0" style="stop-color:#F5F6F8"/>
	<stop  offset="1" style="stop-color:#2B2B2B"/>
</linearGradient>
<polygon class="st17" points="186.5,284.8 186.5,415.1 316.7,415.1 316.7,417.7 186.5,417.7 183.9,417.7 183.9,415.1 183.9,284.8 
	"/>
</svg>
