<?xml version="1.0" encoding="utf-8"?>
<!-- Generator: Adobe Illustrator 19.0.1, SVG Export Plug-In . SVG Version: 6.00 Build 0)  -->
<svg version="1.1" id="Слой_1" xmlns="http://www.w3.org/2000/svg" xmlns:xlink="http://www.w3.org/1999/xlink" x="0px" y="0px"
	 viewBox="-58 181.4 478.5 478.5" style="enable-background:new -58 181.4 478.5 478.5;" xml:space="preserve">
<style type="text/css">
	.st0{fill:#FFFFFF;}
	.st1{fill:#CBD5E8;}
	.st2{fill:url(#SVGID_1_);}
	.st3{fill:#E5CF83;}
	.st4{fill:url(#SVGID_2_);}
	.st5{fill:url(#SVGID_3_);}
	.st6{fill:url(#SVGID_4_);}
	.st7{fill:url(#SVGID_5_);}
	.st8{fill:url(#SVGID_6_);}
	.st9{fill:url(#SVGID_7_);}
	.st10{fill:url(#SVGID_8_);}
	.st11{fill:url(#SVGID_9_);}
	.st12{fill:url(#SVGID_10_);}
	.st13{fill:url(#SVGID_11_);}
	.st14{fill:url(#SVGID_12_);}
	.st15{fill:url(#SVGID_13_);}
	.st16{fill:url(#SVGID_14_);}
	.st17{fill:url(#SVGID_15_);}
	.st18{fill:url(#SVGID_16_);}
	.st19{fill:url(#SVGID_17_);}
	.st20{fill:url(#SVGID_18_);}
	.st21{fill:url(#SVGID_19_);}
	.st22{fill:url(#SVGID_20_);}
	.st23{fill:url(#SVGID_21_);}
	.st24{fill:url(#SVGID_22_);}
	.st25{fill:url(#SVGID_23_);}
	.st26{fill:url(#SVGID_24_);}
	.st27{fill:url(#SVGID_25_);}
	.st28{fill:url(#SVGID_26_);}
	.st29{fill:url(#SVGID_27_);}
	.st30{fill:url(#SVGID_28_);}
	.st31{fill:url(#SVGID_29_);}
	.st32{fill:url(#SVGID_30_);}
	.st33{fill:url(#SVGID_31_);}
	.st34{fill:url(#SVGID_32_);}
	.st35{fill:url(#SVGID_33_);}
	.st36{fill:url(#SVGID_34_);}
	.st37{fill:url(#SVGID_35_);}
	.st38{fill:none;}
</style>
<g>
	<path d="M-16.4,521.1c0-11.2-2.3-16-9.3-16c-7.9,0-9.7,7.9-9.7,29.6c0,23.3,3.2,27.5,9.9,27.5c5.6,0,9.7-2.9,9.7-19.5h15.5
		c0,16.6-4.1,30.9-24.4,30.9c-23.3,0-26.2-16.6-26.2-39.9c0-23.4,2.9-39.9,26.2-39.9c22.2-0.1,23.8,16.1,23.8,27.3H-16.4z"/>
	<path d="M4.3,495.2h15.5v29.4h18.1v-29.4h15.5v76.9H37.9V538H19.8v34.1H4.3V495.2z"/>
	<path d="M102.5,495.2v12.7H75V526h25.8v12.7H75v20.7h28.5v12.7h-44v-76.9L102.5,495.2L102.5,495.2z"/>
	<path d="M121.7,495.2l10.9,56.8h0.3l11.4-56.8h16l-17.7,76.9h-19.9l-17.7-76.9L121.7,495.2L121.7,495.2z"/>
	<path d="M164.9,495.2h28.6c12.7,0,20.5,6.7,20.5,19.8c0,10.2-4.1,17.1-12.8,19v0.2c10.5,1.4,12.2,7.2,12.4,23.5
		c0.1,8.1,0.5,12.3,3.4,13.8v0.6h-16.8c-1.5-2.2-1.8-5.1-1.9-8.1l-0.4-14.8c-0.2-6-2.9-9.7-9.2-9.7h-8.3V572h-15.5V495.2z
		 M180.4,528.8h6.5c7.4,0,11.6-3.2,11.6-11.5c0-7.1-3.8-10.7-10.8-10.7h-7.3V528.8z"/>
	<path d="M243.7,493.7c23.3,0,26.2,16.6,26.2,39.9c0,23.4-2.9,39.9-26.2,39.9s-26.2-16.6-26.2-39.9
		C217.4,510.3,220.4,493.7,243.7,493.7z M243.7,562.1c9.2,0,10.7-7.9,10.7-28.5c0-20.6-1.5-28.5-10.7-28.5s-10.7,8-10.7,28.5
		C232.9,554.3,234.4,562.1,243.7,562.1z"/>
	<path d="M273.2,572.1v-76.9h15.5v64.2h27.5v12.7H273.2z"/>
	<path d="M361.8,495.2v12.7h-27.5V526H360v12.7h-25.8v20.7h28.5v12.7h-44v-76.9L361.8,495.2L361.8,495.2z"/>
	<path d="M413.5,495.2v12.7h-16.8v64.2h-15.5v-64.2h-16.8v-12.7H413.5z"/>
</g>
<path class="st0" d="M281.4,425c1.3,1.3,1.9,2.8,1.9,4.6c0,1.8-0.6,3.3-1.9,4.6c-1.3,1.3-2.8,1.9-4.6,1.9c-1.8,0-3.3-0.6-4.6-1.9
	c-1.3-1.3-1.9-2.8-1.9-4.6c0-1.8,0.6-3.3,1.9-4.6c1.3-1.3,2.8-1.9,4.6-1.9C278.6,423.1,280.1,423.7,281.4,425z M282.1,424.2
	c-1.5-1.5-3.2-2.2-5.3-2.2c-2.1,0-3.8,0.7-5.3,2.2c-1.5,1.5-2.2,3.2-2.2,5.3c0,2.1,0.7,3.9,2.2,5.3c1.5,1.5,3.2,2.2,5.3,2.2
	c2.1,0,3.9-0.7,5.3-2.2c1.5-1.5,2.2-3.2,2.2-5.3C284.3,427.5,283.6,425.7,282.1,424.2z M277.9,429.2c-0.3,0.1-0.8,0.2-1.4,0.2h-1.3
	v-3h1.2c0.8,0,1.4,0.1,1.8,0.3c0.4,0.2,0.5,0.6,0.5,1.2C278.8,428.5,278.5,429,277.9,429.2z M273.8,433.7h1.5v-3.3h1.1
	c0.8,0,1.3,0.1,1.6,0.3c0.5,0.3,0.8,0.9,0.8,1.9v0.7l0,0.3c0,0,0,0.1,0,0.1c0,0,0,0.1,0,0.1h1.4l0-0.1c0-0.1-0.1-0.2-0.1-0.4
	c0-0.2,0-0.4,0-0.6v-0.6c0-0.4-0.2-0.8-0.4-1.3c-0.3-0.4-0.8-0.7-1.4-0.8c0.5-0.1,0.9-0.2,1.2-0.4c0.5-0.3,0.8-0.9,0.8-1.6
	c0-1-0.4-1.7-1.3-2.1c-0.5-0.2-1.2-0.3-2.3-0.3h-2.9V433.7z"/>
<g>
	<path class="st1" d="M0.1,330.8c2-4.6,3.8-8.4,16.5-8.4c12.7,0,69.4,0,73.4,0c4,0,8.1-2,8.1-7.8s0-18.2,0-20.5
		c0-2.3,2.3-5.5,8.4-5.5c6.1,0,147.7,0,152.1,0c4.3,0,7.8,2.3,7.8,7.8s0,11.9,0,16.2c0,4.3,2,9,8.4,9s117.7,0,122,0
		c4.3,0,10.1,1.2,7.5,6.6c-2.6,5.5-42.2,85.8-44.9,91.2c-1,2.1-1.8,4.8-9.9,4.8c-8,0-71.5,0-75,0c-3.6,0-9.4,0-9.4,6.9
		c0,6.9,0,16.4,0,19.1c0,2.7-2.1,6.9-8.6,6.9c-6.5,0-145.8,0-150.5,0s-8.1-2.4-8.1-7.1c0-4.7,0-13.2,0-16.8c0-3.7-1.9-9-7.4-9
		c-5.5,0-122.3,0-126.3,0c-4,0-7.8-3.1-5.4-9C-38.8,409.1,0.1,330.8,0.1,330.8z"/>
	
		<linearGradient id="SVGID_1_" gradientUnits="userSpaceOnUse" x1="1696.0953" y1="466.1863" x2="1696.0953" y2="536.5405" gradientTransform="matrix(1.0366 2.800000e-003 -0.4842 0.9634 -1528.3395 -115.267)">
		<stop  offset="0" style="stop-color:#CBD5E8"/>
		<stop  offset="0.1854" style="stop-color:#8FA7B7"/>
		<stop  offset="1" style="stop-color:#050D0F"/>
	</linearGradient>
	<polygon class="st2" points="6.4,337.4 2.9,337.4 -31.6,406.1 -28.1,406.1 	"/>
	<path class="st3" d="M90.8,415.8c-10,0-93.9,0-118.1,0c-4.1,0-5.6-1.9-4-5.1c8.9-17.8,38.4-76.3,39.1-77.9c0.9-1.8,3.1-4.1,7.1-4.1
		c4,0,72.3,0,79.3,0c8.2,0,9.6-3.6,9.6-10.1c0-6.5,0-16.7,0-19.3c0-2.6,1.7-4.3,4.8-4.3c3,0,141.3,0,145.2,0c3.9,0,5.6,1.3,5.6,3.9
		c0,2.6,0,8.7,0,14.3c0,5.6-1.1,14.7,11.5,14.7c10.5,0,92.9,0,120,0c5.4,0,6.8,3.6,3.9,9.4c-10.6,21.4-36.7,72.2-37.6,73.9
		c-1,2.2-4.2,4.1-9.3,4.1c-20.7,0-73.6,0-78.8,0c-6.5,0-13,4.3-13,10.8c0,4.1,0,11.5,0,16.5c0,3-1.8,5.1-5,5.1
		c-25.2,0-137,0-140.9,0c-4.4,0-6-2.5-6-5.8c0-5,0-11.9,0-15C104.2,421.9,100.7,415.8,90.8,415.8z"/>
	<path class="st0" d="M248.3,411.9l16.5,17.3c0,0,1.2-3.8,5.7-4.7L252,407.2C252,407.2,249,408.8,248.3,411.9z"/>
	<path class="st0" d="M91.2,424.2c0,0,6.6,0.2,6.6,9l15.4-22.7l-4.3-3.1L91.2,424.2z"/>
	<path class="st0" d="M254.4,338.3l17.4-17c0,0-2.4-0.3-4.7-4.1l-17.3,17.6L254.4,338.3z"/>
	<path class="st0" d="M246.9,303.5l16.1-13.8c0,0,1.8,1,2.5,2.7L248.7,308L246.9,303.5z"/>
	<path class="st0" d="M98.2,294.8c0-2.8,2.6-6.2,7-6.2l12.2,15.1c0,0-3.7,0-4.2,1.3c-0.6,1.3-1.2,4.2-1.2,4.2L98.2,294.8z"/>
	<path class="st0" d="M92.9,322c0,0,5.2-0.8,5.2-6.4l12.1,14.3l-7.7,5.6L92.9,322z"/>
	<linearGradient id="SVGID_2_" gradientUnits="userSpaceOnUse" x1="200.6695" y1="270.4378" x2="242.3702" y2="312.1385">
		<stop  offset="0" style="stop-color:#E5E9F3"/>
		<stop  offset="0.8989" style="stop-color:#8F9AB1"/>
		<stop  offset="0.9551" style="stop-color:#405367"/>
		<stop  offset="1" style="stop-color:#E5E9F3"/>
	</linearGradient>
	<path class="st4" d="M258.5,288.6c-1.8,0-38.8,0-76,0l-0.6,6.5c34.5,0,68.7,0,69.9,0c2.3,0,3.6,0.6,4.4,2.3l7.7-6.9
		C264,290.5,262.1,288.6,258.5,288.6z"/>
	<linearGradient id="SVGID_3_" gradientUnits="userSpaceOnUse" x1="121.3136" y1="312.6528" x2="163.9756" y2="269.9908">
		<stop  offset="0" style="stop-color:#E5E9F3"/>
		<stop  offset="3.932600e-002" style="stop-color:#405367"/>
		<stop  offset="8.988800e-002" style="stop-color:#8F9AB1"/>
		<stop  offset="1" style="stop-color:#E5E9F3"/>
	</linearGradient>
	<path class="st5" d="M105.2,288.6c-1.9,0-4,0.9-5.2,2.4l5,5.4c0,0,1-1.3,5-1.3c2,0,37.2,0,72,0l0.6-6.5
		C144.4,288.6,106.1,288.6,105.2,288.6z"/>
	<linearGradient id="SVGID_4_" gradientUnits="userSpaceOnUse" x1="93.9871" y1="314.6362" x2="107.8808" y2="301.6801">
		<stop  offset="0" style="stop-color:#E5E9F3"/>
		<stop  offset="0.1573" style="stop-color:#CBD5E8"/>
		<stop  offset="0.8371" style="stop-color:#CBD5E8"/>
		<stop  offset="1" style="stop-color:#E5E9F3"/>
	</linearGradient>
	<path class="st6" d="M98.8,291.9l5.2,6.4c0,0-0.1,1.8-0.1,3c0,1.2,0,18.4,0,19.6c0,1.2-0.8,3.3-0.8,3.3l-5.5-5.9
		c0,0,0.6-0.8,0.6-3.9c0-3.1,0-18.9,0-19.8C98.2,293.1,98.8,291.9,98.8,291.9z"/>
	
		<linearGradient id="SVGID_5_" gradientUnits="userSpaceOnUse" x1="-7674.98" y1="315.1525" x2="-7660.2686" y2="301.4339" gradientTransform="matrix(-1 0 0 1 -7404.2354 0)">
		<stop  offset="0" style="stop-color:#E5E9F3"/>
		<stop  offset="0.1573" style="stop-color:#CBD5E8"/>
		<stop  offset="0.8371" style="stop-color:#CBD5E8"/>
		<stop  offset="1" style="stop-color:#E5E9F3"/>
	</linearGradient>
	<path class="st7" d="M264.9,291.9l-5.5,5.8c0,0-0.1,2.3-0.1,3.5c0,1.2,0.1,18,0.1,19.2c0,1.2,1.8,3.5,1.8,3.5l6.6-5.9
		c0,0-1.6-0.5-1.6-3.6c0-3.1,0-18.9,0-19.8C266.3,293.1,264.9,291.9,264.9,291.9z"/>
	<linearGradient id="SVGID_6_" gradientUnits="userSpaceOnUse" x1="28.2897" y1="350.278" x2="76.1367" y2="302.431">
		<stop  offset="2.247200e-002" style="stop-color:#405367"/>
		<stop  offset="0.1292" style="stop-color:#8F9AB1"/>
		<stop  offset="1" style="stop-color:#E5E9F3"/>
	</linearGradient>
	<path class="st8" d="M4.5,324.9L9,331c0,0,1.8-2.2,5.8-2.2c4,0,77.6,0,80.4,0c2.8,0,4.9-1.3,4.9-1.3l-5.3-6.3c0,0-2.6,1.2-4.5,1.2
		c-2.1,0-73.3,0.1-77.1,0.1C7.7,322.5,4.5,324.9,4.5,324.9z"/>
	<linearGradient id="SVGID_7_" gradientUnits="userSpaceOnUse" x1="-31.6587" y1="417.8604" x2="-37.2654" y2="409.8532">
		<stop  offset="5.618000e-003" style="stop-color:#050D0F"/>
		<stop  offset="0.1067" style="stop-color:#FFFFFF"/>
		<stop  offset="0.1854" style="stop-color:#8FA7B7"/>
		<stop  offset="0.2416" style="stop-color:#050D0F"/>
		<stop  offset="0.5337" style="stop-color:#546074"/>
		<stop  offset="0.7584" style="stop-color:#050D0F"/>
		<stop  offset="1" style="stop-color:#050D0F"/>
	</linearGradient>
	<path class="st9" d="M-28.7,404.9c0,0-2.9,0.5-5,6.4l-8.2,5.8c0,0-0.7,2.4,0.6,4.3c1.2,1.9,3.1,2.2,3.1,2.2l10.7-7.6
		c0,0-6.1-0.3-3.5-4.8C-28.6,406.5-28.7,404.9-28.7,404.9z"/>
	<linearGradient id="SVGID_8_" gradientUnits="userSpaceOnUse" x1="8.3792" y1="361.3608" x2="-34.7989" y2="383.335">
		<stop  offset="0" style="stop-color:#8FA7B7"/>
		<stop  offset="1" style="stop-color:#050D0F"/>
	</linearGradient>
	<path class="st10" d="M-33.5,411.2l39.7-79.2c0,0-10.8,9.3-17.3,22.7c-6.6,13.5-28.6,56.8-29.3,58.4c-0.8,1.5-1.5,4.2-1.5,4.2
		L-33.5,411.2z"/>
	<linearGradient id="SVGID_9_" gradientUnits="userSpaceOnUse" x1="31.8766" y1="429.4416" x2="28.5661" y2="410.6669">
		<stop  offset="0" style="stop-color:#A3B3BE"/>
		<stop  offset="1" style="stop-color:#050D0F"/>
	</linearGradient>
	<path class="st11" d="M-38.3,423.8l10.9-7.8c0,0,115.2,0,118.1,0c3,0,8.3,2.4,8.3,2.4l-5.6,6.4c0,0-1.3-0.6-4.5-0.6
		C85.9,424.1-38.3,423.8-38.3,423.8z"/>
	<linearGradient id="SVGID_10_" gradientUnits="userSpaceOnUse" x1="98.0275" y1="437.2043" x2="103.5276" y2="437.2043">
		<stop  offset="5.618000e-003" style="stop-color:#546074"/>
		<stop  offset="0.4888" style="stop-color:#8FA7B7"/>
	</linearGradient>
	<path class="st12" d="M96.7,428.2l5.8-6.9c0,0,1.7,2.6,1.7,5.8s0,19.7,0,19.7l-5.5,6.4c0,0-0.9-2-0.9-4.4c0-2.3,0-14.6,0-16.4
		C97.8,430.5,96.7,428.2,96.7,428.2z"/>
	
		<linearGradient id="SVGID_11_" gradientUnits="userSpaceOnUse" x1="-7668.2163" y1="436.5569" x2="-7661.4063" y2="436.5569" gradientTransform="matrix(-1 0 0 1 -7404.5 0)">
		<stop  offset="5.618000e-003" style="stop-color:#546074"/>
		<stop  offset="0.3202" style="stop-color:#8FA7B7"/>
	</linearGradient>
	<path class="st13" d="M265.4,428.4l-7.5-7.5c0,0-1.8,0.9-1.8,4.1c0,3.1,0,19.7,0,19.7l8.6,7.5c0,0,0.2-2,0.2-4.3
		c0-2.3,0-14.6,0-16.4C264.9,429.6,265.4,428.4,265.4,428.4z"/>
	<linearGradient id="SVGID_12_" gradientUnits="userSpaceOnUse" x1="212.5494" y1="468.9561" x2="231.181" y2="436.6852">
		<stop  offset="0" style="stop-color:#A3B3BE"/>
		<stop  offset="0.236" style="stop-color:#A3B3BE"/>
		<stop  offset="1" style="stop-color:#050D0F"/>
	</linearGradient>
	<path class="st14" d="M262.9,455l-8.4-8c0,0-0.6,1-4.8,1c-4.2,0-67.3,0-67.3,0v9.1c0,0,72,0,74.5,0
		C259.4,457.1,262.3,455.4,262.9,455z"/>
	<linearGradient id="SVGID_13_" gradientUnits="userSpaceOnUse" x1="134.0467" y1="438.4717" x2="152.8213" y2="470.9903">
		<stop  offset="0" style="stop-color:#050D0F"/>
		<stop  offset="0.7753" style="stop-color:#A3B3BE"/>
		<stop  offset="0.9438" style="stop-color:#A3B3BE"/>
	</linearGradient>
	<path class="st15" d="M182.4,457.1V448c0,0-70.6,0-71.9,0c-1.3,0-2.2-0.2-2.2-0.2l-7,8.2c0,0,1.7,1.2,6.6,1.2
		C112.7,457.2,182.4,457.1,182.4,457.1z"/>
	<linearGradient id="SVGID_14_" gradientUnits="userSpaceOnUse" x1="59.4586" y1="314.9877" x2="143.297" y2="460.2001">
		<stop  offset="0" style="stop-color:#FFF2C7"/>
		<stop  offset="0.4607" style="stop-color:#FEE691"/>
		<stop  offset="1" style="stop-color:#B18656"/>
	</linearGradient>
	<path class="st16" d="M120.6,303.5c-3.9,0-7.8,2.2-7.8,6.5c0,4.3,0,16.9,0,21.2c0,4.3-2.6,6.1-5.6,6.1c-2.6,0-66.7,0-86.2,0
		c-3.5,0-6.2,1.5-7.8,4.4c-1.3,2.4-22.8,45.6-29.8,59.5c-1.5,3-0.2,4.9,3.7,4.9c24.4,0,116,0,120.5,0c5.2,0,6.1,4.8,6.1,9.5
		c0,4.8,0,13.5,0,16.5c0,3,3,6.5,6.5,6.5c1.7,0,31.2,0,60.6,0v-135C151.6,303.5,122.6,303.5,120.6,303.5z"/>
	<linearGradient id="SVGID_15_" gradientUnits="userSpaceOnUse" x1="292.9707" y1="438.3533" x2="316.4877" y2="412.1391">
		<stop  offset="5.618000e-003" style="stop-color:#546074"/>
		<stop  offset="0.6067" style="stop-color:#8FA7B7"/>
		<stop  offset="1" style="stop-color:#CCE0EE"/>
	</linearGradient>
	<path class="st17" d="M261.8,417.8l6.9,7.1c0,0,1.7-1,9.8-1c8.1,0,72.5,0,74,0c1.5,0,3.7-0.8,3.7-0.8l-39.1-7.9c0,0-45.3,0-47.4,0
		C264.9,415.2,261.8,417.8,261.8,417.8z"/>
	<linearGradient id="SVGID_16_" gradientUnits="userSpaceOnUse" x1="316.4648" y1="295.5144" x2="347.6839" y2="349.5873">
		<stop  offset="5.618000e-003" style="stop-color:#E5E9F3"/>
		<stop  offset="0.8146" style="stop-color:#7A89A0"/>
		<stop  offset="0.9045" style="stop-color:#405367"/>
		<stop  offset="1" style="stop-color:#050D0F"/>
	</linearGradient>
	<path class="st18" d="M264.4,326.7l6.4-5.8c0,0,1.3,0.7,4.3,0.7c3,0,118,0,121,0s6,0.9,6,0.9l-9.4,5.6c0,0-2.1-0.3-5.6-0.3
		c-3.5,0-113.8,0-116.5,0C267.8,327.8,264.4,326.7,264.4,326.7z"/>
	<linearGradient id="SVGID_17_" gradientUnits="userSpaceOnUse" x1="352.6724" y1="418.94" x2="403.5534" y2="330.8114">
		<stop  offset="5.618000e-003" style="stop-color:#8694A1"/>
		<stop  offset="0.1404" style="stop-color:#E5E9F3"/>
		<stop  offset="0.8146" style="stop-color:#7A89A0"/>
		<stop  offset="0.9045" style="stop-color:#405367"/>
		<stop  offset="1" style="stop-color:#050D0F"/>
	</linearGradient>
	<path class="st19" d="M396.1,331.1l8.5-6.9c0,0,1.2,1.1-0.2,4.2c-1.3,3.1-44.7,91.3-45.5,92.4c-0.8,1.1-2.3,2.2-2.3,2.2l-4-8
		c0,0,3.6-1.2,5.2-4.4c1.6-3.2,36.8-72.5,37.8-74.5S396.1,331.1,396.1,331.1z"/>
	<linearGradient id="SVGID_18_" gradientUnits="userSpaceOnUse" x1="335.0784" y1="420.4285" x2="353.0978" y2="410.0249">
		<stop  offset="0" style="stop-color:#050D0F"/>
		<stop  offset="0.7303" style="stop-color:#050D0F"/>
		<stop  offset="0.8146" style="stop-color:#A3B3BE"/>
		<stop  offset="0.8876" style="stop-color:#050D0F"/>
	</linearGradient>
	<path class="st20" d="M318.2,415.7l37,7.5c0,0,2.3-1,3.5-2.9c1.2-1.9,0-2.5-1.4-1.4c-1.3,1.2-3.7-0.8-2.5-2.1
		c1.2-1.4,2.3-5.6,2.3-5.6s-3.7,4.2-8.3,4.2C344.3,415.5,318.2,415.7,318.2,415.7z"/>
	<linearGradient id="SVGID_19_" gradientUnits="userSpaceOnUse" x1="10.2657" y1="380.9374" x2="69.2106" y2="439.8824">
		<stop  offset="0" style="stop-color:#CBB861"/>
		<stop  offset="0.3315" style="stop-color:#654823"/>
		<stop  offset="0.4663" style="stop-color:#654823"/>
		<stop  offset="1" style="stop-color:#CBB861"/>
	</linearGradient>
	<path class="st21" d="M109.4,407.6l-9.4,10c0,0,1.9-1.9-11.6-1.9c-13.5,0-115.7,0-115.7,0s7.7-4.6,32-6.2
		c24.2-1.6,52.8-2.4,67.3-2.2C86.5,407.6,109.4,407.6,109.4,407.6z"/>
	
		<linearGradient id="SVGID_20_" gradientUnits="userSpaceOnUse" x1="-7727.5293" y1="389.3372" x2="-7685.4282" y2="431.4381" gradientTransform="matrix(-1 0 0 1 -7404.5 0)">
		<stop  offset="0" style="stop-color:#CBB861"/>
		<stop  offset="0.3315" style="stop-color:#654823"/>
		<stop  offset="0.4663" style="stop-color:#654823"/>
		<stop  offset="1" style="stop-color:#CBB861"/>
	</linearGradient>
	<path class="st22" d="M251.1,407.6l10.8,10.2c0,0,1.1-2.4,10.6-2.4c9.5,0,78.3-0.2,78.3-0.2s1.2-3.8-19.1-5.2
		c-17.2-1.2-43.8-2.9-54.1-2.6C267.3,407.6,251.1,407.6,251.1,407.6z"/>
	
		<linearGradient id="SVGID_21_" gradientUnits="userSpaceOnUse" x1="-7762.7817" y1="297.63" x2="-7694.7329" y2="365.6789" gradientTransform="matrix(-1 0 0 1 -7404.5 0)">
		<stop  offset="0" style="stop-color:#CBB861"/>
		<stop  offset="0.3315" style="stop-color:#654823"/>
		<stop  offset="0.4663" style="stop-color:#654823"/>
		<stop  offset="1" style="stop-color:#CBB861"/>
	</linearGradient>
	<path class="st23" d="M253.1,338.3l12.2-11.4c0,0-1.3,1.9,8.2,1.9c9.5,0,118.7-0.6,118.7-0.6s-5.5,4.6-22.6,6.2
		c-17.2,1.6-79.6,4.4-89.9,4.2C269.3,338.3,253.1,338.3,253.1,338.3z"/>
	<linearGradient id="SVGID_22_" gradientUnits="userSpaceOnUse" x1="105.2232" y1="428.0603" x2="114.1119" y2="428.0603">
		<stop  offset="0.4888" style="stop-color:#CBB874"/>
		<stop  offset="1" style="stop-color:#654823"/>
	</linearGradient>
	<path class="st24" d="M103,421.6l9.8-11.9c0,0,0.8,2.8,0.8,6.2c0,3.4,0,12.1,0,14.7c0,2.6,1.5,6.1,1.5,6.1l-9.8,9.8
		c0,0-1.2-1.7-1.2-5.2s0-10.1,0-13C104.2,425.3,103,421.6,103,421.6z"/>
	
		<linearGradient id="SVGID_23_" gradientUnits="userSpaceOnUse" x1="-7660.6455" y1="427.9223" x2="-7651.7568" y2="427.9223" gradientTransform="matrix(-1 0 0 1 -7404.25 0)">
		<stop  offset="0.4888" style="stop-color:#CBB874"/>
		<stop  offset="1" style="stop-color:#654823"/>
	</linearGradient>
	<path class="st25" d="M258.6,421.6l-10.5-12.1c0,0-0.8,3-0.8,6.3c0,3.4-0.2,12.5-0.2,15.1c0,2.6-0.6,5.7-0.6,5.7l9.8,9.8
		c0,0,1.2-1.7,1.2-5.2s0-10.1,0-13C257.4,425.3,258.6,421.6,258.6,421.6z"/>
	<linearGradient id="SVGID_24_" gradientUnits="userSpaceOnUse" x1="137.999" y1="431.7581" x2="154.5197" y2="460.3726">
		<stop  offset="0" style="stop-color:#654823"/>
		<stop  offset="0.6461" style="stop-color:#CBB874"/>
		<stop  offset="0.8876" style="stop-color:#FEE691"/>
	</linearGradient>
	<polygon class="st26" points="118.1,438.3 108.5,447.6 180.2,448.2 180.5,448.2 180.5,438.5 	"/>
	<linearGradient id="SVGID_25_" gradientUnits="userSpaceOnUse" x1="223.7443" y1="431.9005" x2="205.6963" y2="463.1604">
		<stop  offset="0" style="stop-color:#654823"/>
		<stop  offset="0.4551" style="stop-color:#CBB874"/>
		<stop  offset="0.8876" style="stop-color:#FEE691"/>
	</linearGradient>
	<polygon class="st27" points="242.4,438.3 180.8,438.5 180.5,438.5 180.5,448.2 254.2,447.3 	"/>
	<linearGradient id="SVGID_26_" gradientUnits="userSpaceOnUse" x1="126.232" y1="316.7378" x2="164.3833" y2="278.5866">
		<stop  offset="0" style="stop-color:#CBB861"/>
		<stop  offset="3.932600e-002" style="stop-color:#654823"/>
		<stop  offset="0.1067" style="stop-color:#CBA45C"/>
		<stop  offset="1" style="stop-color:#CBB861"/>
	</linearGradient>
	<path class="st28" d="M105.6,296.1l9.5,9.3c0,0,0.9-2,7.6-2c6.7,0,58.1,0,58.1,0V295c0,0-69.3,0-71.3,0S105.6,296.1,105.6,296.1z"
		/>
	
		<linearGradient id="SVGID_27_" gradientUnits="userSpaceOnUse" x1="-7640.1929" y1="317.5154" x2="-7601.3745" y2="278.6973" gradientTransform="matrix(-1 0 0 1 -7404.25 0)">
		<stop  offset="0" style="stop-color:#CBB861"/>
		<stop  offset="3.932600e-002" style="stop-color:#654823"/>
		<stop  offset="0.1067" style="stop-color:#CBA45C"/>
		<stop  offset="1" style="stop-color:#CBB861"/>
	</linearGradient>
	<path class="st29" d="M256.5,297l-9.5,9.3c0,0-1.4-2.9-8.1-2.9c-6.7,0-58.1,0-58.1,0V295c0,0,69.3,0,71.3,0
		C254.1,295,256.5,297,256.5,297z"/>
	<linearGradient id="SVGID_28_" gradientUnits="userSpaceOnUse" x1="100.9651" y1="323.0693" x2="115.1557" y2="309.8365">
		<stop  offset="0" style="stop-color:#FEE679"/>
		<stop  offset="0.1573" style="stop-color:#CBA45C"/>
		<stop  offset="0.8371" style="stop-color:#CBA45C"/>
		<stop  offset="1" style="stop-color:#FEE679"/>
	</linearGradient>
	<path class="st30" d="M113.2,308.2l-9.3-10.4c0,0-0.1,2.8-0.1,5.4c0,2.6,0,15,0,17c0,2-0.9,4.4-0.9,4.4l9.3,10.6
		c0,0,0.6-0.9,0.6-5.3C112.8,325.4,113.2,308.2,113.2,308.2z"/>
	
		<linearGradient id="SVGID_29_" gradientUnits="userSpaceOnUse" x1="-7665.7686" y1="322.8822" x2="-7650.9834" y2="309.0945" gradientTransform="matrix(-1 0 0 1 -7404.25 0)">
		<stop  offset="0" style="stop-color:#FEE679"/>
		<stop  offset="0.1573" style="stop-color:#CBA45C"/>
		<stop  offset="0.8371" style="stop-color:#CBA45C"/>
		<stop  offset="1" style="stop-color:#FEE679"/>
	</linearGradient>
	<path class="st31" d="M247.4,308.4l12-11.2c0,0-0.1,2.4-0.1,5.1c0,2.6,0.1,14.9,0.1,16.9c0,2,1.5,4.4,1.5,4.4l-11.4,11.5
		c0,0-2.1-1.2-2.1-5.6C247.4,325.1,247.4,308.4,247.4,308.4z"/>
	<linearGradient id="SVGID_30_" gradientUnits="userSpaceOnUse" x1="36.7365" y1="356.8727" x2="81.0567" y2="312.5526">
		<stop  offset="0" style="stop-color:#654823"/>
		<stop  offset="1" style="stop-color:#B18F50"/>
	</linearGradient>
	<path class="st32" d="M9.1,331.1l7.2,7.5c0,0,2-1.4,6.9-1.4s80.7,0,83,0s4.6-0.9,4.6-0.9l-9.3-9.5c0,0-2.3,2.3-5.5,2.3
		c-3.2,0-77.5,0-79.8,0S10.2,329.9,9.1,331.1z"/>
	<linearGradient id="SVGID_31_" gradientUnits="userSpaceOnUse" x1="356.415" y1="365.0578" x2="375.2687" y2="383.9115">
		<stop  offset="5.618000e-003" style="stop-color:#654823"/>
		<stop  offset="1" style="stop-color:#CBB861"/>
	</linearGradient>
	<path class="st33" d="M344.6,406.4c0,0,4.5-1.7,5.9,3.6c0,0,1.1,1.7,4.2-2.8c3.1-4.5,32.1-64.2,31.8-65.1c-0.3-0.8-6.1-2-6.1-2
		L344.6,406.4z"/>
	<linearGradient id="SVGID_32_" gradientUnits="userSpaceOnUse" x1="350.1553" y1="412.6899" x2="391.7615" y2="332.5495">
		<stop  offset="0" style="stop-color:#987B45"/>
		<stop  offset="0.764" style="stop-color:#654823"/>
		<stop  offset="0.9157" style="stop-color:#473218"/>
	</linearGradient>
	<path class="st34" d="M381.2,340.7l14.2-9.8c0,0,1.6,1.8-0.7,6.4c-2.3,4.5-36.5,72.1-37.6,73.9c-1.1,1.8-4.7,3.5-4.7,3.5
		s-4.2-3.4,0.6-11.7c4.7-8.4,27.1-51.9,29-56.1C384,342.7,382.6,341.6,381.2,340.7z"/>
	<linearGradient id="SVGID_33_" gradientUnits="userSpaceOnUse" x1="315.1637" y1="430.9316" x2="196.9041" y2="289.9953">
		<stop  offset="0" style="stop-color:#FFF2C7"/>
		<stop  offset="0.4607" style="stop-color:#FEE691"/>
		<stop  offset="1" style="stop-color:#B18656"/>
	</linearGradient>
	<path class="st35" d="M247,433.3c0-3.9,0-16.2,0-20.1c0-3.9,2.6-6.9,5.6-6.9c2.6,0,70.8,0,90.1,0c3.2,0,6-1.8,7.7-4.9
		c7.4-13.6,27.6-53.1,29.2-56.3c1.9-3.9,0.7-6.1-3.6-6.1c-25.7,0-114.9,0-119.4,0c-5.2,0-9.1-3.9-9.1-8.7c0-4.8,0-19,0-22.1
		c0-3-1.7-4.8-5.6-4.8c-2,0-31.5,0-61,0v135c29.1,0,58,0,59.7,0C244,438.5,247,437.2,247,433.3z"/>
	<linearGradient id="SVGID_34_" gradientUnits="userSpaceOnUse" x1="-32.9895" y1="405.3327" x2="7.8912" y2="364.452">
		<stop  offset="0" style="stop-color:#654823"/>
		<stop  offset="1" style="stop-color:#E5CF83"/>
	</linearGradient>
	<path class="st36" d="M-28.3,412l11.6-7c0,0-1.3-0.6,0.8-4.7s21.6-44,21.6-44l-4.4-0.9L-28.3,412z"/>
	<linearGradient id="SVGID_35_" gradientUnits="userSpaceOnUse" x1="-40.2147" y1="402.8617" x2="14.8387" y2="347.8083">
		<stop  offset="0" style="stop-color:#654823"/>
		<stop  offset="1" style="stop-color:#E0CA79"/>
	</linearGradient>
	<path class="st37" d="M7.8,332.9c0,0,4.7,2.8,1.6,9.8c-3.2,6.9-34.1,66.8-34.1,66.8l-6.9,4.6c0,0-0.6-2,2.3-7.2
		C-26.5,401.6,7.8,332.9,7.8,332.9z"/>
	<path class="st0" d="M-24.7,416c-0.5,0.3-4.7,0.8-5.5,0c-0.8-0.8-2.2-1.5-1.1-2.4c1.1-0.9,14.7-9,14.7-9s-1.7,0.9,12.3,0.9
		c14,0,108.8,0,111.8,0c2.9,0,5.7,2,6.1,3.3c0.4,1.3-0.4,1.8-1.3,1.7c-0.9-0.2-3.3-0.9-3.9-1.8c-0.6-0.9,0.7-1.7-7.4-1.7
		c-8.1,0-69.9,0.9-83.8,2.2C3.2,410.5-15.2,409.5-24.7,416z"/>
	<path class="st0" d="M388.1,328.5c0.5-0.3,4.7-0.8,5.5,0c0.8,0.8,2.2,1.5,1.1,2.4c-1.1,0.9-14.7,9-14.7,9s1.7-0.9-12.3-0.9
		s-108.8,0-111.8,0c-2.9,0-5.7-2-6.1-3.3c-0.4-1.3,0.4-1.8,1.3-1.7c0.9,0.2,3.3,0.9,3.9,1.8c0.6,0.9-0.7,1.7,7.4,1.7
		c8.1,0,69.9-0.9,83.8-2.2C360.2,334,378.6,334.9,388.1,328.5z"/>
	<path class="st0" d="M11.4,339.1c0-1.3,0.7-3.8,0.1-4.5c-0.6-0.7,1.2-1.6,2.3-0.9c1.2,0.7,3.6,1.3,3.9,1.9c0.3,0.6-0.1,2-1.7,2.6
		c-1.6,0.6-3,1.9-5.5,7.2C8.1,350.8-6,378-6,378s2-4.3,1.2-4.5c-0.9-0.1-2.9,3.5-2.9,3.5L11.4,339.1z"/>
	<path class="st0" d="M108,336.5c-1.2,0.1-1.5-1.2-0.5-1.4c1-0.2,2.4-0.3,3.6-4.9c1.2-4.7,0.3-18.9,0.2-21.5c-0.2-2.6-1.4-5.6,0.3-7
		c1.7-1.4,2.9,1.5,7.3,1.5c4.4,0,14.5-0.3,14.5-0.3s-14.1,1-16.5,1.4c-2.4,0.3-4.4,2.2-4.1,5.6c0.3,3.4-0.5,21-1.2,22.8
		C110.9,334.7,109.7,336.4,108,336.5z"/>
	<path class="st0" d="M203.4,303.1c-1.9,0.1,35.9,0.4,38.3,0.4c2.4,0,5.1,0.7,5.6,3.1c0.5,2.4,0.1,10.2,0.1,10.2s1.2-10,2.9-11.9
		c1.7-1.9,1.2-4.6-1-4.1C247.1,301.4,229.6,301.9,203.4,303.1z"/>
	<path class="st0" d="M253.9,407.5c-1.2-0.2-2.5-0.3-2.9,0.7c-0.3,1,1.5,1.7-0.3,2.7c-1.9,1-3.3,1.6-3.3,0.8c0-0.9,1-5.2,4.5-5.2
		c3.6,0,91.6-0.2,93-0.2c1.4,0,3.1,0.2,3.7,1.5c0.7,1.4,1.5,4.8,2,5.8c0.5,1-0.3,1-1.9-1c-1.5-2-5.4-2.9-8.5-2.7
		C337.3,410.1,253.9,407.5,253.9,407.5z"/>
	<path class="st0" d="M351,410.4c0,0-0.8-1.9-1.4-3.1c-0.5-1.2-2-1.7-2-1.7s1.7-2,4.1-6.5c2.4-4.4,13.6-25.5,14.8-28.4
		c0,0-2.6,7.8,2.4,1.4c0,0-16,30.2-17,32.3C350.9,406.5,351,410.4,351,410.4z"/>
	<path class="st0" d="M114.8,434.2c0,0,0.2,2.4-1.2,3.5c-1.4,1-2,2.8-0.8,3.7c1.2,0.8,2,0.4,2.8-0.8c0.8-1.2,3.7-2.2,5.5-1.8
		C121.1,438.6,114.8,439.5,114.8,434.2z"/>
	<path class="st0" d="M202.3,438.5c0,0,34.3,1.8,36.3,1.9c2,0.1,3.5,0.2,3.5,0.2s-3.6-0.6-2.6-1.7L202.3,438.5z"/>
	<path class="st0" d="M242.9,438.2c0,0-1,1.6,0.6,2.4c1.6,0.8,3.3,1.6,4.3,0.4c1-1.2-0.8-4.5-0.6-6.7
		C247.2,434.4,248,437.8,242.9,438.2z"/>
</g>
<line class="st38" x1="281.4" y1="320.2" x2="281.4" y2="520.2"/>
<line class="st38" x1="81.4" y1="520.2" x2="81.4" y2="320.2"/>
</svg>
