<?xml version="1.0" encoding="utf-8"?>
<!-- Generator: Adobe Illustrator 19.0.1, SVG Export Plug-In . SVG Version: 6.00 Build 0)  -->
<svg version="1.1" id="Слой_1" xmlns="http://www.w3.org/2000/svg" xmlns:xlink="http://www.w3.org/1999/xlink" x="0px" y="0px"
	 viewBox="-58 181.4 478.5 478.5" style="enable-background:new -58 181.4 478.5 478.5;" xml:space="preserve">
<style type="text/css">
	.st0{fill:url(#SVGID_1_);}
	.st1{fill:url(#SVGID_2_);}
	.st2{fill:url(#SVGID_3_);}
	.st3{fill:url(#SVGID_4_);}
</style>
<linearGradient id="SVGID_1_" gradientUnits="userSpaceOnUse" x1="-505.6297" y1="1178.4518" x2="-535.8785" y2="1165.6118" gradientTransform="matrix(12.9454 0 0 13.7035 6931.1616 -15701.9014)">
	<stop  offset="0" style="stop-color:#000000"/>
	<stop  offset="1" style="stop-color:#FFFFFF"/>
</linearGradient>
<path class="st0" d="M376.4,298.2H273.3c-34.9,15.7-56.9,71.6-56.9,71.6h-0.9c10.6-38,47.6-74,47.6-74l-79.2,0.1l-1.8,74l-0.7,0.1
	l-1.3-74.1L96.6,296c45.5,45.2,52,73.6,52,73.6h-0.8c-25.9-52-65.4-71.4-65.4-71.4H-20.9c-21.5,0-36.5,9.8-20.2,45.7
	c10.9,24,20.7,48.9,64,85.3c51.8,43.4,124.9,38.9,155.9,38.9s86.8,3.7,142.5-25.5c55-28.7,64.9-65.4,82.6-103.5
	C425,293.8,376.4,298.2,376.4,298.2L376.4,298.2z M-14.7,340.4c0,0-5.1-18.9,9.4-18.9s67.8-2.2,87.8,12.6
	c17.8,13.1,50.1,38.4,50.1,110.6C132.7,444.7,22.5,441-14.7,340.4L-14.7,340.4z M374.9,340.4C337.7,441,227.5,444.6,227.5,444.6
	c0-72.2,32.4-97.5,50.1-110.6c20-14.7,73.4-12.6,87.8-12.6C380,321.5,374.9,340.4,374.9,340.4L374.9,340.4z"/>
<linearGradient id="SVGID_2_" gradientUnits="userSpaceOnUse" x1="-521.0993" y1="1180.1605" x2="-521.0993" y2="1167.6575" gradientTransform="matrix(12.3942 0 0 13.12 6639.2266 -15019.375)">
	<stop  offset="8.000000e-002" style="stop-color:#4D4D4D"/>
	<stop  offset="0.4328" style="stop-color:#FFFFFF"/>
	<stop  offset="0.5084" style="stop-color:#FFFFFF"/>
	<stop  offset="0.6008" style="stop-color:#FFFFFF"/>
	<stop  offset="0.92" style="stop-color:#4D4D4D"/>
</linearGradient>
<path class="st1" d="M368.1,301.7h-91.6c-33.4,15-58.9,68.6-58.9,68.6h-4.4c10.1-36.4,40.9-70,40.9-70h-67.2L184,370h-5.2l-2.5-69.7
	h-71.9c43.5,43.3,47.4,69.8,47.4,69.8h-3.9c-24.8-49.8-66.6-68.4-66.6-68.4h-93.6c-20.6,0-34.9,9.4-19.4,43.7
	c10.4,23,19.8,46.8,61.3,81.6c49.6,41.6,119.6,37.2,149.2,37.2c29.7,0,83.1,3.5,136.5-24.4c52.6-27.5,62.2-62.6,79.1-99.1
	C414.6,297.6,368.1,301.7,368.1,301.7L368.1,301.7z M-6.4,342.2c0,0-4.8-18.1,9-18.1s64.9-2.1,84.1,12c17,12.6,48,36.8,48,105.9
	C134.7,442,29.2,438.6-6.4,342.2L-6.4,342.2z M366.6,342.2C331,438.5,225.5,442,225.5,442c0-69.1,31-93.3,48-105.9
	c19.1-14.1,70.2-12,84.1-12C371.5,324.1,366.6,342.2,366.6,342.2L366.6,342.2z"/>
<radialGradient id="SVGID_3_" cx="7.4496" cy="997.3987" r="106.0849" gradientTransform="matrix(0.8828 0 0 0.8828 34.4803 -478.6245)" gradientUnits="userSpaceOnUse">
	<stop  offset="0.15" style="stop-color:#FFFFFF"/>
	<stop  offset="0.85" style="stop-color:#000000"/>
</radialGradient>
<path class="st2" d="M-6.4,342.2c0,0-4.8-18.1,9-18.1s64.9-2.1,84.1,12c17,12.6,48,36.8,48,105.9C134.7,442,29.2,438.5-6.4,342.2
	L-6.4,342.2z M8.7,352.1c0,0-4.2-15.7,7.8-15.7s56.2-1.8,72.7,10.4c14.7,10.9,41.5,31.8,41.5,91.6C130.8,438.5,39.5,435.5,8.7,352.1
	L8.7,352.1z"/>
<radialGradient id="SVGID_4_" cx="-232.3373" cy="997.3839" r="106.0849" gradientTransform="matrix(-0.8828 0 0 0.8828 114.0932 -478.5834)" gradientUnits="userSpaceOnUse">
	<stop  offset="0.25" style="stop-color:#FFFFFF"/>
	<stop  offset="0.75" style="stop-color:#000000"/>
</radialGradient>
<path class="st3" d="M366.6,342.2c0,0,4.8-18.1-9-18.1s-64.9-2.1-84.1,12c-17,12.6-48,36.8-48,105.9
	C225.6,442,331,438.6,366.6,342.2L366.6,342.2z M351.5,352.2c0,0,4.2-15.7-7.8-15.7s-56.2-1.8-72.7,10.4
	c-14.7,10.9-41.5,31.8-41.5,91.6C229.5,438.5,320.7,435.5,351.5,352.2L351.5,352.2z"/>
<g>
	<path d="M2.7,513.2c8.9,0,27.7,8.9,27.7,29.7C30.4,565.4,12,572,3.3,572s-46.8,0-46.8,0v-58.8C-43.5,513.2-5.1,513.2,2.7,513.2
		L2.7,513.2z M-22.2,527.7v28.7h18.8c5.1,0,10.5-5.9,10.5-14.9c0-8.9-5.6-13.9-12.9-13.9C-10.5,527.7-22.2,527.7-22.2,527.7
		L-22.2,527.7z"/>
	<polygon points="17.7,572 48,513.5 80.8,513.5 108.4,572 55.8,572 47.3,556.4 77,556.4 65,530.3 41.5,572 	"/>
	<polygon points="107.8,513.4 107.8,572 167.2,572 167.2,557.9 130.1,557.9 130.1,548.9 163.8,548.9 163.8,534.7 130.1,534.7 
		130.1,527.2 168.2,527.2 168.2,513.4 	"/>
	<polygon points="182.8,513.4 195.9,547.6 206.1,525.7 200.2,513.4 229.2,513.4 224.7,525.7 233.6,546.1 247.1,513.4 269.5,513.4 
		244.9,572 225.2,572 215.8,548.6 205.3,572 185,572 162.2,513.4 	"/>
	<path d="M334.1,542.5c0,17.8-17.2,32.3-38.5,32.3s-38.5-14.4-38.5-32.3c0-17.8,17.2-32.3,38.5-32.3
		C316.8,510.2,334.1,524.6,334.1,542.5L334.1,542.5z M295.6,524c-9.5,0-17.2,8.3-17.2,18.5s7.7,18.5,17.2,18.5s17.2-8.3,17.2-18.5
		C312.7,532.3,305,524,295.6,524L295.6,524z"/>
	<path d="M410.5,542.5c0,17.8-17.2,32.3-38.5,32.3s-38.5-14.4-38.5-32.3c0-17.8,17.2-32.3,38.5-32.3S410.5,524.6,410.5,542.5
		L410.5,542.5z M372,524c-9.5,0-17.2,8.3-17.2,18.5S362.5,561,372,561s17.2-8.3,17.2-18.5C389.2,532.3,381.5,524,372,524L372,524z"
		/>
</g>
</svg>
