<?xml version="1.0" encoding="utf-8"?>
<!-- Generator: Adobe Illustrator 19.0.1, SVG Export Plug-In . SVG Version: 6.00 Build 0)  -->
<svg version="1.1" id="Слой_1" xmlns="http://www.w3.org/2000/svg" xmlns:xlink="http://www.w3.org/1999/xlink" x="0px" y="0px"
	 viewBox="0 0 478.5 478.5" style="enable-background:new 0 0 478.5 478.5;" xml:space="preserve">
<style type="text/css">
	.st0{fill:#172569;}
	.st1{fill:#2F3561;}
	.st2{fill:#131258;}
	.st3{fill:#121347;}
</style>
<image style="overflow:visible;" width="1024" height="768" xlink:href="69F1528.jpg"  transform="matrix(1 0 0 1 -7929.6035 -7766.7217)">
</image>
<g>
	<path class="st0" d="M236,266.9c-10,0.4-23.4-0.8-36.6-2.7c-12.8-1.9-25.5-4.7-37.9-9c-9.9-3.4-19.5-7.3-28.6-12.5
		c-12.6-7.2-23.9-15.9-31.2-28.8c-6.7-12-7.5-24.4-1.7-37c5.7-12.2,15.2-20.8,26.1-28c13.7-9.1,28.7-15,44.5-19.4
		c12-3.4,24.2-5.7,36.7-7.1c14-1.5,28-2.6,42.1-1.8c2.9,0.2,5.9,0.2,8.8,0.5c13.3,1.2,26.6,2.7,39.7,5.8
		c18.2,4.3,35.8,10.4,51.8,20.3c10.7,6.6,20.3,14.6,26.7,25.8c6.1,10.7,7.8,22,3.4,34c-4.2,11.5-12,20-21.4,27.2
		c-12.4,9.6-26.4,16-41.2,20.9c-8.9,2.9-17.9,5.1-27,7.1c-8.7,1.8-17.5,2.8-26.3,3.8C255.8,266.9,247.6,266.9,236,266.9z M370.7,194
		c-0.1-5.9-1.7-11.3-4.6-16.2c-5.4-9.2-13.2-15.7-22.2-21.1c-3.1-1.9-4.4-1.5-5.9,1.8c-4.3,9.4-8.5,18.8-13.1,28.1
		c-7.1,14.1-14.7,27.8-23.5,40.8c-4.4,6.5-9.1,12.9-14.2,18.9c-0.8,0.9-2.1,2-1.2,3.4c0.8,1.2,2.2,1.4,3.6,1c3.4-1,6.9-1.5,10.4-2.3
		c11.9-2.9,23.3-6.8,34.3-12.1c9.3-4.6,18-10.1,25.2-17.7C366.1,211.5,370.4,203.6,370.7,194z M108,193.7c-0.1,3.3,0.5,6.5,1.6,9.5
		c4.6,12.9,14.5,21.1,25.8,27.9c2.5,1.5,3.8,1,5.1-1.8c5-10.8,9.8-21.6,15.2-32.2c6.5-12.6,13.5-24.9,21.4-36.8
		c4.6-6.9,9.6-13.4,14.8-19.8c0.7-0.8,1.6-1.7,0.9-2.9c-0.7-1.2-2-1-3.1-1c-0.4,0-0.8,0.1-1.1,0.2c-13.3,2.6-26.3,6.3-38.7,11.8
		c-11.5,5.1-22.3,11.3-31,20.6C112.3,176.3,108.1,184.1,108,193.7z M233.5,255.1c3.3,0,5.8,0,8.4,0c5.8-0.1,10.6-2.5,14.5-6.6
		c3.4-3.6,5.8-8,7.7-12.5c2.7-6.2,5.5-12.4,6.1-19.3c0.4-4.1-0.5-7.9-3.6-10.7c-2.7-2.4-6.1-3-9.7-3.2c-8.4-0.4-16.4,2-24.2,4.5
		c-13,4.1-25.7,8.9-38,14.8c-9.7,4.7-19.2,9.8-27.6,16.7c-1.3,1.1-3.1,2-2.9,3.9c0.3,2.2,2.7,2.4,4.3,2.9
		c10.2,3.2,20.7,5.4,31.3,6.9C211.2,254.1,222.7,255.2,233.5,255.1z M245.1,132.1c-1.3,0-2.6,0.1-4,0c-10.3-0.6-17.8,3.9-22.8,12.8
		c-4.3,7.6-7.9,15.6-9.4,24.2c-1.3,7.9,1.7,14.3,11.3,15.4c6.9,0.9,13.4-0.8,19.8-2.5c9.1-2.4,17.9-5.7,26.6-9.1
		c12.6-4.9,24.8-10.5,36.3-17.8c3.7-2.4,7.4-4.8,10.6-7.8c1.9-1.8,1.7-3.3-0.7-4.5c-0.6-0.3-1.3-0.5-1.9-0.7
		c-9.1-2.9-18.4-4.9-27.8-6.5C270.6,133.4,257.9,132.5,245.1,132.1z"/>
	<path class="st0" d="M361.2,354.5c0-4.9-0.1-9.9-0.1-14.8c0-10.2-0.1-20.4,0-30.6c0-4.6,1.2-8.7,5.7-11.1c1.3-0.7,2.7-1.1,4.2-1.1
		c0.4,0,0.7,0.1,1.1,0.1c0.6,0.6,1.3,0.4,2,0.4c13.1,0,26.3,0,39.4,0c0.5,0.4,0.4,1,0.4,1.5c0,17.9,0,35.9,0,53.8
		c0,1.4-0.4,1.9-1.9,1.9c-3.9-0.1-7.7,0-11.6-0.1c0-5.2-0.1-10.3,0-15.5c0-1.7-0.5-2.1-2.1-2.1c-7.1,0.1-14.2,0.1-21.3,0
		c-1.6,0-2.1,0.4-2.1,2.1c0.1,5.2,0,10.3-0.1,15.5C370.2,354.5,365.7,354.5,361.2,354.5z M387.4,324.3c3.6,0,7.3-0.1,10.9,0
		c1.5,0,2-0.3,2-1.9c-0.1-3.6-0.1-7.3,0-10.9c0.1-1.7-0.4-2.2-2.1-2.2c-6.5,0.1-13,0-19.5,0.1c-2.7,0-3.8,1-3.8,3.7
		c0,3.2,0,6.3,0,9.5c0,1.3,0.4,1.7,1.7,1.7C380.2,324.2,383.8,324.3,387.4,324.3z"/>
	<path class="st0" d="M338.9,296.8c5.6,0.3,9.7,4.7,9.7,10.6c0.1,12.3,0.1,24.6,0,36.8c0,5.6-3.8,9.8-9.3,10.7
		c-0.8-0.7-1.8-0.4-2.7-0.4c-12.8,0-25.6,0-38.4,0c-1.4,0-2.3-0.1-2.3-1.9c0.1-17.8,0.1-35.6,0-53.5c0-1.4,0.5-2,1.9-1.8
		c12.7,0,25.5,0,38.2,0c0.6,0,1.3,0.2,1.7-0.4C338.2,296.9,338.6,296.8,338.9,296.8z M309.7,342.3c0,0.4,0.1,0.9,0.6,0.8
		c7.3-0.6,14.6-0.1,21.9-0.3c0.3,0,0.9,0.2,0.6-0.5c1-0.8,2-1.6,2-3.1c-0.1-9,0-18,0-26.9c0-1.8-1-2.9-2.8-2.9c-7,0-13.9,0-20.9,0
		c-1.1,0-1.5,0.3-1.5,1.4C309.6,321.3,309.6,331.8,309.7,342.3z"/>
	<path class="st0" d="M202.7,296.8c3.2-0.9,6.4-0.3,9.6-0.3c4.3-0.1,4.3,0,4.3,4.2c0,14.4,0,28.8,0,43.2c0,5.7-3.9,10.5-9.6,11.1
		c-0.8-0.8-1.8-0.4-2.7-0.4c-13.7,0-27.3,0-41-0.1c0-12.4-0.1-24.8-0.1-37.2c0-6.7,0.1-13.3,0.1-20c3.6,0,7.3,0.1,10.9-0.1
		c2.2-0.1,2.5,0.7,2.5,2.7c-0.1,13.5,0,26.9-0.1,40.4c0,1.9,0.6,2.6,2.5,2.6c6.4-0.1,12.9,0,19.3,0c0.7,0,1.4,0.2,1.9-0.5
		c2-0.8,2.1-2.4,2.1-4.2c0-13,0-26.1,0-39.1C202.4,298.3,202.2,297.5,202.7,296.8c4.3,1.1,8.6,0.2,12.9,0
		C211.3,296.8,207,296.8,202.7,296.8z"/>
	<path class="st0" d="M90.1,297.3c0,19,0,38.1,0,57.1c-4.6,0-9.2,0.1-13.7,0.1c0-2.8-0.1-5.7-0.1-8.5c0-4.3-0.1-8.6,0.4-12.9
		c0.2-1.5-0.1-2.1-2.2-2.1c-7.2,0.3-14.4,0.3-21.5,0c-2.2-0.1-2.7,0.4-2.7,2.4c0.1,6.3,0,12.7,0,19c0,1.4-0.3,2.1-1.9,2.1
		c-3.9-0.1-7.7-0.1-11.6-0.1c0-19,0-38.1,0-57.1c3.9,0,7.7,0,11.6,0c0.9,0,1.9-0.1,1.9,1.3c0,6.2,0.1,12.3-0.1,18.5
		c-0.1,1.8,0.2,2.4,1.9,2.5c7.6,0,15.3,0,22.9,0c1.5,0.1,1.9-0.7,1.7-2c-0.9-6.2-0.1-12.4-0.3-18.6c0-1.2,0.8-1.7,2-1.7
		C82.2,297.3,86.2,297.3,90.1,297.3z"/>
	<path class="st0" d="M272.5,296.8c5.1,0.3,8.7,3.4,9.7,8.4c-0.7,0.7-0.4,1.6-0.4,2.4c0,4.2,0,8.4,0,12.5c0,10.6-0.1,21.2,0.1,31.8
		c0,2.1-0.6,2.7-2.6,2.6c-2.4-0.2-4.8-0.2-7.2,0c-2.2,0.2-2.9-0.5-2.9-2.8c0.1-12.9,0-25.8,0-38.8c0-3.3-0.8-4-4.1-4.1
		c-7.1-0.2-14.2,0.4-21.3-0.3c-0.5,0-0.5,0.4-0.5,0.8c0,0,0-0.1,0-0.1c-1,0-0.6,0.6-0.6,1.1c0,14,0,28,0.1,42c0,1.6-0.6,2-2,1.9
		c-2.7-0.1-5.4-0.1-8.1,0c-1.9,0.1-2.5-0.6-2.5-2.5c0.1-17.4,0.1-34.8,0-52.2c0-2.1,0.6-2.6,2.6-2.6c12.4,0.1,24.8,0.1,37.1,0
		C270.7,297.3,271.7,297.6,272.5,296.8z"/>
	<path class="st0" d="M156.7,298c-6.9,11.1-13.8,22.1-20.7,33.1c-1.5,2.4-2.4,4.6-2.3,7.5c0.1,5.4,0.4,10.8-0.2,16.2
		c-4.5-0.6-9-0.6-13.5,0c-0.5-0.4-0.3-1-0.3-1.5c0-1.8,0-3.6,0-5.3c-0.2-4.6,1.1-9.4-0.5-13.6c-1.5-4.1-4.6-7.6-6.9-11.4
		c-5.3-8.5-10.7-17.1-16-25.6c4.1,0,8.3,0,12.4-0.1c1.8-0.1,3.4,0.1,4.8,1.5c0,0,0,0,0,0c0,0.8,0.1,1.5,1.1,1.7c0,0,0,0,0,0
		c0,1.4,0,1.4,0.9,1.4c3.7,5.8,7.5,11.6,11.3,17.6c4.6-7.2,9.1-14.2,13.7-21.3c1-0.8,2.2-1,3.4-0.9c3.4,0.2,6.9-0.2,10.3,0.2
		C155,297.6,156,296.6,156.7,298z"/>
	<path class="st0" d="M427.9,354.4c0-5.3-0.1-10.7-0.1-16c0-13.3,0-26.6,0-39.9c0-1.6,0.3-2.2,2-2.1c3.4,0.1,6.8,0.1,10.2,0
		c1.2,0,1.8,0.2,1.8,1.6c-0.1,18.8-0.1,37.6-0.1,56.4C437,354.4,432.5,354.4,427.9,354.4z"/>
	<path class="st1" d="M243.2,309.5c0-0.4,0-0.9,0.5-0.8c7.1,0.6,14.2,0.1,21.3,0.3c3.3,0.1,4.1,0.8,4.1,4.1c0,12.9,0.1,25.8,0,38.8
		c0,2.3,0.7,2.9,2.9,2.8c2.4-0.2,4.8-0.2,7.2,0c2,0.1,2.6-0.5,2.6-2.6c-0.1-10.6-0.1-21.2-0.1-31.8c0-4.2,0-8.4,0-12.5
		c0-0.8-0.3-1.7,0.4-2.4c0.6,1.2,0.3,2.4,0.4,3.6c0,14.7,0,29.4,0.1,44.1c0,1.5-0.3,2.2-2,2.1c-3.4-0.1-6.8-0.1-10.2,0
		c-1.6,0.1-1.9-0.4-1.9-1.9c0.1-13.3,0-26.6,0-40c0-3.3-0.5-3.9-3.9-3.9C257.5,309.4,250.3,309.4,243.2,309.5z"/>
	<path class="st2" d="M272.5,296.8c-0.8,0.8-1.7,0.5-2.6,0.5c-12.4,0-24.8,0.1-37.1,0c-2,0-2.6,0.5-2.6,2.6
		c0.1,17.4,0.1,34.8,0,52.2c0,1.9,0.5,2.6,2.5,2.5c2.7-0.2,5.4-0.1,8.1,0c1.5,0,2-0.4,2-1.9c-0.1-14,0-28-0.1-42
		c0-0.5-0.4-1.1,0.6-1.1c0,14.5,0,28.9,0,43.4c0,1.8-0.5,2.3-2.3,2.2c-3.8-0.2-7.6-0.2-11.3-0.2c0-18.4,0-36.7,0.1-55.1
		c0-2.9,0-2.9,3-2.9C246,296.8,259.2,296.8,272.5,296.8L272.5,296.8z"/>
	<path class="st1" d="M90.1,297.3c-3.9,0-7.9,0-11.8-0.1c-1.2,0-2,0.5-2,1.7c0.2,6.2-0.6,12.4,0.3,18.6c0.2,1.3-0.3,2.1-1.7,2
		c-0.4-0.5-1-0.4-1.5-0.4c-6.6,0-13.3,0-19.9,0c-0.5,0-1.1,0-1.5,0.4c-1.7-0.1-2-0.7-1.9-2.5c0.2-6.2,0.1-12.3,0.1-18.5
		c0-1.4-1-1.3-1.9-1.3c-3.9,0-7.7,0-11.6,0c-0.1-1,0.6-0.9,1.2-0.9c3.9,0,7.7,0.1,11.6,0c1.6,0,1.5,0.9,1.5,1.9c0,6.1,0,12.2,0,18.4
		c0,1.5,0.2,2.2,2,2.1c7-0.1,13.9-0.1,20.9,0c1.7,0,2.1-0.5,2-2.1c-0.1-6.1,0-12.2-0.1-18.4c0-1.5,0.4-2,2-2c3.6,0.1,7.1,0,10.7,0.1
		C89.1,296.4,90.2,295.9,90.1,297.3z"/>
	<path class="st1" d="M36.7,354.4c3.9,0,7.7,0,11.6,0.1c1.6,0,1.9-0.7,1.9-2.1c0-6.3,0-12.7,0-19c0-2,0.5-2.5,2.7-2.4
		c7.2,0.3,14.4,0.3,21.5,0c2-0.1,2.3,0.5,2.2,2.1c-0.4,4.3-0.4,8.6-0.4,12.9c0,2.8,0.1,5.7,0.1,8.5c0,0.1-0.1,0.2-0.1,0.4
		c-0.7-0.6-0.3-1.5-0.3-2.2c0-6.3-0.1-12.7,0-19c0-1.4-0.3-2-1.9-2c-7,0.1-14.1,0.1-21.1,0c-1.5,0-2,0.4-1.9,1.9
		c0.1,6.5,0,13,0.1,19.5c0,1.6-0.4,2.1-2.1,2c-3.6-0.1-7.1,0-10.7-0.1C37.8,355,36.9,355.6,36.7,354.4z"/>
	<path class="st1" d="M400.3,354.4c3.9,0,7.7,0,11.6,0.1c1.4,0,1.9-0.5,1.9-1.9c0-17.9,0-35.9,0-53.8c0-0.5,0.1-1.1-0.4-1.5
		c-0.5-0.5-1.1-0.4-1.7-0.4c-13.2,0-26.4,0-39.6,0c-0.4,0-0.7-0.1-1.1-0.1c0.7-0.5,1.5-0.4,2.2-0.4c13,0,26,0,39,0
		c1.8,0,2.1,0.6,2.1,2.2c-0.1,18.2-0.1,36.4,0,54.6c0,1.4-0.2,2-1.8,2c-3.4-0.2-6.8,0-10.2-0.1C401.6,355,400.7,355.6,400.3,354.4z"
		/>
	<path class="st3" d="M298,297.3c-1.4-0.2-1.9,0.4-1.9,1.8c0,17.8,0,35.6,0,53.5c0,1.8,0.8,1.9,2.3,1.9c12.8,0,25.6,0,38.4,0
		c0.9,0,1.9-0.3,2.7,0.4c-7.3,0-14.7,0.1-22,0.1c-6.7,0-13.3,0-20,0c-0.9,0-1.8,0.2-1.8-1.3c0.1-19,0.1-37.9,0.1-56.9
		c0.7,0,1.5,0,2.2,0.1C298,297,298,297.1,298,297.3z"/>
	<path class="st0" d="M272.5,296.8c-13.2,0-26.5,0-39.7,0.1c-3,0-3,0-3,2.9c0,18.4,0,36.7-0.1,55.1c-0.7-0.6-0.3-1.5-0.3-2.2
		c0-18,0-35.9-0.1-53.9c0-2,0.6-2.4,2.4-2.4c12.8,0.1,25.7,0,38.6,0.1C271,296.4,271.8,296.2,272.5,296.8z"/>
	<path class="st2" d="M200.4,342.4c-0.5,0.7-1.3,0.5-1.9,0.5c-6.4,0-12.9-0.1-19.3,0c-2,0-2.5-0.7-2.5-2.6c0.1-13.5,0-26.9,0.1-40.4
		c0-2-0.4-2.8-2.5-2.7c-3.6,0.2-7.3,0.1-10.9,0.1c-0.1-0.1-0.1-0.3,0-0.4c4.6,0,9.3,0,13.9-0.1c0,4.8,0.1,9.6,0.1,14.4
		c0,9.3,0,18.6,0,27.9c0,3.3,0,3.2,3.1,3.3C187,342.3,193.7,342.4,200.4,342.4z"/>
	<path class="st3" d="M163.2,354.4c13.7,0,27.3,0,41,0.1c0.9,0,1.9-0.3,2.7,0.4c-12.1,0-24.1,0.1-36.2,0.1c-2.1,0-4.2,0-6.3,0
		C164,355,163.3,355.3,163.2,354.4z"/>
	<path class="st1" d="M298,296.9c-0.7,0-1.5,0-2.2-0.1c0.4-0.9,1.2-0.4,1.8-0.4c13,0,25.9,0,38.9,0c0.8,0,1.7-0.1,2.5,0.4
		c-0.3,0-0.7,0.1-1,0.1C324.6,296.9,311.3,296.9,298,296.9z"/>
	<path class="st1" d="M156.7,298c-0.6-1.4-1.7-0.4-2.6-0.5c-3.4-0.4-6.9,0-10.3-0.2c-1.3-0.1-2.4,0.1-3.4,0.9
		c0.2-1.3,0.9-1.8,2.2-1.8c4.5,0,9.1,0,13.6,0c0.4,0,1.1-0.2,1.2,0.3C157.6,297.2,157.1,297.6,156.7,298z"/>
	<path class="st1" d="M113.3,298.7c-1.3-1.4-2.9-1.5-4.8-1.5c-4.1,0.1-8.3,0.1-12.4,0.1c-0.6-0.6-0.5-0.9,0.4-0.9
		c4.9,0,9.7,0,14.6,0C112.7,296.4,112.8,297.7,113.3,298.7z"/>
	<path class="st1" d="M177.1,296.8c-4.6,0-9.3,0-13.9,0.1c0.2-0.8,0.9-0.5,1.3-0.5c3.8,0,7.6,0,11.4,0
		C176.4,296.4,176.9,296.2,177.1,296.8z"/>
	<path class="st3" d="M76.2,354.8c0-0.1,0.1-0.2,0.1-0.4c4.6,0,9.2-0.1,13.7-0.1c0,0.4-0.2,0.6-0.5,0.6
		C85.1,354.9,80.7,354.9,76.2,354.8z"/>
	<path class="st3" d="M427.9,354.4c4.6,0,9.2,0,13.8,0c0,0.5-0.4,0.6-0.8,0.6c-4.1,0-8.1,0-12.2,0C428.3,355,427.9,355,427.9,354.4z
		"/>
	<path class="st3" d="M120,354.8c4.5-0.6,9-0.6,13.5,0C128.9,355.2,124.4,355.1,120,354.8z"/>
	<path class="st3" d="M361.2,354.5c4.5,0,9,0,13.6,0c0,0.1,0,0.2-0.1,0.2c-4.5,0.6-9,0.6-13.4,0
		C361.2,354.7,361.2,354.5,361.2,354.5z"/>
	<path class="st1" d="M114.4,300.5c-0.9-0.2-1-1-1.1-1.7C114,299.2,114.4,299.7,114.4,300.5z"/>
	<path class="st1" d="M115.3,301.9c-0.9,0-0.9,0-0.9-1.4C115,300.8,115.2,301.3,115.3,301.9z"/>
	<path class="st2" d="M372,296.9c13.2,0,26.4,0,39.6,0c0.6,0,1.3-0.1,1.7,0.4c-13.1,0-26.3,0-39.4,0
		C373.3,297.3,372.6,297.5,372,296.9z"/>
	<path class="st2" d="M298,296.9c13.3,0,26.6,0,39.9,0c-0.5,0.6-1.1,0.4-1.7,0.4c-12.7,0-25.5,0-38.2,0C298,297.1,298,297,298,296.9
		z"/>
	<path class="st2" d="M309.7,342.3c7.7,0,15.4,0,23.2,0c0.2,0.7-0.3,0.5-0.6,0.5c-7.3,0.2-14.6-0.3-21.9,0.3
		C309.7,343.2,309.7,342.7,309.7,342.3z"/>
	<path class="st2" d="M202.7,296.8c4.3,0,8.6,0,12.9,0C211.3,297,207,297.9,202.7,296.8C202.7,296.8,202.7,296.8,202.7,296.8z"/>
	<path class="st2" d="M52,319.6c0.4-0.4,1-0.4,1.5-0.4c6.6,0,13.3,0,19.9,0c0.5,0,1.1,0,1.5,0.4C67.2,319.6,59.6,319.6,52,319.6z"/>
</g>
</svg>
