<?xml version="1.0" encoding="utf-8"?>
<!-- Generator: Adobe Illustrator 19.0.1, SVG Export Plug-In . SVG Version: 6.00 Build 0)  -->
<svg version="1.1" baseProfile="tiny" id="Слой_1"
	 xmlns="http://www.w3.org/2000/svg" xmlns:xlink="http://www.w3.org/1999/xlink" x="0px" y="0px" viewBox="-58 181.4 478.5 478.5"
	 xml:space="preserve">
<path fill="#1A5493" d="M118.4,508.3c2.7-0.9,5.8-0.7,8.6-0.8c31.2,0,62.3-0.1,93.5,0.1c-0.7,2.2-1.3,4.6-3,6.3
	c-2,2-4.3,4.7-7.4,4.4h-66.6c-2.3,0.2-6.5-0.4-7.6,2.2l-4.5,11.6l67.9,0.1c-1.5,4.2-4.4,8.4-8.9,9.7c-3.8,0.6-7.6,0.3-11.4,0.4
	l-51.8,0.1l-8.8,22.4H91l14.9-38.1c1.5-3.9,2.9-7.9,4.8-11.7C112,512.2,115.4,509.3,118.4,508.3L118.4,508.3z"/>
<path fill="#1A5493" d="M302.4,515.8c1.4-4.4,5.4-8.5,10.4-8.3c3.1-0.3,5.9,1.1,8.3,2.8l43.4,30c1.8,1.2,3.7,2.6,6,2.4
	c1.5-0.9,2.2-2.6,2.9-4.1l11.8-30.6l26.9-0.3l-16.6,44.2c-2,5.2-4.7,10.7-9.9,13.3c-4.2,1.7-8.7-0.3-12-2.8l-44.5-31.5
	c-1-0.7-2.1-1.3-3.3-1.7c-2.3,0.8-3,3.3-3.9,5.3l-12,30.3h-26.4L302.4,515.8L302.4,515.8z"/>
<path fill="#1A5493" d="M275.6,554.5c0.9,2.5,2.2,5.2,1.9,8c-1.1,2.9-4.6,2.2-7.1,2.3l-48.7-0.2l-1.8-10.8l23.5-0.5
	c2.6-0.7,1.3-3.4,0.9-5.2c-1.8-5.2-2.9-10.6-5.2-15.6c-1.4-2.6-4.7-0.9-6.4,0.4c-13.5,9.8-27,19.7-40.3,29.7
	c-1.5,1.1-3.1,2.5-5.1,2.3l-18.5-0.1l73.3-55.2c4.8-3.8,12.5-4,17,0.4c2.6,2.2,3.2,5.6,4.3,8.6L275.6,554.5L275.6,554.5z"/>
<path fill="#1A5493" d="M-31.9,507.6h26.7l-15.4,37.3c-0.6,1.5-0.9,3.1-0.7,4.7c1,3.1,4.8,2.4,7.3,2.8l71,0.1
	c-1.7,5.1-5,10.6-10.5,12.2l-82.1,0.1c-4.2,0-9.1-0.6-11.8-4.2c-3.3-3.9-2.5-9.6-0.7-14L-31.9,507.6L-31.9,507.6z"/>
<polygon fill="#1A5493" points="80.9,507.8 107.2,507.6 84.9,564.8 58.5,564.8 "/>
<path fill="#1A5493" d="M87.6,426.8l57.3-0.2l50.4-107.9l46-0.1c-5.5,13.4-12.1,26.3-18.1,39.5c-7.5,17.3-20.6,32-36.4,42.2
	c-9,6-18.9,10.4-29,14.4l46.9,0.2c1.6,0.2,2.1-1.7,2.7-2.7l44-93.6l20.8-0.2c-19.6-20-46.6-31.5-74.2-34.9
	c-24.5-3.1-50.8,0.7-73.4,10.4c-19.3,8.6-37,22-48.4,40c-12,17.9-16.8,40.7-12.2,61.8c2.5,12.1,7.8,23.7,15.3,33.5l52-110.5h54.5
	c-6.5,15-13.8,29.7-20.5,44.6c-5,11.2-12.1,21.5-20.9,30.1C128.7,409.1,108.4,419.3,87.6,426.8L87.6,426.8z M200.9,427.3l-56.4,0.5
	l-6.8,15.1L92,443.5c17.7,16.1,40.2,26.5,63.7,30.6c32.3,5.6,66.8,0.3,95-16.8c17.2-10.2,31.9-25.2,40.3-43.6
	c12.4-25.5,9.6-57.3-6.7-80.4c-4.5,8.8-8,18.2-13.3,26.7c-9.8,17.3-24.9,31.7-43,40c-3.2,1.5-6.6,2.5-9.8,4.1l38.2,0.3l-4.7,10.8
	l-45.1,0.1L200.9,427.3L200.9,427.3z M167.1,276c38.4-2.9,78.4,5.9,110,28.5c13.7,9.8,25.6,22.5,33.4,37.5
	c7.5,14.3,10.9,30.8,8.9,46.8c-1.7,15.9-8.7,30.9-18.6,43.3c-20.3,25.7-51,41.2-82.6,47.8c-33.9,6.9-69.9,4.4-102-8.5
	c-25.3-10.2-48.9-27.3-62.5-51.4c-8.9-15.3-12.7-33.5-10.3-51C45,356.3,50,344.2,57,333.6c17.4-25.7,45.3-42.6,74.7-51.2
	C143.2,279.1,155.1,277,167.1,276L167.1,276z"/>
</svg>
