<?xml version="1.0" encoding="utf-8"?>
<!-- Generator: Adobe Illustrator 19.0.1, SVG Export Plug-In . SVG Version: 6.00 Build 0)  -->
<svg version="1.1" id="Слой_1" xmlns="http://www.w3.org/2000/svg" xmlns:xlink="http://www.w3.org/1999/xlink" x="0px" y="0px"
	 viewBox="-58 181.4 478.5 478.5" style="enable-background:new -58 181.4 478.5 478.5;" xml:space="preserve">
<style type="text/css">
	.st0{fill:#FEFEFE;}
	.st1{fill:#0D151F;}
	.st2{fill:#2D3A41;}
	.st3{fill:#586167;}
	.st4{fill:#424C52;}
	.st5{fill:#364249;}
	.st6{fill:#4E555D;}
	.st7{fill:#F7F8F7;}
	.st8{fill:#CFD1CF;}
	.st9{fill:#E7E7E6;}
	.st10{fill:#6D7379;}
	.st11{fill:#B6B9BB;}
	.st12{fill:#A6ABAE;}
	.st13{fill:#81858A;}
	.st14{fill:#1B242F;}
	.st15{fill:#25323A;}
</style>
<g>
	<path class="st0" d="M181.3,582.8c-79.2,0-158.4,0-237.6,0c-1,0-1.2-0.2-1.2-1.2c0-105.3,0-210.6,0-315.9c0-1,0.2-1.2,1.2-1.2
		c158.4,0,316.8,0,475.2,0c1,0,1.2,0.2,1.2,1.2c0,105.3,0,210.6,0,315.9c0,1-0.2,1.2-1.2,1.2C339.6,582.8,260.4,582.8,181.3,582.8z
		 M261,396.5L261,396.5c0.1-0.1,0.1-0.2,0.1-0.2c0.1-0.2,0.2-0.3,0.2-0.5c1.4-6.3,2.1-12.6,1.9-19.1c-0.1-4.4-0.3-8.8-1.3-13.2
		c-0.1-0.8-0.3-1.6-0.4-2.4c-0.1-0.2-0.1-0.4-0.2-0.5c0-0.4,0-0.8-0.2-1.1l0-0.1l-0.1-0.1c-0.2-1-0.4-2.1-0.7-3.1
		c-2.7-9.9-7.1-18.9-13.2-27.1c-3-4-6.3-7.8-10.1-11.1c-0.5-0.6-1-1.1-1.6-1.5c-0.1-0.1-0.1-0.1-0.2-0.2c-0.3-0.2-0.5-0.5-0.8-0.7
		c-6.7-5.7-14.2-10.3-22.4-13.6c-6.5-2.6-13.2-4.5-20.2-5.2c-0.9-0.3-1.8-0.3-2.7-0.3c-0.1-0.1-0.2-0.1-0.2,0
		c-1.2-0.1-2.3-0.2-3.5-0.2c-0.2,0-0.4,0-0.6,0c-3.7-0.2-7.4-0.2-11.1,0.3c-0.1,0-0.2,0-0.2,0c-3.5,0.2-7,0.8-10.3,1.6
		c-28.1,7.1-47.6,24-58.5,50.9c-3.2,7.9-4.9,16.2-5.2,24.8c-0.1,0.1-0.1,0.2,0,0.2c-0.3,5.3-0.1,10.6,0.7,15.9
		c0.7,5.7,2.2,11.1,4.1,16.5c2.9,7.7,6.7,14.8,11.8,21.3c2.6,3.3,5.3,6.5,8.4,9.4c0.1,0.1,0.1,0.1,0.2,0.2c1.7,1.7,3.4,3.3,5.3,4.7
		c0.1,0.1,0.2,0.3,0.3,0.4c10.5,8.2,22.2,13.7,35.3,16.2c6,1.3,12.2,1.7,18.3,1.4c4.5,0,8.9-0.5,13.2-1.5
		c27.8-6.1,47.5-22.2,59.4-48C258.5,406,260.1,401.4,261,396.5L261,396.5z M-11.8,537.8c-0.9-2.6-1.8-4.9-2.6-7.1
		c-3.6-9.7-7.1-19.3-10.7-28.9c-0.2-0.5-0.2-1.2-1.2-1.1c-3.7,0.5-7.5,0.4-11.3,0.1c-1-0.1-1.1,0.2-1.1,1.1c0,1.1,0.8,0.8,1.3,0.8
		c4.5,0.6,5,1.1,4.8,5.6c-0.3,7.9-0.7,15.9-1,23.8c-0.2,4.3-0.4,8.5-0.6,12.8c-0.1,2-0.8,2.8-2.7,3.3c-0.9,0.2-1.8,0.3-2.7,0.4
		c-0.9,0.1-0.4,0.7-0.5,1.1c-0.1,0.5,0.1,0.7,0.6,0.7c4.4-0.4,8.9-0.4,13.3,0c0.5,0.1,0.8-0.1,0.7-0.7c-0.1-0.4,0.3-1.1-0.5-1.1
		c-0.5,0-1-0.1-1.5-0.2c-3.5-0.4-4.2-1.3-4.1-4.8c0.4-9.1,0.7-18.3,1-27.4c0.1-2.9,0.2-5.7,0.3-8.6c0-0.2-0.2-0.6,0.2-0.7
		c0.4-0.1,0.4,0.3,0.5,0.5c0.1,0.3,0.2,0.6,0.3,0.9c4.9,13.2,9.9,26.4,14.5,39.7c0.1,0.4,0.2,0.9,0.8,0.9c0.7,0,0.7-0.5,0.9-0.9
		c4.9-13.5,9.9-27,14.9-40.5c0.1-0.3,0-0.9,0.8-0.9c0,2.9,0,5.9,0,8.8c0.1,9.2,0.3,18.3,0.4,27.5c0.1,4.8-0.3,5.2-5.1,5.8
		c-0.8,0.1-1,0.4-1,1.1c0,1,0.6,0.7,1.1,0.6c5.4-0.6,10.8-0.6,16.2,0c0.4,0,1.1,0.6,1.2-0.5c0-0.7,0-1.3-1-1.3
		c-0.7,0-1.5-0.2-2.3-0.3c-2-0.5-2.6-1.2-2.7-3.3c-0.1-1.5-0.1-3-0.2-4.6c-0.1-6.5-0.3-13-0.4-19.5c-0.1-4.7-0.2-9.3-0.3-14
		c0-2.6,0.7-3.4,3.2-3.9c0.7-0.1,1.3-0.2,2-0.2c1,0,0.8-0.7,0.8-1.3c0.1-0.9-0.6-0.6-1-0.6c-3.7,0.3-7.3,0.3-11-0.1
		c-0.9-0.1-1.1,0.3-1.4,1c-4.1,11.1-8.2,22.1-12.4,33.2C-11,535.7-11.4,536.6-11.8,537.8z M287.7,523.9c0.3-0.5,0.7-0.5,1.1-0.7
		c8.6-4.1,7.8-14.7,2.8-19.1c-2.7-2.4-6-3.2-9.5-3.2c-6.6-0.1-13.2,0-19.8,0c-0.6,0-1.1,0-1.1,0.9c0,0.8,0.3,1.1,1.1,1.1
		c0.7,0,1.4,0.1,2.1,0.3c2,0.4,2.7,1.2,2.8,3.3c0,0.5,0,1,0,1.5c0,11.6,0,23.3,0,34.9c0,4.5-0.4,4.9-4.9,5.4
		c-0.7,0.1-1.2,0.1-1.2,1.1c0,1.1,0.7,0.8,1.3,0.8c6.3,0,12.7,0,19,0c2.3,0,4.6-0.3,6.7-1c6-2,9.6-7.5,9.3-13.9
		C297.2,529.4,293.7,525.3,287.7,523.9z M167.5,520.4c-0.4-0.6-0.7-0.9-0.9-1.2c-2.8-4-6.3-5.3-11-3.9c-4,1.1-6.6,3.8-8.3,7.5
		c-2.1,4.6-2.5,9.5-1.7,14.5c0.6,3.9,2,7.5,4.9,10.4c4.3,4.3,13.4,5.4,17.2-1.9c0.1-0.1,0.2-0.2,0.3-0.3c0.3,1.6,0.4,3.2,0.8,4.7
		c0.1,0.5,0.3,0.9,0.9,0.7c2.7-0.9,5.6-1.3,8.4-1.6c0.5,0,0.7-0.2,0.7-0.7c0-0.6-0.2-0.7-0.7-0.7c-0.3,0-0.5-0.1-0.8-0.1
		c-3.6,0-3.9-1.4-3.9-4.2c0-0.4,0-0.9,0-1.3c0-13.5,0-26.9,0-40.4c0-0.5,0.1-1-0.1-1.5c-3.4,0.9-6.7,1.5-10.2,1.9
		c-0.5,0-0.9,0.1-0.9,0.8c0,0.7,0.4,0.7,0.9,0.7c0.3,0,0.5,0,0.8,0c2.9,0.2,3.5,0.9,3.5,3.8C167.5,511.4,167.5,515.7,167.5,520.4z
		 M345.8,520c-0.2-1.9-0.2-3.6-0.6-5.2c-0.1-0.3,0.1-0.9-0.7-0.7c-2.8,1-5.7,1.5-8.6,2c-0.5,0.1-0.6,0.4-0.6,0.8
		c0,0.6,0.4,0.6,0.8,0.6c0.7,0,1.4,0,2.2,0.1c1.2,0.1,2,0.7,2.1,2c0,0.5,0.1,1.1,0.1,1.6c0,7.5,0,15.1,0,22.6c0,4.1-0.3,4.5-4.4,4.9
		c-0.6,0.1-0.8,0.2-0.8,0.9c0,0.7,0.4,0.7,0.9,0.6c4.7-0.5,9.5-0.5,14.2,0c1.1,0.1,0.9-0.6,0.8-1.2c-0.1-0.5-0.7-0.3-1-0.3
		c-2.6-0.3-3.6-1-3.6-2.9c0-6.9-0.1-13.8,0.1-20.7c0.1-4.4,2.7-6.9,7.1-7.1c3.1-0.2,5.7,0.7,6.6,4.7c0.3,1.2,0.4,2.5,0.4,3.7
		c0,6.1,0,12.2,0,18.3c0,0.5-0.1,1-0.1,1.5c-0.1,1.3-0.9,2-2.1,2.3c-0.6,0.1-1.1,0.3-1.7,0.3c-0.7,0-1.1,0.1-1,1
		c0.1,0.9,0.7,0.5,1.1,0.5c4.6-0.4,9.2-0.4,13.8,0c0.4,0,1.2,0.5,1.2-0.6c0-1-0.6-0.8-1.1-0.8c-3.6-0.3-4.1-0.9-4.1-4.5
		c-0.1-6.6,0.3-13.2-0.2-19.8c-0.3-4.2-2.1-7.4-6.2-9c-4.1-1.6-8.1-1.3-11.6,1.6C347.6,517.8,346.9,518.9,345.8,520z M128,531.8
		c3.4,0,6.7,0,10.1,0c0.8,0,1.1-0.2,1-1c-0.2-1.6-0.2-3.1-0.5-4.7c-0.6-3.3-1.7-6.4-4.3-8.7c-6.5-5.8-17.3-3.3-21,5
		c-2.8,6.4-2.9,13.1-0.5,19.7c2.2,6.1,7.6,9.3,14.5,8.9c5.9-0.3,10.1-3.8,11.5-9.9c0.6-2.6,1-2.1-1.8-2.2c-0.7,0-0.8,0.3-0.9,0.8
		c-0.2,0.8-0.4,1.6-0.6,2.3c-1.4,4.3-4.4,6.6-8.8,6.5c-4.1,0-6.9-2.3-8.2-6.6c-0.9-2.9-1.1-5.9-1.3-8.9c-0.1-1,0.3-1.1,1.1-1.1
		C121.6,531.9,124.8,531.8,128,531.8z M198.4,531.8c3.3,0,6.6,0,10,0c0.9,0,1.2-0.2,1.1-1.1c-0.2-1.4-0.2-2.9-0.5-4.3
		c-0.7-4.1-2.2-7.9-5.9-10.3c-6.7-4.3-16-1.4-19.4,6.1c-2.5,5.4-2.7,11-1.5,16.7c1.9,8.7,8.4,13,17.2,11.7c5-0.8,8.8-4.8,9.9-10.4
		c0.3-1.4-0.1-1.6-1.3-1.6c-1.1,0-1.6,0.3-1.7,1.4c-0.1,0.9-0.4,1.7-0.8,2.6c-1.5,3.8-4.4,5.8-8.4,5.7c-4,0-6.6-1.9-8.1-5.9
		c-1.2-3.2-1.4-6.6-1.6-9.9c0-0.8,0.4-0.8,1-0.8C191.8,531.8,195.1,531.8,198.4,531.8z M320.5,531.8c3.2,0,6.4,0,9.6,0
		c1.1,0,1.6-0.1,1.4-1.4c-0.2-1.1-0.1-2.1-0.3-3.2c-0.5-3.4-1.5-6.6-3.9-9.3c-4.4-5.1-16.5-5.8-21.2,3.5c-3.5,7-3.6,14.4-0.5,21.6
		c2.3,5.5,8.1,8.5,14.3,7.8c6.2-0.6,9.9-4.2,11.4-10.6c0.3-1.2,0.1-1.6-1.2-1.6c-1.1,0-1.7,0.2-1.8,1.4c-0.1,0.9-0.4,1.8-0.8,2.7
		c-1.6,3.8-4.6,5.7-8.6,5.6c-3.8-0.1-6.5-2.2-7.9-6c-1.1-3.1-1.3-6.4-1.4-9.7c0-0.9,0.3-0.9,1-0.9
		C313.8,531.8,317.1,531.8,320.5,531.8z M36.1,531.8c3.3,0,6.6,0,10,0c1,0,1.2-0.2,1.1-1.2c-0.2-1.4-0.2-2.8-0.4-4.1
		c-0.6-3.6-1.8-6.9-4.6-9.3c-5.6-4.8-15.3-3.6-19.3,2.8c-4.8,7.7-4.9,16-0.9,24.1c2.7,5.4,8.7,7.7,15.3,6.6c5.3-0.9,8.9-5,9.9-11
		c0-0.3,0.1-0.7,0.1-0.7c-0.8-0.3-1.6-0.1-2.4-0.1c-0.6-0.1-0.6,0.4-0.7,0.8c-0.2,1.2-0.5,2.4-1,3.5c-1.6,3.6-4.5,5.5-8.5,5.4
		c-3.8-0.1-6.3-2-7.8-5.7c-1.2-3.1-1.4-6.5-1.6-9.8c0-0.9,0.2-1.1,1.1-1.1C29.6,531.9,32.9,531.8,36.1,531.8z M382.5,548.2
		c6.7-11,13.3-21.9,20-32.8c-0.3-0.1-0.4-0.1-0.5-0.1c-8,0-16,0-24,0c-0.8,0-0.9,0.4-1.1,1c-0.4,2.5-0.9,4.9-1.3,7.4
		c-0.1,0.4-0.5,0.9,0.2,1.1c0.6,0.1,1.2,0.1,1.5-0.7c0.2-0.8,0.6-1.5,0.9-2.2c1.3-3.1,3.4-4.8,6.9-4.7c3.1,0.1,6.1,0,9.4,0
		c-6.7,11.1-13.3,21.9-20,32.9c8.4,0,16.5,0,24.6,0c0.6,0,0.8-0.2,0.9-0.8c0.5-2.9,1.1-5.8,1.5-8.7c0.1-0.3,0.7-1-0.3-1.1
		c-0.7-0.1-1.2,0-1.4,0.8c-0.5,1.6-1.2,3.2-2.1,4.6c-1.1,1.6-2.5,2.8-4.4,3C390,548.4,386.4,548.1,382.5,548.2z M218.8,547.7
		c3.6,2.9,7.6,3.5,11.9,2.7c6.2-1.2,10-7,8.5-12.9c-0.7-2.8-2.8-4.3-5.1-5.5c-3.4-1.8-7-2.9-10.3-4.8c-3.1-1.9-3.7-5.6-1.2-8.3
		c2.9-3.1,9.9-3.3,12,2.1c0.5,1.2,0.8,2.5,1,3.8c0.1,0.9,0.7,0.6,1.2,0.6c0.6,0.1,0.7-0.3,0.7-0.7c0-3.3,0-6.6,0-10
		c0-0.4,0.1-0.8-0.5-0.8c-0.4,0-0.8-0.2-1,0.4c-0.1,0.4-0.4,0.7-0.5,1.1c-0.3,1.2-0.7,1.4-2,0.8c-4.5-2.4-9-2.2-13.4,0.5
		c-4.6,2.9-5.9,11.9,0.4,15.1c1,0.5,2.1,1.1,3.1,1.6c2.7,1.3,5.6,2.3,8.1,3.9c3.4,2.1,3.8,6.4,0.8,9.1c-3.3,3.1-9.2,2.7-12.1-0.7
		c-1.5-1.8-2.3-3.9-2.8-6.2c-0.1-0.7-0.3-1.1-1.2-1c-0.9,0.1-0.7,0.7-0.7,1.2c0,3.4,0,6.8,0,10.2c0,0.3-0.3,0.9,0.3,1
		c0.5,0.1,1,0.1,1.3-0.6C217.8,549.5,218.3,548.7,218.8,547.7z M105.2,519.9c0-1.7,0-3.4,0-5.1c0-0.4,0.3-1-0.4-1
		c-0.6-0.1-1,0-1.3,0.7c-0.3,0.8-0.8,1.5-1.2,2.3c-0.3,0.6-0.5,0.7-1,0.2c-1-0.9-2.2-1.7-3.6-2.1c-5.9-1.7-12.3,1.2-15.5,7.1
		c-2.4,4.5-2.8,9.4-2.3,14.4c0.3,3.1,1.3,6,3,8.7c3.2,4.7,8.6,6.9,14.1,5.7c4.6-1,7.7-4.8,8.7-10.4c0.3-1.4-0.1-1.6-1.4-1.6
		c-1.1,0-1.6,0.2-1.8,1.5c-0.1,1.4-0.6,2.7-1.2,4c-1.6,3.3-4.4,4.8-8.1,4.2c-3.4-0.6-5-3-5.9-6c-1.5-4.6-1.4-9.4-1-14.1
		c0.3-3,0.9-5.9,2.6-8.4c3-4.6,9-4.6,12.1,0c1,1.6,1.7,3.3,2,5.1c0.2,0.8,0.5,1.1,1.3,1c1,0,0.6-0.7,0.6-1.2
		C105.3,523.1,105.2,521.5,105.2,519.9z M62.1,520.5c-0.3-2.1-0.5-3.9-0.7-5.7c-0.1-0.6-0.2-0.7-0.8-0.6c-2.7,0.8-5.5,1.2-8.3,1.4
		c-0.5,0-0.7,0.2-0.7,0.7c0,0.5,0.1,0.7,0.7,0.7c0.6,0,1.2,0.1,1.7,0.1c2.1,0.1,2.7,0.7,2.7,2.8c0,7.9,0.1,15.7,0.1,23.6
		c0,4.4-0.2,4.6-4.6,5.2c-0.6,0.1-0.7,0.3-0.7,0.8c0,0.7,0.3,0.7,0.8,0.7c1.5-0.1,2.9-0.3,4.4-0.3c3.5-0.1,6.9-0.1,10.3,0.3
		c1.1,0.1,1-0.5,0.9-1.1c-0.1-0.6-0.6-0.3-1-0.4c-3.7-0.3-4.3-1-4.3-4.7c0-4.9,0-9.9,0-14.8c0-2.8,0.3-5.5,1.5-8.1
		c0.8-1.6,1.8-3,3.7-3.5c2.5-0.6,3.7,0.8,3.2,2.8c-0.5,2.1,0.3,3.1,2.3,3.5c1.8,0.3,3.3-0.8,3.6-2.6c0.5-3.2-1.4-6.1-4.6-6.7
		c-2.4-0.5-4.6-0.1-6.6,1.3C64.1,517,63.1,518.6,62.1,520.5z M252.2,528.4c-1.8,0-3.7,0-5.5,0c-2.9,0-2.8,0-2.8,2.9
		c0,0.9,0.3,1,1.1,1c4.2,0,8.3,0,12.5,0c3.1,0,3.1,0,2.9-3.1c0-0.7-0.3-0.9-1-0.9C257.1,528.4,254.7,528.4,252.2,528.4z"/>
	<path class="st1" d="M-11.8,537.8c0.4-1.2,0.8-2.1,1.1-3c4.1-11.1,8.3-22.1,12.4-33.2c0.3-0.7,0.4-1.1,1.4-1
		c3.7,0.5,7.3,0.4,11,0.1c0.4,0,1.1-0.3,1,0.6c0,0.6,0.2,1.3-0.8,1.3c-0.7,0-1.3,0.1-2,0.2c-2.5,0.5-3.3,1.3-3.2,3.9
		c0.1,4.7,0.2,9.3,0.3,14c0.1,6.5,0.3,13,0.4,19.5c0,1.5,0.1,3,0.2,4.6c0.1,2.1,0.7,2.8,2.7,3.3c0.7,0.2,1.5,0.3,2.3,0.3
		c1,0,1,0.5,1,1.3c0,1-0.8,0.5-1.2,0.5c-5.4-0.6-10.8-0.6-16.2,0c-0.5,0.1-1.1,0.3-1.1-0.6c0-0.8,0.2-1,1-1.1c4.8-0.6,5.2-1,5.1-5.8
		c-0.1-9.2-0.3-18.3-0.4-27.5c0-2.9,0-5.8,0-8.8c-0.8,0-0.7,0.6-0.8,0.9c-5,13.5-9.9,27-14.9,40.5c-0.2,0.5-0.2,1-0.9,0.9
		c-0.6,0-0.7-0.5-0.8-0.9c-4.6-13.3-9.7-26.5-14.5-39.7c-0.1-0.3-0.2-0.6-0.3-0.9c-0.1-0.2-0.2-0.6-0.5-0.5
		c-0.4,0.1-0.2,0.4-0.2,0.7c-0.1,2.9-0.2,5.7-0.3,8.6c-0.3,9.1-0.7,18.3-1,27.4c-0.1,3.5,0.6,4.4,4.1,4.8c0.5,0.1,1,0.2,1.5,0.2
		c0.9,0.1,0.4,0.7,0.5,1.1c0.1,0.5-0.2,0.7-0.7,0.7c-4.4-0.4-8.9-0.4-13.3,0c-0.6,0.1-0.8-0.2-0.6-0.7c0.1-0.4-0.4-1,0.5-1.1
		c0.9-0.1,1.8-0.2,2.7-0.4c1.9-0.5,2.6-1.3,2.7-3.3c0.2-4.3,0.4-8.5,0.6-12.8c0.3-7.9,0.7-15.9,1-23.8c0.2-4.5-0.4-5.1-4.8-5.6
		c-0.5-0.1-1.3,0.3-1.3-0.8c0-0.8,0.1-1.2,1.1-1.1c3.8,0.3,7.5,0.4,11.3-0.1c1-0.1,1,0.5,1.2,1.1c3.6,9.6,7.1,19.3,10.7,28.9
		C-13.6,532.9-12.7,535.2-11.8,537.8z"/>
	<path class="st1" d="M287.7,523.9c6.1,1.4,9.6,5.5,9.9,11.2c0.3,6.5-3.3,11.9-9.3,13.9c-2.2,0.7-4.5,1-6.7,1c-6.3,0-12.7,0-19,0
		c-0.6,0-1.3,0.3-1.3-0.8c0-1,0.4-1,1.2-1.1c4.5-0.5,4.9-1,4.9-5.4c0-11.6,0-23.3,0-34.9c0-0.5,0-1,0-1.5c-0.1-2.1-0.8-2.9-2.8-3.3
		c-0.7-0.1-1.4-0.2-2.1-0.3c-0.8,0-1.1-0.2-1.1-1.1c0-0.9,0.5-0.9,1.1-0.9c6.6,0,13.2-0.1,19.8,0c3.5,0,6.7,0.8,9.5,3.2
		c5,4.4,5.8,15-2.8,19.1C288.4,523.4,288,523.4,287.7,523.9z M273.5,535.6c0,3,0,5.9,0,8.9c0,2.4,0.8,3.2,3.3,3.3c1.7,0,3.3,0,5,0
		c3.9-0.1,7.1-2.4,8.3-6.1c1.1-3.2,1.1-6.4,0.3-9.7c-1-4-3.6-6.1-7.7-6.3c-2.7-0.1-5.4,0-8.1-0.1c-0.9,0-1.1,0.3-1.1,1.1
		C273.6,529.7,273.5,532.6,273.5,535.6z M273.5,513.2c0,3,0,6,0,9c0,0.7,0.2,1,1,1c2.1-0.1,4.1,0,6.2-0.1c4.1-0.2,6.6-2.3,7.6-6.4
		c0.6-2.5,0.6-5,0-7.5c-0.9-3.8-3.4-5.9-7.3-6c-2.1-0.1-4.2,0-6.3-0.1c-0.9,0-1.2,0.2-1.1,1.1C273.6,507.3,273.5,510.2,273.5,513.2z
		"/>
	<path class="st1" d="M167.5,520.4c0-4.6,0-8.9,0-13.3c0-2.9-0.7-3.5-3.5-3.8c-0.3,0-0.5,0-0.8,0c-0.5,0-0.9,0.1-0.9-0.7
		c0-0.6,0.4-0.7,0.9-0.8c3.4-0.3,6.8-1,10.2-1.9c0.3,0.5,0.1,1,0.1,1.5c0,13.5,0,26.9,0,40.4c0,0.4,0,0.9,0,1.3
		c0,2.8,0.3,4.2,3.9,4.2c0.3,0,0.5,0.1,0.8,0.1c0.5,0,0.7,0.1,0.7,0.7c0,0.5-0.3,0.7-0.7,0.7c-2.9,0.3-5.7,0.7-8.4,1.6
		c-0.6,0.2-0.7-0.1-0.9-0.7c-0.4-1.5-0.5-3-0.8-4.7c-0.2,0.2-0.3,0.2-0.3,0.3c-3.8,7.3-12.9,6.2-17.2,1.9c-2.9-2.9-4.3-6.4-4.9-10.4
		c-0.7-5-0.4-9.8,1.7-14.5c1.7-3.7,4.3-6.4,8.3-7.5c4.7-1.3,8.2,0,11,3.9C166.8,519.5,167.1,519.8,167.5,520.4z M167.6,533.8
		c0-2.6-0.1-4.6-0.4-6.6c-0.4-2.8-1-5.7-2.9-8c-2.7-3.3-7.7-3.1-10.2,0.5c-0.8,1.2-1.3,2.5-1.7,3.9c-1.1,4.8-1.2,9.7-0.7,14.6
		c0.3,2.8,0.9,5.5,2.5,7.8c2.6,3.8,7.9,3.8,10.6,0c0.7-1,1.2-2.2,1.6-3.4C167.4,539.6,167.5,536.4,167.6,533.8z"/>
	<path class="st1" d="M345.8,520c1.1-1.1,1.8-2.1,2.8-2.9c3.5-2.9,7.5-3.2,11.6-1.6c4,1.6,5.9,4.8,6.2,9c0.5,6.6,0.1,13.2,0.2,19.8
		c0,3.6,0.5,4.2,4.1,4.5c0.5,0,1.2-0.2,1.1,0.8c-0.1,1.1-0.8,0.6-1.2,0.6c-4.6-0.4-9.2-0.4-13.8,0c-0.4,0-1,0.4-1.1-0.5
		c-0.1-0.8,0.3-1,1-1c0.6,0,1.2-0.1,1.7-0.3c1.2-0.3,2-1,2.1-2.3c0-0.5,0.1-1,0.1-1.5c0-6.1,0-12.2,0-18.3c0-1.3-0.1-2.5-0.4-3.7
		c-0.9-4-3.5-4.9-6.6-4.7c-4.3,0.3-6.9,2.7-7.1,7.1c-0.2,6.9-0.1,13.8-0.1,20.7c0,2,1,2.6,3.6,2.9c0.4,0,0.9-0.2,1,0.3
		c0.1,0.6,0.3,1.3-0.8,1.2c-4.7-0.5-9.5-0.5-14.2,0c-0.5,0-0.9,0.1-0.9-0.6c0-0.6,0.2-0.8,0.8-0.9c4.1-0.4,4.4-0.8,4.4-4.9
		c0-7.5,0-15.1,0-22.6c0-0.5-0.1-1.1-0.1-1.6c-0.1-1.3-0.9-1.9-2.1-2c-0.7-0.1-1.4-0.1-2.2-0.1c-0.4,0-0.8-0.1-0.8-0.6
		c0-0.5,0.1-0.8,0.6-0.8c2.9-0.4,5.8-1,8.6-2c0.7-0.2,0.6,0.3,0.7,0.7C345.6,516.4,345.6,518.1,345.8,520z"/>
	<path class="st1" d="M128,531.8c-3.2,0-6.5,0-9.7,0c-0.9,0-1.2,0.1-1.1,1.1c0.2,3,0.4,6,1.3,8.9c1.4,4.3,4.1,6.5,8.2,6.6
		c4.4,0.1,7.3-2.2,8.8-6.5c0.2-0.8,0.5-1.5,0.6-2.3c0.1-0.6,0.3-0.8,0.9-0.8c2.8,0.1,2.4-0.3,1.8,2.2c-1.4,6-5.6,9.5-11.5,9.9
		c-6.9,0.4-12.3-2.8-14.5-8.9c-2.4-6.6-2.3-13.2,0.5-19.7c3.6-8.3,14.5-10.8,21-5c2.6,2.3,3.7,5.4,4.3,8.7c0.3,1.5,0.3,3.1,0.5,4.7
		c0.1,0.8-0.2,1.1-1,1C134.8,531.8,131.4,531.8,128,531.8z M125.2,529.1c2.4,0,4.8,0,7.1,0c0.4,0,0.9,0.2,0.8-0.6
		c-0.3-2.6-0.5-5.3-1.6-7.7c-1.1-2.7-3-4.4-6-4.4c-2.9,0-4.9,1.5-6.2,4c-1.3,2.5-1.7,5.2-2.1,7.9c-0.1,0.7,0.1,0.9,0.8,0.9
		C120.6,529.1,122.9,529.1,125.2,529.1z"/>
	<path class="st1" d="M198.4,531.8c-3.3,0-6.6,0-10,0c-0.6,0-1,0-1,0.8c0.2,3.4,0.3,6.7,1.6,9.9c1.5,4,4.1,5.8,8.1,5.9
		c4,0,6.9-1.9,8.4-5.7c0.3-0.8,0.7-1.7,0.8-2.6c0.1-1.1,0.6-1.4,1.7-1.4c1.3,0,1.6,0.2,1.3,1.6c-1.1,5.6-4.9,9.6-9.9,10.4
		c-8.8,1.4-15.3-3-17.2-11.7c-1.2-5.7-1-11.3,1.5-16.7c3.4-7.5,12.7-10.3,19.4-6.1c3.7,2.4,5.2,6.1,5.9,10.3
		c0.2,1.4,0.3,2.9,0.5,4.3c0.1,0.9-0.2,1.1-1.1,1.1C205.1,531.8,201.7,531.8,198.4,531.8z M195.5,529.1c2.4,0,4.8,0,7.1,0
		c0.4,0,0.9,0.1,0.9-0.6c-0.3-2.7-0.5-5.4-1.7-8c-1.1-2.6-3-4.2-5.8-4.2c-2.8,0-4.8,1.5-6.1,3.9c-1.3,2.5-1.8,5.2-2.2,8
		c-0.1,0.8,0.2,0.9,0.9,0.9C190.9,529.1,193.2,529.1,195.5,529.1z"/>
	<path class="st1" d="M320.5,531.8c-3.3,0-6.6,0-10,0c-0.7,0-1,0.1-1,0.9c0.1,3.3,0.3,6.5,1.4,9.7c1.3,3.9,4,5.9,7.9,6
		c4.1,0.1,7.1-1.8,8.6-5.6c0.4-0.9,0.7-1.8,0.8-2.7c0.1-1.3,0.7-1.4,1.8-1.4c1.3-0.1,1.5,0.3,1.2,1.6c-1.4,6.4-5.2,9.9-11.4,10.6
		c-6.2,0.7-12-2.3-14.3-7.8c-3-7.2-3-14.6,0.5-21.6c4.6-9.3,16.8-8.5,21.2-3.5c2.3,2.7,3.4,5.9,3.9,9.3c0.2,1.1,0.1,2.2,0.3,3.2
		c0.2,1.2-0.3,1.4-1.4,1.4C326.8,531.8,323.7,531.8,320.5,531.8z M317.5,529.1c2.4,0,4.8,0,7.1,0c0.5,0,0.9,0,0.8-0.7
		c-0.3-3.1-0.6-6.3-2.2-9c-0.9-1.6-2.2-2.6-4.1-3c-3.2-0.5-5.7,0.8-7.4,3.9c-1.3,2.5-1.8,5.3-2.1,8.1c-0.1,0.8,0.5,0.6,0.8,0.6
		C312.8,529.1,315.1,529.1,317.5,529.1z"/>
	<path class="st1" d="M36.1,531.8c-3.3,0-6.6,0-9.8,0c-0.9,0-1.1,0.3-1.1,1.1c0.2,3.3,0.4,6.6,1.6,9.8c1.4,3.8,4,5.6,7.8,5.7
		c4,0.1,6.9-1.7,8.5-5.4c0.5-1.1,0.8-2.3,1-3.5c0.1-0.4,0.1-0.9,0.7-0.8c0.8,0.1,1.6-0.2,2.4,0.1c0.1,0,0,0.5-0.1,0.7
		c-1,6-4.7,10.1-9.9,11c-6.6,1.1-12.7-1.2-15.3-6.6c-4-8.1-3.9-16.4,0.9-24.1c4-6.4,13.7-7.6,19.3-2.8c2.8,2.4,4,5.8,4.6,9.3
		c0.2,1.4,0.2,2.8,0.4,4.1c0.2,1-0.1,1.2-1.1,1.2C42.8,531.8,39.5,531.8,36.1,531.8z M33.4,529.1c2.3,0,4.7,0,7,0
		c0.4,0,1,0.2,0.9-0.6c-0.3-2.7-0.5-5.4-1.6-8c-1.1-2.5-2.9-4.2-5.8-4.2c-2.7-0.1-4.7,1.3-6,3.6c-1.5,2.6-2,5.4-2.3,8.3
		c-0.1,0.8,0.3,0.8,0.9,0.8C28.7,529.1,31,529.1,33.4,529.1z"/>
	<path class="st1" d="M382.5,548.2c3.9-0.1,7.5,0.3,11-0.2c1.9-0.3,3.4-1.4,4.4-3c0.9-1.4,1.6-3,2.1-4.6c0.2-0.8,0.7-0.9,1.4-0.8
		c0.9,0.2,0.3,0.8,0.3,1.1c-0.5,2.9-1.1,5.8-1.5,8.7c-0.1,0.6-0.3,0.8-0.9,0.8c-8.1,0-16.3,0-24.6,0c6.7-11,13.3-21.8,20-32.9
		c-3.3,0-6.3,0.1-9.4,0c-3.5-0.1-5.6,1.6-6.9,4.7c-0.3,0.7-0.7,1.5-0.9,2.2c-0.2,0.9-0.9,0.9-1.5,0.7c-0.7-0.2-0.3-0.8-0.2-1.1
		c0.4-2.5,0.9-4.9,1.3-7.4c0.1-0.6,0.2-1,1.1-1c8,0,16,0,24,0c0.1,0,0.3,0.1,0.5,0.1C395.9,526.3,389.3,537.1,382.5,548.2z"/>
	<path class="st1" d="M218.8,547.7c-0.5,0.9-1,1.8-1.4,2.7c-0.3,0.7-0.8,0.6-1.3,0.6c-0.6-0.1-0.3-0.7-0.3-1c0-3.4,0-6.8,0-10.2
		c0-0.5-0.2-1.1,0.7-1.2c0.9-0.1,1.1,0.3,1.2,1c0.5,2.3,1.3,4.4,2.8,6.2c2.9,3.4,8.8,3.8,12.1,0.7c3-2.8,2.6-7-0.8-9.1
		c-2.6-1.6-5.4-2.5-8.1-3.9c-1-0.5-2.1-1.1-3.1-1.6c-6.3-3.3-5-12.2-0.4-15.1c4.3-2.7,8.9-2.9,13.4-0.5c1.2,0.6,1.7,0.5,2-0.8
		c0.1-0.4,0.3-0.7,0.5-1.1c0.2-0.5,0.7-0.3,1-0.4c0.6,0,0.5,0.4,0.5,0.8c0,3.3,0,6.6,0,10c0,0.5-0.1,0.8-0.7,0.7
		c-0.5-0.1-1.1,0.2-1.2-0.6c-0.2-1.3-0.5-2.5-1-3.8c-2.1-5.4-9.1-5.2-12-2.1c-2.5,2.7-2,6.4,1.2,8.3c3.3,1.9,6.9,3.1,10.3,4.8
		c2.4,1.2,4.4,2.8,5.1,5.5c1.5,5.9-2.3,11.7-8.5,12.9C226.4,551.3,222.4,550.6,218.8,547.7z"/>
	<path class="st1" d="M105.2,519.9c0,1.6,0,3.2,0,4.9c0,0.4,0.4,1.1-0.6,1.2c-0.8,0-1.2-0.2-1.3-1c-0.4-1.8-1-3.5-2-5.1
		c-3.1-4.6-9.1-4.6-12.1,0c-1.7,2.5-2.3,5.4-2.6,8.4c-0.4,4.8-0.5,9.5,1,14.1c0.9,2.9,2.5,5.4,5.9,6c3.6,0.6,6.4-0.9,8.1-4.2
		c0.6-1.3,1.1-2.6,1.2-4c0.1-1.3,0.6-1.5,1.8-1.5c1.3,0,1.6,0.2,1.4,1.6c-1,5.6-4.1,9.3-8.7,10.4c-5.4,1.2-10.9-1-14.1-5.7
		c-1.8-2.6-2.7-5.6-3-8.7c-0.5-5-0.1-9.9,2.3-14.4c3.2-5.9,9.5-8.8,15.5-7.1c1.4,0.4,2.5,1.1,3.6,2.1c0.5,0.5,0.7,0.4,1-0.2
		c0.3-0.8,0.9-1.5,1.2-2.3c0.3-0.6,0.7-0.7,1.3-0.7c0.8,0.1,0.4,0.7,0.4,1C105.3,516.5,105.2,518.2,105.2,519.9z"/>
	<path class="st1" d="M62.1,520.5c1-1.9,2-3.5,3.6-4.6c2-1.4,4.2-1.9,6.6-1.3c3.1,0.7,5.1,3.6,4.6,6.7c-0.3,1.8-1.9,2.9-3.6,2.6
		c-2-0.3-2.8-1.4-2.3-3.5c0.5-2-0.7-3.4-3.2-2.8c-1.8,0.5-2.9,1.9-3.7,3.5c-1.2,2.6-1.5,5.3-1.5,8.1c0,4.9,0,9.9,0,14.8
		c0,3.7,0.6,4.3,4.3,4.7c0.4,0,0.9-0.2,1,0.4c0.1,0.6,0.2,1.2-0.9,1.1c-3.4-0.4-6.9-0.5-10.3-0.3c-1.5,0.1-2.9,0.2-4.4,0.3
		c-0.5,0-0.9,0-0.8-0.7c0-0.5,0.1-0.7,0.7-0.8c4.4-0.5,4.6-0.8,4.6-5.2c0-7.9,0-15.7-0.1-23.6c0-2.1-0.6-2.6-2.7-2.8
		c-0.6,0-1.2-0.1-1.7-0.1c-0.5,0-0.7-0.2-0.7-0.7c0-0.5,0.2-0.7,0.7-0.7c2.8-0.2,5.6-0.6,8.3-1.4c0.6-0.2,0.8,0,0.8,0.6
		C61.6,516.6,61.8,518.4,62.1,520.5z"/>
	<path class="st2" d="M99.4,373.6c0.3-8.6,2-16.8,5.2-24.8c10.9-26.8,30.4-43.8,58.5-50.9c3.4-0.9,6.8-1.4,10.3-1.6
		c0.1,0.1,0.2,0.1,0.2,0c3.7-0.4,7.4-0.5,11.1-0.3c0,0.2,0.1,0.3,0.3,0.4c0.2,0,0.3-0.2,0.3-0.3c1.2,0.1,2.3,0.2,3.5,0.2
		c0.1,0.1,0.1,0.1,0.2,0c0.9,0.1,1.8,0.1,2.7,0.3c0.3,0.5,0.5,0.9,0.8,1.4c-0.1,0-0.2,0.1-0.3,0.1c-2.1-0.3-4.3-0.7-6.5-0.6
		c-0.8-0.3-1.6-0.1-2.4-0.2c-0.1,0-0.2,0-0.3,0c-0.4,0-0.9,0-1.3,0c-1-0.1-2-0.2-3,0c-0.4,0-0.9,0-1.3,0c-0.1-0.1-0.3,0-0.4,0.1
		c-0.1,0-0.1,0-0.2,0.1c-0.6,0-1.3,0-1.9,0.1c-0.3,0-0.7-0.1-0.9,0.1c-0.3,0-0.5,0-0.8,0c-13.6,1.4-26.1,5.9-37.4,13.6
		c-14.6,10-24.9,23.4-30.8,40.2c-2.1,5.9-3.8,11.9-4,18.2c-0.4,1.7-0.4,3.4-0.4,5c-0.3,2.5,0,5.1-0.1,7.6c0.3,1.3,0,2.8,0.5,4.1
		c0.3,1.1-1,1.9-0.4,3c-0.2,0.1-0.4,0.2-0.6,0.3c-0.8-5.3-1.1-10.6-0.7-15.9c0,0,0.1,0,0.1-0.1C99.5,373.8,99.5,373.7,99.4,373.6z"
		/>
	<path class="st3" d="M261,396.5c-0.9,4.8-2.5,9.5-4.5,13.9c-11.8,25.8-31.6,41.9-59.4,48c-4.3,1-8.8,1.5-13.2,1.5
		c-0.7-0.9-1.7-0.7-2.6-0.8c-0.5-0.1-1.2,0.4-1.4-0.5c4.3,0.1,8.7-0.2,13-0.9c6.5-1,12.8-2.7,18.9-5.2c8.1-3.3,15.4-7.9,22-13.5
		c5.9-5,10.9-10.8,15.1-17.4c1.4-2.2,2.9-4.3,3.8-6.8c1.2-1.7,1.8-3.7,2.7-5.5c1.9-4.1,3.1-8.5,4.3-12.8
		C260.1,396.5,260.6,396.5,261,396.5z"/>
	<path class="st4" d="M165.6,458.4c-13.1-2.5-24.8-8-35.3-16.2c-0.1-0.1-0.2-0.3-0.3-0.4c0.5,0,0.8-0.5,1.3-0.6
		c1.5,0.8,2.6,2.1,4.1,2.8c1.7,1.4,3.5,2.5,5.4,3.5c1.6,1.1,3.3,2,5.1,2.7c1.3,1,2.9,1.7,4.3,2.3c1.4,0.5,2.7,1.3,4.3,1.2
		c0,0.6,0.5,0.6,0.9,0.7c1.2,0.4,2.4,0.7,3.6,1.4c0.9,0.5,1.8,1.3,2.9,1.1c0.7-0.1,1.4-0.2,2,0.3c0.2,0.1,0.4,0.2,0.6,0
		c0.1-0.2,0-0.4-0.2-0.5c-0.8-0.3-0.4-0.8-0.1-1.1c0.8-0.8,1-1.7,0.7-2.8c4.5,0.8,9,1.4,13.5,1.7c0,0.7,0.7,0.8,1,1.3
		c-1.7,1.1-1.9,1.5-1,2.7c-0.7-0.1-1.3-0.3-2-0.2c-3.2,0.1-6.2-0.7-9.4-0.9C165.9,457.3,165.6,457.4,165.6,458.4z"/>
	<path class="st5" d="M131.3,441.2c-0.5,0.1-0.8,0.6-1.3,0.6c-1.9-1.4-3.7-3-5.3-4.7c-0.1-0.1-0.1-0.1-0.2-0.2
		c-3.1-2.9-5.8-6.1-8.4-9.4c-5.1-6.5-8.9-13.6-11.8-21.3c-2-5.3-3.4-10.8-4.1-16.5c0.2-0.1,0.4-0.2,0.6-0.3c-0.6-1.1,0.7-1.9,0.4-3
		c0,0,0,0,0,0c0.4,1,0.3,2.1,0.5,3.1c0.5,2,0.5,4.1,1.3,6.1c-0.1,1.4,0.8,2.7,0.8,4.1c0,0.4-0.3,0.8,0.3,1l0,0
		c0,0.3-0.2,0.7,0.3,0.8l0,0c0,0.3-0.2,0.7,0.3,0.8l0,0c-0.2,0.6,0.1,1.1,0.3,1.7c3.2,9,7.6,17.2,13.7,24.6c3.4,4.1,7,8,11.3,11.3
		C130.3,440.6,130.9,440.7,131.3,441.2z"/>
	<path class="st4" d="M261.1,359.5c0.2,0.3,0.3,0.7,0.2,1.1c0,0.2,0,0.4,0.2,0.5c0.1,0.8,0.3,1.6,0.4,2.4c-0.3,0.4-0.7,0.3-1.1,0.3
		c-0.5-1.2-0.5-2.5-0.9-3.8c-1.5-5.3-3.2-10.5-5.3-15.6c-1.8-3.3-3.3-6.7-5.4-9.8c-2.7-4-5.5-7.9-8.7-11.4c-0.6-0.7-1.4-1.4-2.4-1.7
		c-0.3,0-0.7,0-1,0c-1.9-2.5-4.1-4.5-6.7-6.2c-0.6-0.6-1.1-1.2-1.7-1.9c0-0.2,0-0.4,0-0.6c2,1,3.5,2.6,5.2,4
		c0.9,0.7,1.7,1.9,3.1,1.1c3.8,3.3,7.1,7.1,10.1,11.1c6.1,8.2,10.5,17.2,13.2,27.1c0.3,1,0.5,2.1,0.7,3.1
		C261,359.4,261,359.5,261.1,359.5z"/>
	<path class="st5" d="M237,318c-1.4,0.8-2.2-0.4-3.1-1.1c-1.7-1.3-3.2-3-5.2-4c-4.3-3.2-8.8-6-13.7-8.1c-3.7-1.7-7.4-3.3-11.4-4.2
		c-1.9-0.4-3.7-1.1-5.6-1.3c-0.2,0-0.3-0.1-0.5-0.1c-0.2-0.2-0.4-0.2-0.6-0.1c-0.3,0-0.5-0.1-0.8-0.1c-0.2-0.2-0.5-0.2-0.8-0.2
		c-0.2,0-0.3-0.1-0.5-0.1c-0.2-0.2-0.4-0.2-0.6-0.1c-0.3,0-0.7-0.1-1-0.1c-0.2-0.1-0.4-0.2-0.6-0.3c-0.3-0.5-0.5-0.9-0.8-1.4
		c7,0.7,13.7,2.6,20.2,5.2c8.2,3.3,15.7,7.9,22.4,13.6c0.3,0.2,0.5,0.5,0.8,0.7c0.1,0.1,0.1,0.1,0.2,0.2
		C236,316.9,236.5,317.4,237,318z"/>
	<path class="st1" d="M252.2,528.4c2.4,0,4.8,0,7.3,0c0.7,0,0.9,0.1,1,0.9c0.1,3.1,0.1,3.1-2.9,3.1c-4.2,0-8.3,0-12.5,0
		c-0.8,0-1.1-0.2-1.1-1c0-2.9-0.1-2.9,2.8-2.9C248.6,528.4,250.4,528.4,252.2,528.4z"/>
	<path class="st6" d="M260.7,363.9c0.4,0,0.9,0.1,1.1-0.3c1,4.3,1.3,8.8,1.3,13.2c0.1,6.4-0.6,12.8-1.9,19.1c0,0.2-0.1,0.3-0.2,0.5
		c0,0.1-0.1,0.1-0.1,0.2l0,0c-0.4,0-0.9,0-1.3,0c0-0.4,0.1-0.7,0.1-1.1c0.5-2.5,0.9-5,1.3-7.5c0.3-2.3,0.4-4.6,0.6-6.9
		c0.2-1.9,0.2-3.8,0.1-5.7C261.5,371.5,261.1,367.7,260.7,363.9z"/>
	<path class="st6" d="M165.6,458.4c0-1,0.3-1.2,1.4-1.1c3.1,0.2,6.2,1,9.4,0.9c0.7,0,1.3,0.2,2,0.2c0.5,0,1.1,0,1.6,0
		c0.2,0.9,0.9,0.4,1.4,0.5c0.9,0.1,1.9-0.1,2.6,0.8C177.8,460.1,171.7,459.7,165.6,458.4z"/>
	<path class="st5" d="M185.3,296.1c0,0.2-0.1,0.3-0.3,0.3c-0.2,0-0.2-0.2-0.3-0.4C184.9,296.1,185.1,296.1,185.3,296.1z"/>
	<path class="st6" d="M261.5,361.2c-0.2-0.1-0.2-0.3-0.2-0.5C261.4,360.9,261.4,361,261.5,361.2z"/>
	<path class="st4" d="M235.4,316.5c-0.1-0.1-0.1-0.1-0.2-0.2C235.2,316.4,235.3,316.4,235.4,316.5z"/>
	<path class="st3" d="M261,396.5c0-0.1,0-0.1,0.1-0.2C261.1,396.3,261.1,396.4,261,396.5L261,396.5z"/>
	<path class="st4" d="M124.5,437c0.1,0.1,0.1,0.1,0.2,0.2C124.6,437.1,124.5,437,124.5,437z"/>
	<path class="st6" d="M261.1,359.5c0-0.1,0-0.1,0-0.2C261,359.4,261.1,359.4,261.1,359.5L261.1,359.5z"/>
	<path class="st5" d="M99.4,373.6c0,0.1,0,0.1,0.1,0.2c0,0,0,0-0.1,0.1C99.4,373.8,99.4,373.7,99.4,373.6z"/>
	<path class="st5" d="M173.7,296.4c-0.1,0.1-0.2,0.1-0.2,0C173.5,296.3,173.6,296.3,173.7,296.4z"/>
	<path class="st5" d="M189,296.4c-0.1,0.1-0.2,0.1-0.2,0C188.9,296.3,189,296.3,189,296.4z"/>
	<path class="st0" d="M273.5,535.6c0-3,0-5.9,0-8.9c0-0.9,0.2-1.2,1.1-1.1c2.7,0.1,5.4,0,8.1,0.1c4.1,0.2,6.7,2.3,7.7,6.3
		c0.8,3.2,0.8,6.5-0.3,9.7c-1.3,3.7-4.4,6-8.3,6.1c-1.7,0-3.3,0-5,0c-2.4,0-3.2-0.8-3.3-3.3C273.5,541.5,273.5,538.5,273.5,535.6z"
		/>
	<path class="st0" d="M273.5,513.2c0-3,0-5.9,0-8.9c0-0.9,0.3-1.2,1.1-1.1c2.1,0.1,4.2,0,6.3,0.1c4,0.1,6.5,2.2,7.3,6
		c0.6,2.5,0.6,5,0,7.5c-1,4-3.4,6.2-7.6,6.4c-2.1,0.1-4.1,0-6.2,0.1c-0.8,0-1-0.3-1-1C273.5,519.2,273.5,516.2,273.5,513.2z"/>
	<path class="st0" d="M167.6,533.8c0,2.6-0.2,5.8-1.1,8.9c-0.4,1.2-0.9,2.3-1.6,3.4c-2.7,3.8-7.9,3.8-10.6,0
		c-1.6-2.4-2.2-5.1-2.5-7.8c-0.5-4.9-0.5-9.7,0.7-14.6c0.3-1.4,0.9-2.7,1.7-3.9c2.4-3.5,7.4-3.8,10.2-0.5c1.9,2.3,2.5,5.1,2.9,8
		C167.5,529.2,167.5,531.2,167.6,533.8z"/>
	<path class="st0" d="M125.2,529.1c-2.3,0-4.7,0-7,0c-0.7,0-0.9-0.2-0.8-0.9c0.4-2.7,0.8-5.4,2.1-7.9c1.3-2.5,3.3-4.1,6.2-4
		c3,0,4.9,1.8,6,4.4c1,2.5,1.3,5.1,1.6,7.7c0.1,0.8-0.4,0.6-0.8,0.6C130,529.1,127.6,529.1,125.2,529.1z"/>
	<path class="st0" d="M195.5,529.1c-2.3,0-4.6,0-6.9,0c-0.7,0-1-0.1-0.9-0.9c0.4-2.8,0.8-5.5,2.2-8c1.3-2.4,3.3-4,6.1-3.9
		c2.9,0,4.7,1.6,5.8,4.2c1.1,2.5,1.4,5.2,1.7,8c0.1,0.7-0.4,0.6-0.9,0.6C200.3,529.1,197.9,529.1,195.5,529.1z"/>
	<path class="st0" d="M317.5,529.1c-2.3,0-4.7,0-7,0c-0.4,0-1,0.2-0.8-0.6c0.4-2.8,0.8-5.6,2.1-8.1c1.6-3.1,4.2-4.5,7.4-3.9
		c1.9,0.3,3.2,1.4,4.1,3c1.6,2.8,2,5.9,2.2,9c0.1,0.7-0.4,0.7-0.8,0.7C322.2,529.1,319.9,529.1,317.5,529.1z"/>
	<path class="st0" d="M33.4,529.1c-2.3,0-4.7,0-7,0c-0.6,0-1,0-0.9-0.8c0.4-2.9,0.8-5.8,2.3-8.3c1.3-2.3,3.3-3.7,6-3.6
		c2.9,0.1,4.7,1.7,5.8,4.2c1.1,2.5,1.4,5.3,1.6,8c0.1,0.8-0.5,0.6-0.9,0.6C38,529.1,35.7,529.1,33.4,529.1z"/>
	<path class="st7" d="M178.3,454.5c-4.5-0.3-9-0.9-13.5-1.7c0,0-0.1,0-0.1,0c-0.1-0.2-0.2-0.2-0.4-0.2c-2.4-0.7-4.8-1.3-7.2-2
		c-1.6-0.6-3.1-1.2-4.7-1.8c-0.4-0.1-0.7-0.2-1.1-0.4c0,0,0,0,0,0c-1.6-0.8-3.2-1.5-4.8-2.3c-6.9-3.5-13.1-8-18.7-13.3
		c-4.2-4.2-7.9-8.8-11.3-13.8c-0.6-1.1-1.3-2.2-1.9-3.3c-1.8-3.2-3.3-6.6-4.8-10c-1.3-3.7-2.5-7.4-3.3-11.3
		c-1.1-5.2-1.7-10.5-1.8-15.9c-0.1-5.5,0.6-11,1.6-16.4c1.3-5.1,2.8-10.2,4.9-15.1c0.7-1.5,1.5-3,2.2-4.5c-0.1-0.1-0.2-0.1-0.3-0.2
		c-0.8,1.4-1.6,2.9-2.2,4.4c-2.2,4.8-3.9,9.7-4.9,14.8c-0.2,0.9-0.4,1.8-0.6,2.7c-0.6,0.1-0.7,0.7-1,1c-1.2,1.4-2,3.1-3.3,4.4
		c0.2-6.3,1.9-12.3,4-18.2c5.9-16.7,16.2-30.1,30.8-40.2c11.3-7.8,23.8-12.3,37.4-13.6c0.3,0,0.5,0,0.8,0c0.3,0,0.7,0.1,0.9-0.1
		c0.6,0,1.3,0,1.9-0.1c-0.4,1.2-1.2,2.1-1.9,3.1c-0.2,0.2-0.6,0.4-0.4,0.8c0.2,0.3,0.6,0.2,0.9,0.2c3.1-0.4,6.1-0.2,9.2-0.2
		c4.1,0.4,8.1,0.8,12.1,1.6c3,0.7,6,1.5,8.9,2.5c2,0.7,3.9,1.5,5.9,2.2c1.9,1,3.8,1.9,5.7,2.9c2.1,1.2,4.1,2.4,6.2,3.6
		c1.7,1.2,3.4,2.5,5.1,3.7c2,1.8,4.1,3.6,6.1,5.4c2.2,2.5,4.5,5,6.7,7.5c2.6,3.5,4.9,7.1,7.1,10.8c4.2,8.1,7.1,16.6,8.5,25.6
		c0.6,4.9,0.8,9.8,0.7,14.8c0,0.1,0,0.2,0,0.3c-0.2,0.7-0.2,1.5-0.2,2.2c-0.9,9.8-3.5,19.2-7.9,28.1c-1.9,3.7-4.2,7.2-6.4,10.7l0,0
		c-0.8,0.7-1.4,1.6-1.9,2.5c-0.2,0.3-0.5,0.6-0.7,0.9c-0.1,0.1-0.1,0.1-0.2,0.2c-2.9,3.3-6,6.6-9.4,9.4
		c-11.3,9.5-24.2,15.4-38.9,17.5C187.5,454.4,182.9,454.5,178.3,454.5z M243.7,411.5c0,0.2,0.1,0.4,0.4,0.4c0.2-0.1,0.3-0.3,0-0.5
		c0-0.1-0.1-0.2-0.1-0.3c0.2-0.4,0.4-0.8,0.6-1.2c2.2-4.1,3.7-8.4,5.1-12.8c0.3,0,0.6-0.1,0.7-0.5c0.5-1.2,0.8-2.5,2.4-2.6
		c0.2,0,0.3-0.3,0.3-0.5c0-0.8,0.6-0.8,1.1-0.7c-0.1,0.4-0.1,0.8-0.2,1.2c-0.6,3.5-1.8,6.7-2.8,10.1c-0.6,1.5-1.3,3.1-1.9,4.6
		c-0.8,1.7-1.7,3.4-2.5,5.1c0.1,0.1,0.2,0.1,0.3,0.2c0.8-1.7,1.6-3.3,2.4-5c0.6-1.5,1.3-3.1,1.9-4.6c1.8-4.7,3.1-9.5,3.8-14.5
		c0.2-1.3,0.4-2.7,0.3-4c0.6-1.8,0.5-3.7,0.5-5.5c0.2-7-0.5-13.9-2.4-20.7c-0.9-4.3-2.4-8.4-4.3-12.3c-1.6-4-3.7-7.7-6.2-11.1
		c-2.5-4-5.6-7.5-8.9-10.8c-3.3-3.7-7.1-6.7-11.2-9.4c-4-3-8.4-5.2-13-7.1c-6.3-2.6-12.8-4.5-19.6-5.2c-0.4,0-0.9-0.1-1.3-0.1
		c-0.2-0.2-0.4-0.2-0.6-0.1c-1-0.1-2-0.1-2.9-0.2c-3.4-0.3-6.8-0.4-10.3,0.1c-0.5,0-0.9,0-1.4,0.1c-0.3-0.1-0.6,0-0.9,0.1
		c-3.4,0.2-6.7,0.8-9.9,1.7c-4.2,1-8.2,2.3-12.1,4.1c-2.9,1.5-5.9,2.7-8.6,4.5c-8,5.1-15,11.2-20.7,18.8c-5.4,7.2-9.6,15-12.1,23.7
		c-2.4,7.3-3.4,14.8-3.3,22.5c-0.1,4.2,0.4,8.3,1.1,12.4c0.7,4.2,1.8,8.4,3.3,12.4c1.3,3.8,3,7.5,5.1,11c2,3.8,4.4,7.3,7.2,10.6
		c0.6,1.2,1.6,2.1,2.5,3.1c6.9,7.5,14.9,13.4,24.1,17.7c0.4,0.2,0.7,0.7,1.2,0.2c0.3,0.1,0.5,0.2,0.8,0.3c0.1,0.3,0.3,0.5,0.6,0.4
		c0.2,0,0.3,0.1,0.5,0.1c0.1,0.5,0.4,0.5,0.8,0.4c0.4,0.1,0.9,0.3,1.3,0.4c2.6,1.3,5.3,2.2,8.1,2.7c2.2,0.8,4.5,1.1,6.7,1.5
		c3,0.4,5.9,0.7,8.9,0.8c3.5,0.1,7.1,0.2,10.6-0.3c4.4-0.6,8.9-1.2,13.2-2.6c0.8-0.3,1.7-0.6,2.5-0.9c1.3-0.5,3-0.5,3.1-2.5
		c0-0.4,0.4-0.5,0.7-0.8c0.9-1,2-1.7,2.3-3.2l0,0c0.1-0.1,0.2-0.1,0.3-0.2c0.2-0.1,0.3-0.2,0.5-0.3c11.8-5.6,21.3-13.9,28.6-24.7
		c0.6-1,1.3-1.7,2.5-1.9c0.6-0.1,1.3-0.3,1.8-0.9c-20.9-11.8-41.7-23.7-62.7-35.6c0,0.9,0,1.6,0,2.3c-0.1,1.2-0.2,2.4-0.4,3.5
		c0,0.4,0.1,0.9-0.6,0.7c0-0.6,0-1.1-0.1-1.7c0.2-0.2,0.1-0.3-0.1-0.4l0,0c0-1.1,0-2.1-0.1-3.2c0.2-1.9-0.8-0.8-1.4-0.5
		c-20.1,11.4-40.1,22.8-60.2,34.2c-0.4,0.3-0.8,0.7-1.5,0.5c0-0.9-0.1-1.9,0.6-2.7c0.5,0,0.9-0.4,1.3-0.6c3.3-2.3,6.5-4.6,9.8-6.8
		c14.2-9.8,28.3-19.6,42.5-29.4c1.7-1.2,1.7-1.3-0.1-2.2c-0.1,0-0.2,0-0.3-0.1c0.5-0.6,0.9-0.1,1.3,0.1c2.2,1.1,4.3,2.2,6.4,3.2
		c0.2,0.1,0.6,0.9,0.9,0c0.2-4.4,0.2-8.9,0.3-13.3c0.2-10,0.1-19.9,0.1-29.9c0-0.4,0-0.7,0-1.1c0-1.4,0-2.9,0-4.3
		c0.3-0.5,0.2-1,0.3-1.6c0.1-1.9-0.1-3.7-0.1-5.6c0.2-4.5,0.1-9,0.1-13.5c0-0.4,0.2-0.8-0.2-1.1c-0.4,0.2-0.2,0.6-0.3,0.9
		c-0.3,1.8-0.1,3.6-0.2,5.4c-0.3,4.9-0.4,9.9-0.6,14.8c-0.1,3.1-0.2,6.2-0.2,9.3c-0.1,4.9-0.6,9.8-0.6,14.7c0,1.6,0.1,3.2-0.1,4.8
		c-0.4,4-0.2,8-0.5,11.9c-0.1,2.2,0.1,4.5-0.5,6.7c-1.1-0.7-2.1-1.3-3-2.2c0-1.6,0-3.2,0.1-4.8c0.4-5,0.9-10,1.3-15
		c0.3-3.9,0.6-7.8,0.9-11.6c0.4-5.4,0.9-10.9,1.3-16.3c0.2-2.7,0.6-5.4,0.7-8.1c0.1-2.3,0.6-4.5,0.2-6.8c0-0.2,0-0.5,0-0.7
		c0.7-0.5,0.4-1.1,0.3-1.7c0-0.2,0-0.4,0-0.6c0-0.1,0.1-0.2,0.1-0.4c0.2-0.5,0.8-0.6,1.2-1c0.7-0.7,0.9-0.3,1,0.4
		c0,0.5-0.1,1.1-0.1,1.6c0.2,5.5,0,10.9,0.2,16.4c0.2,6.6,0.1,13.2,0.3,19.8c0.2,10.7,0.3,21.3,0.4,32c0,0.4-0.3,1.1,0.3,1.3
		c0.5,0.1,0.8-0.4,1-0.9c0.6,0,1.2,0,1.6-0.4c1.4-0.7,2.8-1.4,4.3-2.1c0.1,0.4-0.2,0.5-0.5,0.7c-1.5,1-3.1,1.9-4.6,2.9
		c-1,0.5-1.2,1,0,1.6c0.4,0.2,0.8,0.5,1.1,0.7c6.4,3.8,12.8,7.6,19.2,11.4c1.9,1.1,3.8,2.4,5.8,3.3l0,0c0.5,0.8,1.5,0.9,2.2,1.3
		c6.6,4,13.3,8,20,11.7c0-0.2,0-0.4-0.1-0.5c-2.1-1.3-4.1-2.8-6.3-3.9c-2.4-1.3-4.5-3-6.8-4.4c-3.4-2-6.7-4.1-10.1-6.2
		c-3.1-1.9-6.2-3.9-9.3-5.8c-4.1-2.5-8.2-5.2-12.3-7.7c-0.8-0.5-1.6-1-2.1-1.8c2.4-1.4,4.8-1.6,7.2,0c0.6,0.4,1.2,0.7,1.8,1.1
		c6.4,4.5,12.9,9.1,19.3,13.6c7.6,5.4,15.2,10.8,22.8,16.1c1.4,0.9,2.5,2.3,4.3,2.6l0,0c0,0.5,0.4,0.6,0.8,0.6
		c0.1,0.1,0.2,0.2,0.3,0.2c0,0.6,0.4,0.6,0.8,0.5l0.1,0c0,0,0.1,0,0.1,0C243.6,411.2,243.7,411.3,243.7,411.5z M145.9,397.1
		L145.9,397.1c0.5-0.1,1.1-0.3,1.3-0.8c0,0,0,0,0,0c1.9-1,3.8-2,5.6-3.1c8.4-4.9,16.8-9.9,25.2-14.9c0.4-0.2,0.9-0.4,0.9-0.9
		c0-0.5-0.6-0.6-1-0.8c-0.4-0.4-0.8-0.3-1.2,0c-3.5,2.2-7.1,4.3-10.6,6.7c-0.9,0.6-2.2,0.7-2.5,2c-0.1,0-0.2,0-0.3,0
		c-0.3,0-0.6,0-0.9,0.2c-1,0.7-1.9,1.6-3,2c-2.5,1.1-4.6,2.9-6.9,4.2c-2.6,1.4-4.9,3.2-7.4,4.7c-1.8,1.1-3.6,2.1-5.3,3.3
		c-2.4,1.7-5.1,3.2-7.6,4.8c-2.3,1.5-4.9,2.7-7.1,4.4c-0.4,0.3-1.1,0.3-1.1,1.2c0.4-0.2,0.8-0.4,1.1-0.5c4.2-2.5,8.5-5,12.7-7.5
		c2.1-1.2,4.2-2.3,6.1-3.8c0.5-0.1,1.1-0.3,1.4-0.8c0.1,0,0.2,0,0.3,0C145.8,397.2,145.9,397.2,145.9,397.1z M116.3,337.2
		c-1.2,1.6-2.1,3.3-3.1,5.1c0.1,0.1,0.2,0.1,0.3,0.2c1-1.7,1.9-3.4,2.9-5.1c0.1-0.1,0.4-0.3,0.1-0.5
		C116.4,336.8,116.3,337,116.3,337.2z M236.6,408.8c-0.9-0.7-1.7-1.6-2.9-1.8C234.3,408.1,235.5,408.3,236.6,408.8z M121.8,411.2
		c0.5,0.1,0.7,0,0.9-0.5C122.2,410.6,121.9,410.7,121.8,411.2z M123.1,410.4c0.1,0,0.2,0.1,0.2,0.1c0.1,0,0.1-0.1,0.1-0.2
		c-0.1,0-0.2-0.1-0.2-0.1C123.2,410.2,123.2,410.3,123.1,410.4z M239.3,410.6c0.1,0,0.2,0.1,0.2,0.1c0.1,0,0.1-0.1,0.1-0.2
		c-0.1,0-0.2-0.1-0.2-0.1C239.3,410.4,239.3,410.5,239.3,410.6z"/>
	<path class="st8" d="M196.9,303c-4-0.8-8.1-1.2-12.1-1.6c0-0.6,0-1.2,0.4-1.6c0.7-0.6,0.7-1.4,0.6-2.2c2.2-0.1,4.3,0.3,6.5,0.6
		c0.2,0.6,0.4,0.7,0.8,0.2c0.3,0,0.7,0.1,1,0.1c0.1,0.4,0.3,0.6,0.6,0.1c0.2,0,0.3,0.1,0.5,0.1c0.2,0.6,0.5,0.7,0.8,0.2
		c0.3,0,0.5,0.1,0.8,0.1c0.1,0.4,0.2,0.6,0.6,0.1c0.2,0,0.3,0.1,0.5,0.1c0,0.4,0.6,0.9,0,1.3C197.1,301.2,197,302.1,196.9,303z"/>
	<path class="st9" d="M185.8,297.6c0,0.8,0,1.5-0.6,2.2c-0.4,0.4-0.5,1-0.4,1.6c-3.1,0-6.1-0.1-9.2,0.2c-0.3,0-0.7,0.1-0.9-0.2
		c-0.2-0.4,0.2-0.5,0.4-0.8c0.7-1,1.5-1.9,1.9-3.1c0.1-0.1,0.1-0.1,0.2-0.1c0.1,0,0.2-0.1,0.4-0.1c0.4,0,0.9,0,1.3,0
		c1,0.2,2,0.3,3,0c0.4,0,0.9,0,1.3,0c0.1,0.1,0.2,0.2,0.3,0C184.2,297.5,185,297.4,185.8,297.6z"/>
	<path class="st10" d="M100.7,382.5c0.1-2.5-0.2-5.1,0.1-7.6c0.1-0.1,0.3-0.1,0.3-0.2c0.4-3.4,2.5-6,4.1-8.9
		c-0.2,2.8-1.2,5.5-2.1,8.1c-0.9,2.7-2,5.4-1.9,8.3C101,382.3,100.8,382.4,100.7,382.5z"/>
	<path class="st11" d="M105.2,365.8c-1.6,2.9-3.7,5.5-4.1,8.9c0,0.1-0.2,0.1-0.3,0.2c0-1.7,0-3.4,0.4-5c1.3-1.3,2.1-3,3.3-4.4
		c0.3-0.4,0.4-0.9,1-1C105.4,364.9,105.3,365.3,105.2,365.8z"/>
	<path class="st5" d="M100.7,382.5c0.2-0.1,0.3-0.2,0.5-0.3c0,1.4,0,2.9,0.1,4.3c0,0,0,0,0,0C100.7,385.2,101,383.8,100.7,382.5z"/>
	<path class="st12" d="M181.8,297.4c-1,0.3-2,0.3-3,0C179.8,297.2,180.8,297.3,181.8,297.4z"/>
	<path class="st11" d="M193.1,298.4c-0.4,0.5-0.7,0.4-0.8-0.2c0.1,0,0.2-0.1,0.3-0.1C192.8,298.2,192.9,298.3,193.1,298.4z"/>
	<path class="st9" d="M175,297.7c-0.3,0.3-0.6,0.2-0.9,0.1C174.4,297.6,174.7,297.6,175,297.7z"/>
	<path class="st12" d="M183.4,297.4c-0.1,0.1-0.2,0.1-0.3,0C183.2,297.4,183.3,297.4,183.4,297.4z"/>
	<path class="st12" d="M177.5,297.5c-0.1,0-0.2,0.1-0.4,0.1C177.2,297.4,177.3,297.4,177.5,297.5z"/>
	<path class="st5" d="M240.6,426.5c0.2-0.3,0.5-0.6,0.7-0.9c1.3-0.3,1.8-1.2,1.9-2.5c0,0,0,0,0,0c0.5,0.1,0.8-0.2,1-0.5
		c1.4-2.3,3.2-4.4,4.4-6.8c0.5-0.9,0.8-2.1,1.9-2.6c0.2,0.4-0.4,1.5,0.6,1.2c0.7-0.2,1,0.3,1.6,0.4c-0.9,2.5-2.4,4.6-3.8,6.8
		c-4.2,6.5-9.2,12.3-15.1,17.4c-6.6,5.6-13.9,10.2-22,13.5c-6.1,2.5-12.4,4.2-18.9,5.2c-4.3,0.7-8.6,1-13,0.9c-0.5,0-1.1,0-1.6,0
		c-0.9-1.2-0.8-1.6,1-2.7c-0.3-0.5-1-0.6-1-1.3c4.6,0,9.2-0.1,13.8-0.8c14.6-2.1,27.6-8,38.9-17.5c3.4-2.9,6.5-6.1,9.4-9.4
		C240.4,426.6,240.5,426.6,240.6,426.5z"/>
	<path class="st2" d="M252.7,414.9c-0.5-0.1-0.8-0.6-1.6-0.4c-1,0.2-0.4-0.8-0.6-1.2c-0.1-1.3,0.9-2.1,1.3-3.2
		c1.8-3.9,3.4-7.9,4.5-12c1.2-4.3,2.3-8.6,2.5-13.1c0.6-1.1,0.4-2.5,0.5-3.6c0.1-4.8,0.3-9.6-0.5-14.4c0.1-1.9-0.4-3.7-0.8-5.5
		c-0.5-2.7-1.1-5.3-1.9-7.9c-0.7-2.6-1.6-5.1-2.6-7.5c-0.5-1.2-0.1-1.4,1-1.4c2.1,5.1,3.8,10.3,5.3,15.6c0.3,1.2,0.4,2.6,0.9,3.8
		c0.4,3.8,0.8,7.6,1,11.4c0.1,1.9,0.1,3.8-0.1,5.7c-0.2,2.3-0.3,4.6-0.6,6.9c-0.4,2.5-0.7,5-1.3,7.5c-0.1,0.3-0.1,0.7-0.1,1.1
		c-1.2,4.3-2.4,8.7-4.3,12.8C254.5,411.2,253.9,413.2,252.7,414.9z"/>
	<path class="st6" d="M157.1,450.7c2.4,0.7,4.8,1.3,7.2,2c0.1,0.1,0.3,0.1,0.4,0.2c0,0,0.1,0,0.1,0c0.4,1.1,0.2,2-0.7,2.8
		c-0.4,0.4-0.7,0.8,0.1,1.1c0.2,0.1,0.3,0.3,0.2,0.5c-0.1,0.3-0.4,0.2-0.6,0c-0.6-0.5-1.3-0.4-2-0.3c-1.1,0.1-2.1-0.6-2.9-1.1
		c-1.1-0.7-2.4-1-3.6-1.4c-0.3-0.1-0.8-0.1-0.9-0.7C156,453.2,156.1,451.5,157.1,450.7z"/>
	<path class="st3" d="M157.1,450.7c-1,0.9-1.1,2.5-2.5,3c-1.6,0-2.9-0.7-4.3-1.2c-1.5-0.6-3.1-1.2-4.3-2.3c1.4-0.3,2.2-1.2,2.2-2.7
		c1.1,0.4,2.1,1,3.3,1c0,0,0,0,0,0c0.3,0.3,0.5,0.7,1.1,0.4C154,449.5,155.5,450.1,157.1,450.7z"/>
	<path class="st10" d="M148.1,447.5c0,1.5-0.7,2.4-2.2,2.7c-1.8-0.7-3.5-1.6-5.1-2.7c0.4-0.9,0.7-1.8,1.1-2.7
		C144,445.7,146,446.6,148.1,447.5z"/>
	<path class="st13" d="M141.9,444.8c-0.4,0.9-0.7,1.8-1.1,2.7c-1.9-1-3.7-2.1-5.4-3.5c0.1-0.8,0.9-1.4,0.8-2.4
		C138.2,442.5,139.9,444,141.9,444.8z"/>
	<path class="st12" d="M136.2,441.6c0.2,0.9-0.6,1.5-0.8,2.4c-1.5-0.7-2.6-2-4.1-2.8c-0.4-0.5-1-0.6-1.3-1.3c0.7-0.4,1-0.9,1.1-1.6
		C132.8,439.4,134.5,440.5,136.2,441.6z"/>
	<path class="st14" d="M101.2,386.5c0-1.4,0-2.9-0.1-4.3c0-2.9,1-5.6,1.9-8.3c0.9-2.7,1.9-5.3,2.1-8.1c0.1-0.4,0.2-0.9,0.2-1.3
		c0.2-0.9,0.4-1.8,0.6-2.7c0.1,0.2,0.2,0.4,0.2,0.5c-1,5.4-1.6,10.9-1.6,16.4c0.1,5.4,0.7,10.6,1.8,15.9c-1.3-0.1-2.5-0.1-3.4,1.1
		c-0.9-1.9-0.9-4-1.3-6.1C101.5,388.6,101.7,387.5,101.2,386.5z"/>
	<path class="st11" d="M131.1,438.3c-0.1,0.7-0.5,1.3-1.1,1.6c-4.3-3.2-7.9-7.1-11.3-11.3c-6.1-7.3-10.5-15.6-13.7-24.6
		c-0.2-0.5-0.5-1.1-0.3-1.7c0.8,1.3,1,2.8,1.7,4.1c0.1,0.1,0.1,0.2,0.2,0.3c0,0,0,0,0,0c1.5,4.1,3.6,7.9,6,11.6
		c0.1,0.1,0.1,0.2,0.2,0.3c0.4,0.6,0.8,1.1,1.1,1.7c3.4,5.2,7.4,9.8,12.2,13.7C127.5,435.6,129.4,436.9,131.1,438.3z"/>
	<path class="st2" d="M106.4,406.5c-0.7-1.3-0.9-2.8-1.7-4.1c0,0,0,0,0,0c0-0.3,0.1-0.6-0.3-0.8c0,0,0,0,0,0c0-0.3,0.1-0.7-0.3-0.8
		l0,0c0-0.4,0.1-0.7-0.3-1c0-1.4-0.9-2.7-0.8-4.1c0.9-1.2,2.1-1.2,3.4-1.1c0.9,3.8,2.1,7.6,3.3,11.3c-0.9,1-2.2,0.7-3.3,0.9
		c0,0,0,0,0,0C106.5,406.7,106.5,406.6,106.4,406.5z"/>
	<path class="st11" d="M103.9,399.8c0.3,0.3,0.3,0.7,0.3,1C103.7,400.6,103.9,400.2,103.9,399.8z"/>
	<path class="st11" d="M104.4,401.6c0.3,0.2,0.3,0.5,0.3,0.8C104.2,402.3,104.4,402,104.4,401.6z"/>
	<path class="st11" d="M104.2,400.8c0.4,0.2,0.3,0.5,0.3,0.8C104,401.5,104.2,401.1,104.2,400.8z"/>
	<path class="st5" d="M254.6,344.5c-1.1-0.1-1.5,0.2-1,1.4c1,2.5,1.9,5,2.6,7.5c0.7,2.6,1.4,5.2,1.9,7.9c0.4,1.8,0.8,3.7,0.8,5.5
		c-0.6-0.1-1.2,0.1-1.8,0.3c-1.4-9-4.2-17.5-8.5-25.6c0.5-0.5,1.9,0,1.4-1.5c-1.4-4.3-3.8-8.1-6.8-11.4c-0.8-1-1.7-2-2.4-3.1
		c-0.9-1.3-2.4-2.2-2.7-3.9c1,0.3,1.7,1,2.4,1.7c3.2,3.6,6.1,7.4,8.7,11.4C251.3,337.8,252.8,341.2,254.6,344.5z"/>
	<path class="st6" d="M238.1,321.6c0.3,1.7,1.8,2.5,2.7,3.9c0.7,1.1,1.6,2.1,2.4,3.1c-0.7,0.7-1.8,1-1.8,2.2c-2.2-2.5-4.5-5-6.7-7.5
		c0.6-0.1,1.2-0.3,1.3-1c0.1-0.5,0.5-0.7,1-0.6C237.4,321.6,237.8,321.6,238.1,321.6z"/>
	<path class="st3" d="M237.1,321.6c-0.5-0.1-0.9,0.2-1,0.6c-0.2,0.7-0.7,0.9-1.3,1c-2-1.8-4.1-3.6-6.1-5.4c0.5-0.2,0.7-0.6,0.8-1.1
		c0.2-0.5,0.3-1.1,0.9-1.4C233,317.1,235.2,319.1,237.1,321.6z"/>
	<path class="st10" d="M230.4,315.4c-0.6,0.3-0.7,0.8-0.9,1.4c-0.2,0.4-0.3,0.9-0.8,1.1c-1.7-1.2-3.4-2.5-5.1-3.7
		c1.3-0.4,1.5-1.5,1.9-2.5c1.1,0.5,1.8,1.8,3.2,1.9C229.2,314.2,229.8,314.8,230.4,315.4z"/>
	<path class="st3" d="M228.7,313.5c-1.4-0.1-2.1-1.4-3.2-1.9c-0.1-0.1-0.3-0.2-0.4-0.3c-2-1.4-3.9-2.9-6.3-3.8
		c-1.8-1.2-3.7-2.2-5.7-2.9c-2.1-1-4.2-1.9-6.4-2.6c-1-0.4-2.3-0.5-3.1-1.4c4,0.9,7.7,2.6,11.4,4.2c4.9,2.2,9.4,4.9,13.7,8.1
		C228.7,313.2,228.7,313.3,228.7,313.5z"/>
	<path class="st11" d="M203.6,300.6c0.8,0.9,2,1,3.1,1.4c2.2,0.8,4.3,1.6,6.4,2.6c-0.4,1.1-1.4,1.8-1.4,3c-2-0.7-3.9-1.5-5.9-2.2
		c-2.9-1-5.9-1.7-8.9-2.5c0.1-0.9,0.2-1.8,1-2.4c0.6-0.5,0-0.9,0-1.3C199.9,299.5,201.7,300.2,203.6,300.6z"/>
	<path class="st11" d="M196.1,298.9c-0.4,0.5-0.7,0.5-0.8-0.2C195.6,298.7,195.9,298.7,196.1,298.9z"/>
	<path class="st11" d="M197.4,299.2c-0.3,0.5-0.5,0.3-0.6-0.1C197.1,299,197.3,299,197.4,299.2z"/>
	<path class="st11" d="M194.7,298.6c-0.3,0.5-0.5,0.3-0.6-0.1C194.4,298.5,194.6,298.5,194.7,298.6z"/>
	<path class="st15" d="M181.8,381.4c0-0.7,0-1.4,0-2.3c21,11.9,41.8,23.8,62.7,35.6c-0.5,0.6-1.2,0.8-1.8,0.9
		c-1.3,0.1-1.9,0.9-2.5,1.9c-7.3,10.8-16.8,19.1-28.6,24.7c-0.2,0.1-0.3,0.2-0.5,0.3c-0.1,0.1-0.2,0.1-0.3,0.2c0,0,0,0,0,0
		c-1.7,0.7-3.5,1.4-5.2,2.1c-4.4,1.6-8.9,2.9-13.6,3.4c-0.1,0-0.2,0-0.3,0.1c-0.7,0.1-1.5,0.2-2.2,0.3c0-0.2,0.1-0.5-0.3-0.5
		c-0.3,0-0.2,0.3-0.1,0.5c-0.5,0-1,0.1-1.4,0.1c-0.5-0.4-0.2-0.9-0.3-1.3c0.4,0,0.9,0,1.3-0.1c0.2,0,0.3,0,0.5-0.1
		c0.5-0.3,1.1-0.2,1.6-0.2c0.3,0,0.6,0.1,0.8-0.2c2.5-0.4,5-0.9,7.4-1.6c16.8-4.6,29.9-14.2,39.8-28.5c0.7-1.1,0.6-1.4-0.6-1.9
		c-9-3.6-18-7.2-27-10.9c-0.1-0.1-0.2-0.1-0.3-0.2c-0.4-0.1-0.7-0.3-1.1-0.4c-0.1,0-0.2-0.1-0.2-0.1l0,0c-0.1-0.4-0.1-0.7-0.6-0.2
		c-0.2-0.1-0.4-0.1-0.5-0.2c-0.1-0.1-0.1-0.1-0.2-0.1l0,0c-0.6-1.5-2.3-1.7-3.5-2.3c-3.3-1.5-6.5-3.2-9.5-5.2
		c-3.9-2.7-7.4-6-10.3-9.8c-0.9-1.2-1.6-2.6-2.8-3.5C182.3,381.6,182.2,381.4,181.8,381.4z"/>
	<path class="st4" d="M179.2,306.3c0,0.2,0,0.4,0,0.6c-0.5,0.5-0.4,1.1-0.3,1.7c0,0.2,0,0.5,0,0.7c-0.1,0.2-0.3,0.4-0.3,0.6
		c-0.5,4.3-0.9,8.5-1.4,12.8c-0.6,5.1-1.1,10.2-1.7,15.4c-0.6,5.2-1.2,10.5-1.8,15.7c-0.5,4.5-1,9.1-1.5,13.6
		c-0.3,2.7-0.2,3.2,2.3,4.6c0.9,0.9,1.9,1.6,3,2.2c0.3,0.2,0.5,0.4,0.8,0.6c0.6,0.4,1.2,0.9,1.9,1.3c-0.3,0.8-0.7,0.1-0.9,0
		c-2.2-1-4.3-2.2-6.4-3.2c-0.4-0.2-0.8-0.7-1.3-0.1c-0.5,0.1-0.9,0.5-1.2,0.7c-12.4,9-24.7,18-37,27.1c-5,3.6-9.9,7.2-14.9,10.8
		c0-1.3-0.9-2.3-1.4-3.4c-3-6.5-5-13.3-5.9-20.4c0.4-0.2,0.9-0.3,1.3-0.2c0,0,0,0,0,0c0,0.2,0,0.3,0.1,0.5c0.3,0.5,0.2,1.1,0.3,1.6
		c0,0.1,0.1,0.2,0.1,0.3c1.3,6.6,3.3,13,6.3,19.1c0.5,1,0.8,1,1.6,0.3c15.9-12.6,31.9-25.1,47.8-37.6c0.6-0.5,0.9-1,1-1.7
		c1.1-7.8,2.2-15.5,3.3-23.3c1.2-8.4,2.4-16.8,3.6-25.2c0.6-4.3,1.2-8.5,1.8-12.8c0.2-0.8,0.7-1.9-0.9-1.6c-1.5,0.3-3,0.1-4.5,0.4
		c0.1-1.1,0.6-1.9,1.5-2.6c0.6-0.4,1-1,1.2-1.7c3.4-0.5,6.8-0.4,10.3-0.1c0.2,0.8-0.6,1.2-0.6,2c0.1,0.9-0.4,1.4-1.3,1.6
		c-0.3-0.4-0.5-0.7-1-0.8c-0.1,0-0.1-0.1-0.1-0.1c-0.1-0.2,0.2-0.6-0.3-0.4c-0.2,0-0.5,0-0.7-0.1c-0.1-0.7-0.3-1.2-1-0.4
		c-0.4,0.4-1,0.5-1.2,1C179.2,306,179.1,306.1,179.2,306.3z"/>
	<path class="st4" d="M117.7,414.6c0.6,0.2,1-0.3,1.5-0.5c20.1-11.4,40.1-22.8,60.2-34.2c0.6-0.3,1.6-1.3,1.4,0.5
		c-0.4,1.1-0.9,2.1-1.3,3.2c-0.6,0.4-1.2,1-1.6,1.6c-0.5,0-0.8,0.4-1.1,0.8l0,0c-0.5,0-0.7,0.3-1.1,0.5c-2.3,1.7-4.8,3.2-7.4,4.6
		c-4.9,2.7-9.9,5.3-14.9,8c-6.8,3.6-13.9,6.6-20.8,9.9c-1.1,0.5-2.5,0.6-3.3,1.8c-0.4,0-0.9,0-1.3,0.2c-2.5,1.1-5.1,2.2-7.6,3.3
		c-0.3,0.1-0.5,0.4-0.5,0.7c-0.1,0-0.2,0-0.3,0c-0.4,0-0.7,0-1.1,0c-0.2-0.1-0.4-0.1-0.6-0.2C117.8,414.8,117.7,414.7,117.7,414.6z"
		/>
	<path class="st14" d="M109.6,356.2c2.5-8.7,6.7-16.5,12.1-23.7c5.7-7.6,12.8-13.7,20.7-18.8c2.7-1.7,5.7-3,8.6-4.5
		c-0.2,0.8,0.2,2.1-1.4,1.9c-0.1,0-0.1,0.2-0.2,0.3c-0.5,1.2-1.4,2.2-2.6,2.9c-0.5,0.3-1.1,0.8-0.2,1.4c-0.3,0.1-0.5,0.4-0.9,0.3
		c-0.4-0.2-0.6-0.1-0.7,0.4c-0.6,0.6-1.3,1.1-2,1.5c-8.9,5.7-16.2,13.1-21.9,22c-2.5,3.9-4.5,8.1-6.3,12.3c-0.6,0.1-1.4,0.4-1.5,1
		c-0.2,1.4-1.3,2.1-2.1,3C110.7,357.1,110.2,357,109.6,356.2z"/>
	<path class="st10" d="M182.6,305.8c0,0.1,0.1,0.1,0.1,0.1c0.1,0.4,0.2,0.7,0.4,1.1c-0.9,0.3,0.1,0.9-0.2,1.4
		c-0.4,0.5-0.4,0.9,0,1.3c0,0.4,0,0.7,0,1.1c-0.1,3,0.5,6,0.6,8.9c0.2,4.3,0.7,8.5,1,12.8c0.2,2.7,0.2,5.4,0.6,8
		c0.5,3.8,0.5,7.7,1,11.6c0.4,3,0.1,6.2,0.4,9.2c0.2,2-0.2,3.9,0,5.9c0.1,2-0.5,3.8-1.1,5.7c-0.5,0.9-1.1,1.8-1.6,2.7
		c-0.2,0.5-0.5,1-1,0.9c-0.6-0.1-0.3-0.8-0.3-1.3c-0.1-10.7-0.2-21.3-0.4-32c-0.1-6.6,0-13.2-0.3-19.8c-0.2-5.5-0.1-10.9-0.2-16.4
		c0-0.5,0.1-1.1,0.1-1.6c0.2,0,0.5,0,0.7,0.1C182.4,305.6,182.5,305.7,182.6,305.8z"/>
	<path class="st15" d="M109.6,356.2c0.6,0.8,1.1,0.9,1.8,0.1c0.8-0.9,1.8-1.6,2.1-3c0.1-0.6,0.8-0.9,1.5-1c-0.2,0.7-0.4,1.4-0.6,2.2
		c-1.9,5-3.1,10.1-3.5,15.4c-0.1,1.3-0.4,2.6-0.4,3.8c-0.1,4.7-0.2,9.3,0.5,13.9c0.9,7.1,2.9,13.9,5.9,20.4c0.5,1.1,1.4,2.1,1.4,3.4
		c0,0.2,0,0.3,0,0.5c-0.7,0.8-0.6,1.7-0.6,2.7c0.1,0.1,0.1,0.2,0.2,0.3c-0.1,0.1-0.2,0.2-0.3,0.3c-0.4-0.4-0.5-0.9-1-1.2
		c0-0.2,0-0.4,0-0.5c-1.7-3.5-3.1-7.1-4.5-10.8c-0.1-1.6-0.8-3.1-1.1-4.7c-0.4-2.5-0.9-5-1.3-7.4c0.1-4.4-0.3-8.8,0.2-13.3
		c0-0.4,0.3-1-0.3-1.2c-0.5-0.2-0.7,0.4-1.1,0.6c-0.8,0.5-1,1.8-2.1,2C106.2,371,107.2,363.5,109.6,356.2z"/>
	<path class="st9" d="M192.1,448c4.7-0.5,9.2-1.8,13.6-3.4c1.8-0.6,3.5-1.4,5.2-2.1c-0.2,1.4-1.4,2.2-2.3,3.2
		c-0.2,0.3-0.7,0.4-0.7,0.8c-0.1,2-1.8,2.1-3.1,2.5c-0.8,0.3-1.6,0.6-2.5,0.9c-4.3,1.3-8.8,2-13.2,2.6c-3.5,0.5-7,0.4-10.6,0.3
		c0-0.9,0.5-1.6,1.2-2c0.7-0.5,1-1.1,1-1.9c0.9,0,1.8,0,2.7,0c0.1,0.1,0.2,0.1,0.3,0c1.4-0.2,2.7,0.1,4.1-0.4c0.5,0,1-0.1,1.4-0.1
		c0.1,0,0.3,0,0.4-0.1c0.7-0.1,1.5-0.2,2.2-0.3C191.9,448.1,192,448.1,192.1,448z"/>
	<path class="st14" d="M179.4,383.6c0.4-1.1,0.9-2.1,1.3-3.2c0,1.1,0,2.1,0.1,3.2c-0.2,1.4-0.9,2.7-1.3,4.1
		c-0.6,1.8-1.5,3.6-3.2,4.8c-0.5,0.4-1,0.9-0.1,1.4c-0.2,0.1-0.5,0.3-0.7,0.4c-16.9,6.8-33.8,13.6-50.7,20.4
		c-0.7,0.3-1.6,0.3-2.1,1.1c-0.5,0-1,0-1.5,0c-0.5,0-1.1,0-1.6,0c0-0.2,0-0.4,0-0.5c0.1,0,0.2,0,0.3,0c0.3,0,0.5,0,0.8,0
		c0.3,0,0.5-0.2,0.6-0.5c0.3-0.1,0.5-0.2,0.8-0.3c0.2,0.3,0.4,0.3,0.5,0c0.3-0.1,0.5-0.2,0.8-0.3c0.8-0.4,2-0.1,2.4-1.3
		c0.3,0,0.5,0,0.8,0c0.7,0,1.3-0.2,1.6-0.8c0.3-0.1,0.5-0.2,0.8-0.3c0.9-0.3,1.9-0.4,2.7-1.1c0.2,0,0.4,0,0.5-0.3
		c0.9-0.3,2.1,0,2.7-1.1l0,0c2.3-0.4,4.2-1.7,6.3-2.5c0.1,0,0.1-0.3,0.2-0.5c0.2,0,0.4,0,0.5,0c1.8,0.1,3-1.2,4.5-1.8
		c2.6-1,5.1-2.2,7.7-3.2c2.5-0.9,4.8-2.3,7.3-3.1c2.3-0.8,4.6-2.3,6.8-3.5c4.5-2.6,8.2-5.8,11.1-10.1
		C179.6,384.2,179.8,383.9,179.4,383.6z"/>
	<path class="st14" d="M183.1,307c-0.1-0.4-0.2-0.7-0.4-1.1c0.5,0.1,0.7,0.5,1,0.8c0.3,0.6,0.6,1.2,0.5,1.9c0.1,0.2,0.2,0.5,0.3,0.7
		c1,7,2,13.9,3,20.9c1.2,8.7,2.5,17.3,3.7,26c0.7,4.9,1.3,9.8,2,14.6c-0.3,0.6-1.3,0.5-1.4,1.3c-0.2,0-0.4,0-0.7,0.1
		c-0.3-0.1-0.5,0-0.7,0.3l0,0c-0.3,0.1-0.7,0.2-0.8,0.6c0,0,0,0,0,0c-1.4,0.7-2.8,1.4-4.3,2.1c-0.1-0.9,0.7-1.4,0.8-2.3c0,0,0,0,0,0
		c1.7-1,2.1-2.9,2.7-4.5c1.3-3.4,1.7-6.8,1.1-10.5c-0.7-4.5-1-9-1.7-13.4c-0.5-3.2-0.7-6.4-1.2-9.5c-0.1-0.8,0.3-1.8-0.7-2.4
		c0-0.6,0-1.3,0-1.9c0.2-0.1,0.3-0.3,0.2-0.6c-0.4-1.8-0.5-3.7-0.8-5.5c-0.2-0.9,0.4-2.1-0.7-2.8c0-0.4,0-0.9,0-1.3
		c0.4-0.4,0.1-0.5-0.3-0.6c0-0.4,0-0.7,0-1.1c0.4-0.6,0.4-1.2-0.3-1.6c0-0.2-0.1-0.4-0.3-0.5c0-0.2,0-0.4,0-0.5
		c0.6-0.6,0.5-1.7-0.3-2.4l0,0c0-0.5,0-1.1,0-1.6c0.4-0.4,0.3-0.7-0.3-0.8c0-0.1,0-0.2,0-0.3c0-0.5,0-0.9,0-1.4
		c0.4-0.4,0.1-0.5-0.3-0.5c0-0.2,0-0.3,0-0.5C183.4,307.9,183.6,307.4,183.1,307z"/>
	<path class="st12" d="M174.5,372.1c-2.4-1.4-2.6-1.9-2.3-4.6c0.6-4.5,1-9.1,1.5-13.6c0.6-5.2,1.2-10.5,1.8-15.7
		c0.6-5.1,1.1-10.2,1.7-15.4c0.5-4.3,0.9-8.5,1.4-12.8c0-0.2,0.2-0.4,0.3-0.6c0.4,2.3-0.2,4.5-0.2,6.8c-0.1,2.7-0.5,5.4-0.7,8.1
		c-0.4,5.4-0.9,10.9-1.3,16.3c-0.3,3.9-0.5,7.8-0.9,11.6c-0.4,5-0.9,10-1.3,15C174.4,368.8,174.5,370.4,174.5,372.1z"/>
	<path class="st12" d="M191.1,372.3c0.2,0,0.4,0,0.7-0.1c0.1,0.3,0.4,0.5,0.6,0.7c14.6,10.9,29.2,21.9,43.8,32.8
		c1.7,1.3,3.6,2.4,5.1,4.1c-1.7-0.4-2.9-1.7-4.3-2.6c-7.6-5.3-15.2-10.7-22.8-16.1c-6.4-4.5-12.9-9.1-19.3-13.6
		c-0.6-0.4-1.2-0.8-1.8-1.1c-2.4-1.5-4.8-1.3-7.2,0c-0.3,0.2-0.6,0.3-0.9,0.5c-0.2,0-0.4,0-0.5-0.2c1.5-1,3.1-1.9,4.6-2.9
		c0.3-0.2,0.6-0.3,0.5-0.7c0,0,0,0,0,0c0.5,0.1,0.8,0,0.8-0.6c0,0,0,0,0,0C190.7,372.6,190.9,372.5,191.1,372.3z"/>
	<path class="st12" d="M118.2,411.9c0-0.2,0-0.3,0-0.5c5-3.6,10-7.2,14.9-10.8c12.4-9,24.7-18,37-27.1c0.4-0.3,0.7-0.7,1.2-0.7
		c0.1,0,0.2,0,0.3,0.1c1.9,0.9,1.9,1,0.1,2.2c-14.2,9.8-28.3,19.6-42.5,29.4c-3.3,2.3-6.6,4.5-9.8,6.8
		C119.1,411.6,118.7,411.9,118.2,411.9z"/>
	<path class="st4" d="M241.3,409.7c-1.5-1.6-3.4-2.7-5.1-4.1c-14.6-11-29.2-21.9-43.8-32.8c-0.2-0.2-0.6-0.3-0.6-0.7
		c0.1-0.9,1.1-0.7,1.4-1.3c12,9.4,24,18.8,36,28.3c4.6,3.6,9.2,7.2,13.8,10.7c0,0.2,0,0.5,0,0.7c-0.2,0-0.3,0-0.5,0
		c-0.1-0.1-0.2-0.2-0.3-0.2C242,409.9,241.8,409.7,241.3,409.7L241.3,409.7z"/>
	<path class="st10" d="M190.4,303.6c6.8,0.7,13.3,2.5,19.6,5.2c4.6,1.9,9,4.2,13,7.1c-0.7,0.2-0.6,1.1-1.2,1.4
		c-0.8-0.5-1.6-0.9-2.3-1.4c-3.2-2.4-6.6-4.3-10.3-5.9c-1.1-0.5-2.1,0.4-2.4,1.9c-3-1.2-6-2.4-9.2-2.9c0.1-0.7,0.5-1.2,1-1.7
		c0.7-0.6,0.8-1-0.3-1.4c-1.3-0.4-2.6-0.8-4-1C193.1,304.4,191.6,304.6,190.4,303.6z"/>
	<path class="st2" d="M242.9,410.6c0-0.2,0-0.5,0-0.7c4.9-9.2,7.3-19.1,7.8-29.4c0.2-3.8-0.1-7.6-0.5-11.4c0.3,0,0.6,0.1,0.7-0.4
		c0-0.2,0-0.3-0.2-0.4c-0.3-0.1-0.5,0.1-0.5,0.4c-0.2-0.9-0.3-1.8-0.5-2.6c0.7,0.1,0.6,1.3,1.5,1.1c0.5,0.7,0.2,1.5,0.5,2.2
		c-0.9,1.2,0.3,2.3,0.2,3.5c0,1.1,0.1,2.2,0.1,3.3c0,0.9,0,1.8,0,2.7c0,0.7,0,1.4,0,2.2c0,0.1,0,0.1,0,0.2c0,0.3-0.1,0.5-0.1,0.8
		c-0.5,1.4-0.1,2.8-0.3,4.2c-0.5,3.7-1.3,7.3-2.1,10.9c-1.4,4.4-2.9,8.7-5.1,12.8c-0.2,0.4-0.4,0.8-0.6,1.2c-0.2,0-0.4,0-0.5,0
		l-0.1,0c0,0-0.1,0-0.1,0C243.1,410.9,243,410.8,242.9,410.6z"/>
	<path class="st14" d="M251.8,369.3c-0.3-0.7-0.1-1.5-0.5-2.2c-0.2-2.3-0.6-4.5-1-6.7c1.2-0.2,2.6,0.5,3.5-0.9
		c1.9,6.8,2.6,13.7,2.4,20.7c0,1.8,0,3.7-0.5,5.5c-0.1,0-0.2,0-0.3,0c0-0.4,0-0.7-0.1-1.1c0.4-0.7,0.2-1.4,0.2-2.1
		c0-0.9,0-1.8,0-2.7c0.2-1.2,0.1-2.4-0.7-3.4C253.3,374.3,252.4,371.9,251.8,369.3z"/>
	<path class="st9" d="M178.2,374.8c-0.3-0.2-0.5-0.4-0.8-0.6c0.6-2.2,0.4-4.4,0.5-6.7c0.2-4,0.1-7.9,0.5-11.9
		c0.2-1.5,0.1-3.2,0.1-4.8c0-4.9,0.6-9.8,0.6-14.7c0-3.1,0.1-6.2,0.2-9.3c0.2-4.9,0.3-9.9,0.6-14.8c0.1-1.8-0.1-3.6,0.2-5.4
		c0-0.3-0.1-0.6,0.3-0.9c0.4,0.3,0.2,0.7,0.2,1.1c0,4.5,0.1,9-0.1,13.5c-0.1,1.9,0.2,3.7,0.1,5.6c0,0.5,0,1.1-0.3,1.6
		c-0.4,1.4-0.4,2.9,0,4.3c0,0.4,0,0.7,0,1.1c-0.6,0.1-0.5,0.5-0.5,0.9c0,2.1-0.2,4.1-0.2,6.2c-0.1,4.7-0.4,9.3-0.5,13.9
		c-0.1,4-0.4,8-0.3,12c0,2.6-0.4,5.2-0.3,7.8C178.6,374.1,178.3,374.5,178.2,374.8z"/>
	<path class="st15" d="M146.7,315.8c-1-0.6-0.3-1.1,0.2-1.4c1.2-0.7,2-1.6,2.6-2.9c0-0.1,0.1-0.3,0.2-0.3c1.6,0.2,1.2-1.1,1.4-1.9
		c3.9-1.8,8-3,12.1-4.1c0,0.4,0.1,0.9-0.4,1.2c-0.9,0.6-1.3,1.7-2.1,2.4c-0.4,0.3-0.6,0.7-0.2,1.1c-0.7,0.2-1.3,0.5-2,0.7
		C154.4,312,150.6,313.9,146.7,315.8z"/>
	<path class="st6" d="M181.8,381.4c0.3,0,0.5,0.2,0.5,0.5c1.2,3.2,2.5,6.3,4.3,9.3c1,1.6,2.6,2.8,4.2,3.6c2.7,1.3,5.4,2.5,8.2,3.7
		c0.3,0.1,0.5,0.4,0.5,0.7c-0.3-0.1-0.7-0.2-1-0.3c-5.8-2.3-11.6-4.6-17.3-6.9c-0.3-2.1-0.3-4.2-0.4-6.3c0.7,0.2,0.6-0.3,0.6-0.7
		C181.6,383.8,181.7,382.6,181.8,381.4z"/>
	<path class="st4" d="M126,434c-4.8-3.9-8.8-8.5-12.2-13.7c0.6-1.1,1.8-1,2.8-1.2c3.3,5,7,9.6,11.3,13.8c-0.4,0.2-0.6,0.6-1.2,0.4
		C126.2,433.1,126.1,433.6,126,434z"/>
	<path class="st8" d="M178.2,374.8c0.1-0.4,0.3-0.8,0.3-1.2c-0.1-2.6,0.3-5.2,0.3-7.8c0-4,0.2-8,0.3-12c0.1-4.6,0.4-9.3,0.5-13.9
		c0.1-2.1,0.2-4.1,0.2-6.2c0-0.4,0-0.8,0.5-0.9c0,10,0.1,19.9-0.1,29.9c-0.1,4.4,0,8.9-0.3,13.3
		C179.5,375.7,178.9,375.3,178.2,374.8z"/>
	<path class="st6" d="M190.4,303.6c1.2,1,2.7,0.8,4.1,1.3c-0.7,0.4-1.3,0.8-1.8,1.5c-0.6,0.9-0.4,1.3,0.6,1.5
		c1.2,0.3,2.4,0.5,3.6,0.7c0,0.5-0.7,0.7-0.5,1.3c-1.9-0.3-3.8-0.7-5.6-0.9c-2.1-0.3-4.3-0.7-6.5-0.4c0.1-0.7-0.2-1.3-0.5-1.9
		c0.9-0.2,1.4-0.7,1.3-1.6c-0.1-0.8,0.7-1.2,0.6-2c1,0.1,2,0.1,2.9,0.2c0.1,0.4,0.3,0.5,0.6,0.1C189.5,303.5,190,303.6,190.4,303.6z
		"/>
	<path class="st5" d="M116.6,419.2c-1,0.2-2.1,0.1-2.8,1.2c-0.4-0.6-0.8-1.1-1.1-1.7c0.2-0.1,0.4-0.2,0.2-0.4
		c-0.1-0.1-0.3,0-0.4,0.1c-2.4-3.7-4.5-7.5-6-11.6c1.1-0.2,2.4,0.1,3.3-0.9c1.5,3.4,3,6.7,4.8,10C115.3,417,116,418.1,116.6,419.2z"
		/>
	<path class="st2" d="M160.5,310c-0.3-0.5-0.1-0.8,0.2-1.1c0.8-0.7,1.2-1.8,2.1-2.4c0.4-0.3,0.4-0.8,0.4-1.2
		c3.3-0.9,6.6-1.5,9.9-1.7c0.3,0.1,0.6,0.1,0.9-0.1c0.5,0,0.9,0,1.4-0.1c-0.2,0.7-0.6,1.3-1.2,1.7c-0.9,0.6-1.4,1.5-1.5,2.6
		c-1.7,0.1-3.5,0.2-5.1,0.9C165.1,308.6,162.8,309.5,160.5,310z"/>
	<path class="st15" d="M253.8,359.6c-0.9,1.3-2.3,0.7-3.5,0.9c-0.3-1.1-0.6-2.3-1-3.4c-0.2-0.3,0-0.8-0.4-1l0,0
		c0-0.4,0.1-0.8-0.3-1.1l0,0c0-0.6-0.2-1.1-0.5-1.6c-0.1-0.2,0-0.5-0.3-0.5l0,0c0-1.6-1.1-3-1.4-4.5c-0.1-0.1-0.1-0.2-0.2-0.3
		c0-0.1-0.1-0.2-0.1-0.3c0.8,0.1,1.6-0.1,2.3,0.2c0.6,0.2,0.9,0,1-0.6C251.4,351.2,252.9,355.3,253.8,359.6z"/>
	<path class="st6" d="M258.9,384.9c-0.2,4.5-1.3,8.8-2.5,13.1c-1.1,4.1-2.8,8.1-4.5,12c-0.5,1-1.4,1.9-1.3,3.2
		c-1.1,0.6-1.4,1.7-1.9,2.6c-1.3,2.4-3,4.5-4.4,6.8c-0.2,0.3-0.5,0.6-1,0.5c2.3-3.5,4.6-6.9,6.4-10.7c4.5-8.9,7-18.2,7.9-28.1
		C258.1,384.2,258.4,384.9,258.9,384.9z"/>
	<path class="st5" d="M249.5,347.3c-0.1,0.6-0.4,0.9-1,0.6c-0.8-0.3-1.6-0.1-2.3-0.2c-1.8-3.9-3.8-7.7-6.1-11.3
		c1-0.9,2.1-0.6,3.2-0.3C245.8,339.6,247.9,343.3,249.5,347.3z"/>
	<path class="st9" d="M185,376.8c0.3-0.2,0.6-0.3,0.9-0.5c0.5,0.9,1.3,1.3,2.1,1.8c4.2,2.5,8.2,5.2,12.3,7.7
		c3.1,1.9,6.2,3.9,9.3,5.8c3.3,2.1,6.7,4.2,10.1,6.2c2.3,1.4,4.4,3.1,6.8,4.4c2.2,1.1,4.2,2.6,6.3,3.9c0.1,0.1,0.1,0.2,0.1,0.5
		c-6.8-3.7-13.4-7.7-20-11.7c0.2-0.2,0.3-0.4,0-0.5c-0.7-0.3-1.3-0.9-2.2-0.8c0,0,0,0,0,0c-0.2-0.8-0.9-1.2-1.5-1.5
		c-4.1-2.3-8.1-4.9-12.1-7.5C193,382.1,189,379.4,185,376.8z"/>
	<path class="st5" d="M106.4,378.7c1.1-0.2,1.2-1.5,2.1-2c0.4-0.2,0.6-0.8,1.1-0.6c0.5,0.2,0.3,0.8,0.3,1.2
		c-0.5,4.4-0.1,8.8-0.2,13.3c-0.7,0.2-1.3,0.8-2.1,0.5C106.7,387,106.2,382.9,106.4,378.7z"/>
	<path class="st5" d="M126,434c0.1-0.4,0.2-0.9,0.7-0.7c0.6,0.2,0.8-0.2,1.2-0.4c5.6,5.3,11.8,9.8,18.7,13.3
		c1.6,0.8,3.2,1.6,4.8,2.3c-1.2,0-2.2-0.7-3.3-1c-2.1-0.9-4.1-1.8-6.2-2.7c-2-0.8-3.7-2.2-5.7-3.2c-1.7-1.1-3.4-2.2-5.1-3.3
		C129.4,436.9,127.5,435.6,126,434z"/>
	<path class="st4" d="M241.5,330.8c0-1.2,1.1-1.5,1.8-2.2c3,3.4,5.4,7.1,6.8,11.4c0.5,1.5-1,1-1.4,1.5
		C246.4,337.9,244.1,334.3,241.5,330.8z"/>
	<path class="st9" d="M249.7,397.1c0.8-3.6,1.6-7.2,2.1-10.9c0.2-1.4-0.2-2.8,0.3-4.2c0.1,0,0.3,0,0.4,0.1c0.7,1.4,1.8,2.7,2.1,4.3
		c0.1,0.3,0,0.7,0.5,0.8c0,0.8-0.1,1.5-0.1,2.3c-0.6,1-0.2,2.3-0.7,3.4c-0.5,0-1.1-0.1-1.1,0.7c0,0.2-0.1,0.5-0.3,0.5
		c-1.6,0.1-2,1.4-2.4,2.6C250.3,396.9,250.1,397.1,249.7,397.1z"/>
	<path class="st9" d="M144.1,398.2c-1.9,1.6-4.1,2.6-6.1,3.8c-4.2,2.6-8.4,5-12.7,7.5c-0.3,0.2-0.6,0.3-1.1,0.5
		c0-0.9,0.7-0.9,1.1-1.2c2.2-1.7,4.7-2.9,7.1-4.4c2.5-1.6,5.1-3.1,7.6-4.8c1.7-1.2,3.5-2.3,5.3-3.3c2.5-1.5,4.9-3.3,7.4-4.7
		c2.4-1.3,4.5-3.1,6.9-4.2c1.1-0.5,2-1.3,3-2c0.3-0.2,0.6-0.2,0.9-0.2c0,0.4-0.1,0.6-0.5,0.8c-1.7,1.4-3.7,2.2-5.5,3.4
		c-2.9,2-6,3.7-8.9,5.5c-0.5,0.3-1.2,0.5-1.2,1.3c0,0,0,0,0,0c-0.6,0-1.2,0-1.4,0.8c0,0,0,0,0,0c-0.1,0.1-0.2,0.2-0.3,0.3
		c-0.1,0-0.2,0-0.3,0C144.8,397.3,144.1,397.3,144.1,398.2z"/>
	<path class="st4" d="M243.3,336.1c-1.1-0.2-2.2-0.6-3.2,0.3c-2.5-3.6-5.1-7-8.1-10.2c0.8-0.3,1.5-0.6,2.3-0.9
		C237.7,328.6,240.8,332.1,243.3,336.1z"/>
	<path class="st8" d="M147.3,396.3c0-0.8,0.8-1,1.2-1.3c3-1.9,6.1-3.5,8.9-5.5c1.8-1.2,3.8-2,5.5-3.4c0.3-0.3,0.5-0.5,0.5-0.8
		c0.1,0,0.2,0,0.3,0c0.4,0,0.7-0.2,1.1-0.4c1.3-0.8,2.6-1.6,4-2.4c3.2-1.8,6.2-3.8,9.2-5.8c0.4,0.2,1,0.3,1,0.8
		c0,0.5-0.5,0.7-0.9,0.9c-8.4,5-16.8,9.9-25.2,14.9C151.1,394.2,149.2,395.2,147.3,396.3z"/>
	<path class="st8" d="M180.7,449c0,0.8-0.3,1.4-1,1.9c-0.7,0.4-1.2,1.1-1.2,2c-3-0.1-5.9-0.4-8.9-0.8c0.1-0.7,0.7-1.1,1.2-1.5
		c0.6-0.6,1.2-1.1,1.3-2.1C175,448.8,177.8,448.9,180.7,449z"/>
	<path class="st12" d="M162.9,450.5c-2.8-0.5-5.5-1.4-8.1-2.7c0.7-1.2,2.2-1.5,2.7-2.8c2.6,0.7,5.2,1.5,7.8,2.2
		c0,0.6-0.5,0.8-0.8,1.2C163.9,449.1,163.2,449.6,162.9,450.5z"/>
	<path class="st3" d="M234.3,325.3c-0.8,0.3-1.5,0.6-2.3,0.9c-2.2-2.2-4.5-4.3-6.9-6.2c-0.9-1.1-2.3-1.7-3.3-2.7
		c0.6-0.3,0.5-1.2,1.2-1.4C227.2,318.6,231.1,321.6,234.3,325.3z"/>
	<path class="st4" d="M258.9,384.9c-0.5,0-0.7-0.7-1.3-0.5c0-0.7-0.1-1.5,0.2-2.2c0-0.1,0-0.2,0-0.3c0.1-4.9-0.1-9.9-0.7-14.8
		c0.6-0.2,1.2-0.3,1.8-0.3c0.8,4.8,0.6,9.6,0.5,14.4C259.3,382.5,259.5,383.8,258.9,384.9z"/>
	<path class="st8" d="M185,376.8c4,2.6,8,5.2,12.1,7.8c4,2.5,8,5.1,12.1,7.5c0.6,0.3,1.2,0.7,1.5,1.5c-2.1-0.9-3.9-2.1-5.8-3.3
		c-6.4-3.8-12.8-7.6-19.2-11.4c-0.4-0.2-0.7-0.5-1.1-0.7c-1.2-0.6-1-1.1,0-1.6C184.6,376.8,184.8,376.8,185,376.8z"/>
	<path class="st12" d="M150.8,446.1c-0.5,0.4-0.8-0.1-1.2-0.2c-9.2-4.3-17.2-10.2-24.1-17.7c-0.9-1-1.9-1.9-2.5-3.1
		c0.3-0.1,0.6-0.2,0.9-0.3c0.4,0.4,0.9,0.8,1.3,1.2c1.6,2.4,3.8,4.4,6,6.3c1.5,1.7,3.3,3,5.1,4.4c3.6,3.1,7.6,5.6,11.9,7.7
		C148.9,445.3,150.1,445.3,150.8,446.1z"/>
	<path class="st13" d="M150.8,446.1c-0.7-0.8-1.9-0.9-2.7-1.6c0.4-1.1,1.4-1.7,2.2-2.5c1.7,0.5,3.1,1.5,4.8,1.9
		c0.8,0.4,1.6,0.7,2.4,1.1c-0.6,1.3-2.1,1.6-2.7,2.8c-0.4-0.1-0.9-0.3-1.3-0.4c-0.2-0.3-0.5-0.5-0.8-0.4c-0.2,0-0.3-0.1-0.5-0.1
		c-0.1-0.3-0.3-0.4-0.6-0.4C151.3,446.3,151.1,446.2,150.8,446.1z"/>
	<path class="st11" d="M162.9,450.5c0.3-0.9,1-1.4,1.6-2.1c0.3-0.3,0.8-0.6,0.8-1.2c2.2,0.4,4.5,0.8,6.7,1.2c0,0.9-0.7,1.5-1.3,2.1
		c-0.4,0.5-1.1,0.8-1.2,1.5C167.4,451.6,165.1,451.3,162.9,450.5z"/>
	<path class="st13" d="M218.7,307.6c2.4,0.8,4.3,2.4,6.3,3.8c0.1,0.1,0.3,0.2,0.4,0.3c-0.4,1-0.6,2.2-1.9,2.5
		c-2.1-1.2-4.1-2.4-6.2-3.6C217.7,309.5,218.6,308.7,218.7,307.6z"/>
	<path class="st6" d="M107.4,391.1c0.8,0.2,1.4-0.3,2.1-0.5c0.4,2.5,0.9,5,1.3,7.4c0.3,1.6,1,3.1,1.1,4.7c-0.5,0.1-0.6,1-1.3,0.8
		C109.3,399.5,108.1,395.4,107.4,391.1z"/>
	<path class="st12" d="M218.7,307.6c-0.1,1.1-1.1,1.9-1.3,2.9c-1.9-1-3.8-1.9-5.7-2.9c0-1.2,1-2,1.4-3
		C215.1,305.4,217,306.3,218.7,307.6z"/>
	<path class="st1" d="M180.9,385.6c0.1,2.1,0,4.2,0.4,6.3c-1.7,0.7-3.4,1.3-5.1,2c-0.9-0.5-0.5-1,0.1-1.4c1.6-1.2,2.6-3,3.2-4.8
		c0.4-1.4,1.1-2.6,1.3-4.1c0,0,0,0,0,0c0,0.1,0,0.3,0.1,0.4C180.8,384.5,180.9,385.1,180.9,385.6z"/>
	<path class="st3" d="M110.7,403.5c0.7,0.2,0.8-0.7,1.3-0.8c1.4,3.6,2.8,7.3,4.5,10.8c0.1,0.1,0,0.4,0,0.5c-0.3,0.1-0.4,0.6-0.8,0.5
		C113.8,411,112.1,407.4,110.7,403.5z"/>
	<path class="st13" d="M115.8,414.6c0.4,0,0.5-0.4,0.8-0.5c0.5,0.2,0.6,0.8,1,1.2c1,2.2,2.3,4.2,3.8,6c0.6,1.4,1.8,2.3,2.5,3.7
		c-0.3,0.1-0.6,0.2-0.9,0.3C120.2,421.9,117.8,418.4,115.8,414.6z"/>
	<path class="st9" d="M178,376.6c-3,2.1-6.1,4-9.2,5.8c-1.3,0.8-2.7,1.6-4,2.4c-0.4,0.2-0.7,0.4-1.1,0.4c0.3-1.3,1.7-1.4,2.5-2
		c3.4-2.3,7-4.5,10.6-6.7C177.2,376.3,177.6,376.2,178,376.6z"/>
	<path class="st4" d="M106.3,362.3c-0.1-0.2-0.2-0.4-0.2-0.5c1-5.1,2.7-10.1,4.9-14.8c0.1,0.1,0.2,0.2,0.3,0.3
		C109.1,352.1,107.6,357.2,106.3,362.3z"/>
	<path class="st6" d="M254.3,392.8c0.5-1.1,0.1-2.3,0.7-3.4c0.1,0.1,0.2,0.3,0.4,0.4c-0.7,5-2,9.8-3.8,14.5
		c-0.1-0.1-0.1-0.2-0.2-0.3c1-3.3,2.2-6.6,2.8-10.1C254.2,393.5,254.2,393.2,254.3,392.8z"/>
	<path class="st2" d="M186.1,372.8c0,0.8-0.8,1.4-0.8,2.3c-0.5,0.5-1.1,0.4-1.6,0.4c0.5-0.9,1.1-1.8,1.6-2.7
		C185.6,372.8,185.8,372.8,186.1,372.8z"/>
	<path class="st3" d="M116.4,337.4c-1,1.7-1.9,3.4-2.9,5.1c-0.1-0.1-0.2-0.1-0.3-0.2c0.9-1.7,1.9-3.5,3.1-5.1
		C116.3,337.3,116.4,337.3,116.4,337.4z"/>
	<path class="st3" d="M111.2,347.3c-0.1-0.1-0.2-0.2-0.3-0.3c0.6-1.5,1.3-3,2.2-4.4c0.1,0.1,0.2,0.1,0.3,0.2
		C112.7,344.2,111.9,345.7,111.2,347.3z"/>
	<path class="st3" d="M251.3,404c0.1,0.1,0.1,0.2,0.2,0.3c-0.6,1.5-1.3,3.1-1.9,4.6c-0.1-0.1-0.1-0.2-0.2-0.3
		C250.1,407.1,250.7,405.6,251.3,404z"/>
	<path class="st9" d="M236.6,408.8c-1.1-0.4-2.3-0.7-2.9-1.8C234.9,407.2,235.6,408.1,236.6,408.8z"/>
	<path class="st10" d="M249.4,408.6c0.1,0.1,0.1,0.2,0.2,0.3c-0.8,1.7-1.6,3.3-2.4,5c-0.1-0.1-0.2-0.1-0.3-0.2
		C247.8,412,248.6,410.3,249.4,408.6z"/>
	<path class="st15" d="M255.3,389.8c-0.1-0.1-0.2-0.3-0.4-0.4c0-0.8,0.1-1.5,0.1-2.3c0.1-0.5,0.2-0.9,0.3-1.4c0.1,0,0.2,0,0.3,0
		C255.8,387.1,255.6,388.5,255.3,389.8z"/>
	<path class="st6" d="M243.2,423.2c-0.1,1.2-0.6,2.1-1.9,2.5C241.8,424.7,242.4,423.9,243.2,423.2z"/>
	<path class="st8" d="M210.6,393.6c0.8,0,1.5,0.5,2.2,0.8c0.3,0.1,0.2,0.3,0,0.5C212.1,394.4,211.1,394.3,210.6,393.6z"/>
	<path class="st8" d="M180.4,331.8c-0.4-1.4-0.4-2.9,0-4.3C180.4,329,180.4,330.4,180.4,331.8z"/>
	<path class="st12" d="M178.9,308.7c-0.1-0.6-0.3-1.2,0.3-1.7C179.3,307.5,179.6,308.2,178.9,308.7z"/>
	<path class="st8" d="M144.1,398.2c0.1-0.9,0.7-0.8,1.4-0.8C145.1,397.9,144.6,398,144.1,398.2z"/>
	<path class="st8" d="M145.9,397.1c0.2-0.8,0.8-0.8,1.4-0.8C147,396.8,146.5,397,145.9,397.1z"/>
	<path class="st9" d="M121.8,411.2c0.2-0.5,0.4-0.6,0.9-0.5C122.5,411.2,122.2,411.3,121.8,411.2z"/>
	<path class="st5" d="M152.4,448.9c-0.5,0.4-0.8,0-1.1-0.4C151.7,448.6,152,448.7,152.4,448.9z"/>
	<path class="st12" d="M152.7,446.9c0.4-0.1,0.6,0.1,0.8,0.4C153.1,447.5,152.8,447.5,152.7,446.9z"/>
	<path class="st12" d="M241.3,409.8c0.4,0,0.7,0.2,0.8,0.6C241.7,410.3,241.3,410.3,241.3,409.8z"/>
	<path class="st12" d="M242.9,410.6c0.1,0.2,0.2,0.3,0.3,0.5c-0.4,0.1-0.8,0-0.8-0.5C242.6,410.6,242.8,410.6,242.9,410.6z"/>
	<path class="st9" d="M123.1,410.4c0-0.1,0.1-0.2,0.1-0.2c0.1,0,0.1,0.1,0.2,0.1c0,0.1,0,0.2-0.1,0.2
		C123.3,410.5,123.2,410.4,123.1,410.4z"/>
	<path class="st9" d="M239.3,410.6c0-0.1,0-0.2,0.1-0.2c0.1,0,0.1,0.1,0.2,0.1c0,0.1,0,0.2-0.1,0.2
		C239.5,410.7,239.4,410.7,239.3,410.6z"/>
	<path class="st12" d="M244.2,411.4c0.2,0.2,0.2,0.4,0,0.5c-0.2,0.1-0.4-0.1-0.4-0.4C243.9,411.4,244,411.4,244.2,411.4z"/>
	<path class="st3" d="M116.3,337.2c0-0.2,0.1-0.4,0.3-0.3c0.3,0.2,0,0.4-0.1,0.5C116.4,337.3,116.3,337.3,116.3,337.2z"/>
	<path class="st12" d="M151.6,446.4c0.3-0.1,0.5,0.1,0.6,0.4C151.8,446.9,151.6,446.8,151.6,446.4z"/>
	<path class="st10" d="M189.1,303.5c-0.3,0.4-0.5,0.3-0.6-0.1C188.7,303.3,188.9,303.3,189.1,303.5z"/>
	<path class="st4" d="M174,303.4c-0.2,0.3-0.5,0.2-0.9,0.1C173.4,303.3,173.7,303.3,174,303.4z"/>
	<path class="st4" d="M244.2,411.4c-0.1,0-0.3,0.1-0.4,0.1c-0.1-0.1-0.2-0.2-0.3-0.4c0.2,0,0.4,0,0.5,0
		C244.1,411.2,244.1,411.3,244.2,411.4z"/>
	<path class="st12" d="M179.2,306.3c-0.1-0.2,0-0.3,0.1-0.4C179.3,306.1,179.3,306.2,179.2,306.3z"/>
	<path class="st8" d="M145.7,397.3c0.1-0.1,0.2-0.2,0.3-0.3C145.9,397.2,145.8,397.2,145.7,397.3z"/>
	<path class="st4" d="M164.7,452.8c-0.1-0.1-0.3-0.1-0.4-0.2C164.5,452.6,164.6,452.6,164.7,452.8z"/>
	<path class="st6" d="M180.8,384c0-0.1,0-0.3-0.1-0.4C180.9,383.7,181,383.8,180.8,384z"/>
	<path class="st9" d="M210.9,442.6c0.1-0.1,0.2-0.1,0.3-0.2C211.1,442.5,211,442.5,210.9,442.6z"/>
	<path class="st6" d="M240.6,426.5c-0.1,0.1-0.1,0.1-0.2,0.2C240.4,426.6,240.5,426.6,240.6,426.5z"/>
	<path class="st6" d="M257.8,381.9c0,0.1,0,0.2,0,0.3C257.7,382.1,257.7,382,257.8,381.9z"/>
	<path class="st4" d="M112.5,418.4c0.1-0.1,0.2-0.3,0.4-0.1c0.2,0.2,0,0.3-0.2,0.4C112.6,418.6,112.6,418.5,112.5,418.4z"/>
	<path class="st5" d="M106.4,406.5c0.1,0.1,0.1,0.2,0.2,0.3C106.5,406.7,106.5,406.6,106.4,406.5z"/>
	<path class="st0" d="M176.2,393.9c1.7-0.7,3.4-1.3,5.1-2c5.8,2.3,11.6,4.6,17.3,6.9c0.3,0.1,0.7,0.2,1,0.3c0.1,0.1,0.1,0.1,0.2,0.1
		c0.1,0.1,0.2,0.1,0.3,0.2c0.1,0,0.2,0.1,0.3,0.1c0.7,0.5,1.6,0.8,2.4,1c0.1,0.1,0.2,0.1,0.3,0.1c0.1,0.1,0.2,0.1,0.3,0.2
		c0.1,0,0.2,0.1,0.3,0.1l0.1,0.1l0.1,0c1.5,0.7,3,1.4,4.6,1.8c0,0,0,0,0,0c0.1,0,0.1,0.1,0.2,0.1c0.2,0.1,0.4,0.1,0.5,0.2
		c0.1,0.2,0.3,0.3,0.6,0.2c0,0,0,0,0,0c0.1,0,0.2,0.1,0.2,0.1c0.4,0.1,0.7,0.3,1.1,0.4c0.1,0.1,0.2,0.1,0.3,0.2
		c9,3.6,18,7.3,27,10.9c1.2,0.5,1.3,0.8,0.6,1.9c-9.9,14.2-23.1,23.9-39.8,28.5c-2.5,0.7-4.9,1.1-7.4,1.6c-0.3,0.1-0.5,0.1-0.8,0.2
		c-0.6,0-1.1-0.1-1.6,0.2c-0.2-0.1-0.3-0.1-0.5,0.1c-0.4,0-0.9,0-1.3,0.1c-9.4,0.8-18.6-0.3-27.5-3l-0.1-0.1l-0.1,0
		c-0.2-0.2-0.5-0.2-0.7,0c0-0.1-0.1-0.1-0.1-0.1c-0.1-0.3-0.3-0.4-0.6-0.4c-0.2-0.1-0.3-0.1-0.5-0.2c-0.7-0.3-1.4-0.5-2.1-0.8
		c-0.4-0.2-0.8-0.4-1.2-0.6c-8.5-3.5-15.9-8.6-22.4-15.1c-3.5-3.5-6.5-7.4-9.4-11.4c0.5-0.7,1.4-0.8,2.1-1.1
		c16.9-6.8,33.8-13.6,50.7-20.4C175.7,394.1,175.9,394,176.2,393.9z"/>
	<path class="st5" d="M208.5,402.7c-1.6-0.5-3.1-1.1-4.6-1.8c0-0.1-0.1-0.1-0.2-0.1c-0.1,0-0.2-0.1-0.3-0.1
		c-0.1-0.1-0.2-0.1-0.3-0.2c-0.1,0-0.2,0-0.3-0.1c-0.6-0.9-1.5-0.9-2.4-1c-0.1,0-0.2-0.1-0.3-0.1c-0.1-0.1-0.2-0.1-0.3-0.2
		c-0.1,0-0.2,0-0.2-0.1c0-0.3-0.2-0.6-0.5-0.7c-2.7-1.2-5.5-2.3-8.2-3.7c-1.6-0.8-3.2-1.9-4.2-3.6c-1.8-2.9-3.1-6.1-4.3-9.3
		c1.3,0.9,1.9,2.3,2.8,3.5c3,3.8,6.4,7.1,10.3,9.8c3,2,6.2,3.7,9.5,5.2C206.2,401,207.8,401.2,208.5,402.7z"/>
	<path class="st5" d="M155.7,442.7c0.7,0.3,1.4,0.5,2.1,0.8c0.2,0.1,0.3,0.1,0.5,0.2c0.3,0,0.5,0,0.6,0.4c0,0.1,0.1,0.1,0.1,0.1
		c0.2-0.2,0.5-0.2,0.7,0c0,0,0.1,0,0.1,0c9,2.7,18.2,3.8,27.5,3c0,0.4-0.2,1,0.3,1.3c-1.3,0.5-2.7,0.2-4.1,0.4c-0.1,0-0.2,0-0.3,0
		c-0.9,0-1.8,0-2.7,0c-2.9-0.1-5.8-0.2-8.6-0.5c-2.2-0.4-4.5-0.8-6.7-1.2c-2.6-0.7-5.2-1.5-7.8-2.2c-0.8-0.4-1.6-0.7-2.4-1.1
		C155,443.4,155.5,443.1,155.7,442.7z"/>
	<path class="st5" d="M209.8,403.3c-0.2,0-0.4,0-0.6-0.2C209.7,402.6,209.8,402.9,209.8,403.3z"/>
	<path class="st5" d="M189.6,448.4c-0.1,0-0.3,0-0.4,0.1c0-0.2-0.2-0.5,0.1-0.5C189.6,447.9,189.5,448.2,189.6,448.4z"/>
	<path class="st5" d="M190.9,446.9c0.3-0.1,0.5-0.1,0.8-0.2C191.5,447,191.2,447,190.9,446.9z"/>
	<path class="st5" d="M188.8,447.2c0.2-0.1,0.3-0.1,0.5-0.1C189.1,447.2,189,447.2,188.8,447.2z"/>
	<path class="st5" d="M210.1,403.4c-0.1,0-0.2-0.1-0.2-0.1C209.9,403.3,210,403.4,210.1,403.4z"/>
	<path class="st5" d="M208.7,402.8c-0.1,0-0.1-0.1-0.2-0.1C208.6,402.7,208.7,402.7,208.7,402.8z"/>
	<path class="st5" d="M192.1,448c-0.1,0-0.2,0-0.3,0.1C191.9,448.1,192,448.1,192.1,448z"/>
	<path class="st5" d="M211.4,404c-0.1-0.1-0.2-0.1-0.3-0.2C211.3,403.9,211.3,403.9,211.4,404z"/>
	<path class="st0" d="M112.6,389.5c0-0.5,0-1.1-0.3-1.6c0.1-0.2,0.1-0.3-0.1-0.5l0,0c-0.2-2.2-0.4-4.4-0.5-6.5c-0.2-4,0.1-8,0.5-12
		c0.1-0.3,0.2-0.7,0.3-1c0.6-5,2.1-9.8,3.6-14.6l0,0c0.1-0.1,0.2-0.2,0.2-0.3c1.4-3,2.7-6.1,4.3-8.9c7.9-13.7,19-23.7,33.5-30
		c4.1-1.8,8.4-2.9,12.8-4.1c0.6-0.1,1.1-0.2,1.7-0.3c3.2-0.5,6.3-1.1,9.5-0.9c-0.6,4.3-1.2,8.5-1.8,12.8c-1.2,8.4-2.4,16.8-3.6,25.2
		c-1.1,7.8-2.2,15.5-3.3,23.3c-0.1,0.7-0.4,1.2-1,1.7c-16,12.5-31.9,25.1-47.8,37.6c-0.8,0.6-1.1,0.7-1.6-0.3
		c-3-6.1-5-12.5-6.3-19.1c0,0,0-0.1,0-0.1C112.6,389.6,112.6,389.5,112.6,389.5z"/>
	<path class="st3" d="M112.2,368.8c-0.4,4-0.7,8-0.5,12c0.1,2.2,0.3,4.4,0.5,6.5c-0.5,0-0.9,0-1.3,0.2c-0.7-4.6-0.6-9.3-0.5-13.9
		c0-1.3,0.3-2.6,0.4-3.8C111.7,370.1,111.5,368.8,112.2,368.8z"/>
	<path class="st10" d="M178,308.7c-3.2-0.2-6.4,0.4-9.5,0.9c-0.6,0.1-1.1,0.2-1.7,0.3c-0.4-0.4-0.6-0.7,0.1-0.9
		c0.3-0.1,0.6-0.2,0.6-0.6c1.6-0.6,3.4-0.7,5.1-0.9c1.5-0.4,3-0.1,4.5-0.4C178.7,306.8,178.2,307.9,178,308.7z"/>
	<path class="st3" d="M112.2,387.4c0.2,0.1,0.2,0.3,0.1,0.5C112.3,387.7,112.3,387.5,112.2,387.4z"/>
	<path class="st2" d="M182.6,305.8c-0.1-0.1-0.2-0.2-0.3-0.4C182.8,305.2,182.5,305.7,182.6,305.8z"/>
	<path class="st3" d="M112.6,389.5c0,0.1,0.1,0.1,0.1,0.2c0,0,0,0.1,0,0.1C112.6,389.7,112.6,389.6,112.6,389.5z"/>
	<path class="st5" d="M132.2,410.3c-0.1,0.2-0.3,0.3-0.5,0.3c-0.9-0.6-1.6,0.5-2.4,0.3l0,0c0.7-1.2,2.2-1.3,3.3-1.8
		c6.9-3.3,14-6.3,20.8-9.9c5-2.6,10-5.2,14.9-8c2.5-1.4,5-2.9,7.4-4.6c0.3-0.2,0.6-0.6,1.1-0.5c-0.1,0.7-0.5,1.3-1.1,1.7
		c-2.1,1.5-4.2,3.1-6.4,4.4c-4.7,2.9-9.4,5.7-14.4,7.9c-3.8,1.6-7.6,3.5-11.5,5c-0.6,0.2-1.3,0.5-1.4,1.3c-0.2,0-0.4,0-0.5,0
		c-1.6,0.2-3.1,1-4.5,1.7c-0.7,0.3-1.8,0.1-2,1.3c0,0,0,0,0,0C133.9,409.3,132.6,408.8,132.2,410.3z"/>
	<path class="st15" d="M141.9,406.2c0.1-0.8,0.8-1.1,1.4-1.3c3.9-1.4,7.7-3.3,11.5-5c5.1-2.2,9.8-5,14.4-7.9
		c2.2-1.4,4.3-2.9,6.4-4.4c0.5-0.4,0.9-1,1.1-1.7c0,0,0,0,0,0c0.6,0,1-0.1,1.1-0.8c0.4-0.6,1-1.2,1.6-1.6c0.4,0.3,0.2,0.6,0,0.9
		c-2.9,4.3-6.6,7.5-11.1,10.1c-2.2,1.3-4.4,2.7-6.8,3.5c-2.5,0.9-4.8,2.2-7.3,3.1c-2.6,1-5.1,2.2-7.7,3.2
		C144.9,405,143.7,406.3,141.9,406.2z"/>
	<path class="st2" d="M121.4,421.2c-1.5-1.8-2.8-3.8-3.8-6c0.1-0.1,0.2-0.2,0.3-0.3c0.2,0.1,0.4,0.1,0.6,0.2
		c0.3,0.3,0.6,0.5,1.1,0.5c0.5,0,1.1,0,1.6,0c0.2,1,1.2,1.4,1.3,2.4c-0.1,0.1-0.3,0.4-0.2,0.4C123.1,419.8,122.2,420.5,121.4,421.2z
		"/>
	<path class="st5" d="M120.6,415.1c-0.3,0-0.5,0-0.8,0c0-0.3,0.2-0.6,0.5-0.7c2.5-1.1,5.1-2.2,7.6-3.3c0.4-0.2,0.9-0.2,1.3-0.2
		c0,0,0,0,0,0c-0.1,0.3-0.2,0.5-0.3,0.8c-0.3,0.1-0.5,0.2-0.8,0.3c-0.7,0-1.4-0.1-1.6,0.8c-0.3,0-0.5,0-0.8,0
		c-0.9,0.3-2,0.3-2.4,1.3c-0.3,0.1-0.5,0.2-0.8,0.3c-0.2-0.3-0.4-0.3-0.5,0c-0.3,0.1-0.5,0.2-0.8,0.3
		C120.8,414.6,120.6,414.8,120.6,415.1z"/>
	<path class="st5" d="M177.7,385.2c0,0.7-0.5,0.8-1.1,0.8C176.9,385.6,177.2,385.2,177.7,385.2z"/>
	<path class="st15" d="M119.5,415.7c-0.4,0-0.8-0.2-1.1-0.5c0.4,0,0.7,0,1.1,0C119.5,415.3,119.5,415.5,119.5,415.7z"/>
	<path class="st13" d="M167.5,308.4c0,0.4-0.3,0.5-0.6,0.6c-0.7,0.2-0.5,0.5-0.1,0.9c-4.3,1.2-8.6,2.3-12.8,4.1
		c-14.5,6.3-25.6,16.3-33.5,30c-1.7,2.9-2.9,5.9-4.3,8.9c-0.1,0.1-0.2,0.2-0.2,0.3c0,0,0,0,0,0c-0.8,0.1-0.7,1.5-1.8,1.3
		c0.2-0.7,0.4-1.4,0.6-2.2c1.8-4.3,3.8-8.4,6.3-12.3c5.7-8.9,13-16.3,21.9-22c0.7-0.5,1.4-0.9,2-1.5c0.3,0,0.6,0,0.7-0.4
		c0.3,0.1,0.6-0.2,0.9-0.3c3.8-1.9,7.7-3.8,11.7-5.1c0.7-0.2,1.3-0.4,2-0.7C162.8,309.5,165.1,308.6,167.5,308.4z"/>
	<path class="st15" d="M145.8,316.1c-0.1,0.4-0.4,0.4-0.7,0.4C145.2,316,145.5,315.9,145.8,316.1z"/>
	<path class="st3" d="M184.2,315.9c0,0.2,0,0.4,0,0.5c-0.5,0.7-0.3,1.6-0.2,2.3c0.4,3.9,0.9,7.8,1.3,11.7c0.4,3.7,0.6,7.5,1.1,11.2
		c0.6,4.5,0.8,9,1,13.5c0.1,3.3-0.1,6.6-0.3,9.9c0,0.7,0.1,1.6-0.7,2.1c-0.2-1.9,0.2-3.9,0-5.9c-0.3-3.1,0-6.2-0.4-9.2
		c-0.5-3.9-0.4-7.7-1-11.6c-0.4-2.6-0.4-5.3-0.6-8c-0.3-4.3-0.8-8.5-1-12.8c-0.1-3-0.7-5.9-0.6-8.9c0.3,0,0.5,0,0.8,0
		c0,0.1,0,0.2,0,0.3c0,0.3,0,0.5,0,0.8c-0.2,0.6-0.6,1.2,0.3,1.6c0,0,0,0,0,0c0.1,0.6,0.1,1.2,0.2,1.9c-0.2,0.1-0.4,0.1-0.4,0.4
		C183.8,315.8,184.1,315.9,184.2,315.9L184.2,315.9z"/>
	<path class="st4" d="M186.4,367.2c0.9-0.5,0.7-1.4,0.7-2.1c0.2-3.3,0.4-6.6,0.3-9.9c-0.1-4.5-0.4-9-1-13.5
		c-0.5-3.7-0.7-7.5-1.1-11.2c-0.4-3.9-0.9-7.8-1.3-11.7c-0.1-0.8-0.3-1.6,0.2-2.3c0.2,0.1,0.3,0.3,0.3,0.5c0.1,0.5-0.2,1.2,0.3,1.6
		c0,0.4,0,0.7,0,1.1c0,0.2,0,0.4,0.3,0.6c0,0.4,0,0.9,0,1.3c0,2.2,0.4,4.4,0.7,6.6c0.1,0.8-0.4,1.8,0.6,2.3c0,0.6,0,1.3,0,1.9
		c0.1,1.4,0,2.8,0.2,4.3c0.4,2.7,0.8,5.4,1,8.1c0.3,3.6,1.2,7.1,1.1,10.8c-0.1,2.8,0.4,5.5-0.5,8.3c-0.5,1.6-0.5,3.3-1,5
		c-0.4,1.3-1.2,2.6-1.2,4.1c0,0,0,0,0,0c-0.3,0-0.5,0-0.8,0C185.9,371,186.5,369.2,186.4,367.2z"/>
	<path class="st4" d="M183.7,310.8c-0.3,0-0.5,0-0.8,0c0-0.4,0-0.7,0-1.1c0.2-0.1,0.3-0.2,0.5-0.3c0.1,0,0.2,0,0.3,0
		C183.7,309.9,183.7,310.4,183.7,310.8z"/>
	<path class="st3" d="M183.4,309.5c-0.2,0.1-0.3,0.2-0.5,0.3c-0.4-0.4-0.4-0.9,0-1.3c0.2,0,0.4,0,0.5,0c0,0.2,0,0.3,0,0.5
		C183.4,309.1,183.4,309.3,183.4,309.5z"/>
	<path class="st4" d="M183.4,308.4c-0.2,0-0.4,0-0.5,0c0.3-0.4-0.7-1,0.2-1.4C183.6,307.4,183.4,307.9,183.4,308.4z"/>
	<path class="st10" d="M114.3,354.5c1.1,0.2,1-1.2,1.8-1.3c-1.5,4.8-2.9,9.6-3.6,14.6c0,0.4-0.2,0.7-0.3,1c-0.7,0-0.5,1.3-1.4,1.1
		C111.2,364.5,112.4,359.4,114.3,354.5z"/>
	<path class="st8" d="M183.4,448.9c0.1,0,0.2,0,0.3,0C183.6,449,183.5,449,183.4,448.9z"/>
	<path class="st4" d="M122.5,418.1c-0.1-1-1.2-1.4-1.3-2.4c0.5,0,1,0,1.5,0c2.8,4,5.8,7.9,9.4,11.4c6.5,6.5,13.9,11.5,22.4,15.1
		c0.4,0.2,0.8,0.4,1.2,0.6c-0.2,0.4-0.7,0.7-0.6,1.2c-1.7-0.4-3.2-1.4-4.8-1.9c-0.4-0.2-0.8-0.5-1.2-0.7c-3.8-2-7.5-4.2-11-6.8
		c-1.5-1.3-3.1-2.7-4.7-3.9c-0.6-0.5-1.3-0.2-1.7,0.5c-0.3,0.4-0.5,0.8-0.7,1.3c-2.1-2-4.3-3.9-5.9-6.3c0.2-0.5,0.7-0.3,1-0.5
		c0.7-0.5,1.4-1.1,0.7-1.9C125.4,421.8,124.1,419.8,122.5,418.1z"/>
	<path class="st15" d="M134.9,409.2c0.2-1.1,1.3-0.9,2-1.3c1.4-0.7,2.9-1.5,4.5-1.7c-0.1,0.2-0.1,0.4-0.2,0.5
		C139.1,407.4,137.1,408.7,134.9,409.2z"/>
	<path class="st15" d="M132.2,410.3c0.5-1.5,1.7-1,2.7-1.1C134.3,410.2,133.1,410,132.2,410.3z"/>
	<path class="st15" d="M129,411.6c0.1-0.3,0.2-0.5,0.3-0.8c0.8,0.2,1.5-0.9,2.4-0.3C130.9,411.3,129.9,411.3,129,411.6z"/>
	<path class="st15" d="M123.3,414c0.5-1.1,1.6-1,2.4-1.3C125.3,413.9,124.1,413.6,123.3,414z"/>
	<path class="st15" d="M126.5,412.7c0.2-0.9,1-0.8,1.6-0.8C127.8,412.5,127.2,412.7,126.5,412.7z"/>
	<path class="st15" d="M122,414.3c0.2-0.3,0.3-0.3,0.5,0C122.3,414.6,122.1,414.6,122,414.3z"/>
	<path class="st15" d="M120.6,415.1c0-0.4,0.2-0.5,0.6-0.5C121.1,415,121,415.1,120.6,415.1z"/>
	<path class="st0" d="M184.2,308.7c2.2-0.3,4.3,0.1,6.5,0.4c1.9,0.2,3.8,0.6,5.6,0.9c0.3,0.1,0.7,0.2,1,0.3
		c11,2.7,20.8,7.7,29.4,15.1c4.3,3.7,7.9,7.9,11.3,12.4l0,0c0.1,0.3,0.3,0.6,0.6,0.8c1.1,1.8,2.2,3.6,3.3,5.4
		c0.1,0.1,0.1,0.2,0.2,0.2c0,0.1,0.1,0.2,0.1,0.3c0,0.1,0,0.2,0.1,0.2c3.5,6.8,6,13.9,7.4,21.4c0.2,0.9,0.3,1.8,0.5,2.6
		c0,0.1,0,0.2,0,0.3c0.3,3.8,0.6,7.6,0.5,11.4c-0.5,10.4-2.9,20.2-7.8,29.4c-4.6-3.6-9.2-7.1-13.8-10.7c-12-9.4-24-18.8-36-28.3
		c-0.7-4.9-1.3-9.8-2-14.6c-1.2-8.7-2.4-17.3-3.7-26c-1-7-2-13.9-3-20.9C184.5,309.1,184.3,308.9,184.2,308.7z"/>
	<path class="st2" d="M186.1,372.8c-0.1-1.5,0.8-2.7,1.2-4.1c0.5-1.6,0.6-3.4,1-5c0.8-2.8,0.4-5.5,0.5-8.3c0.1-3.6-0.8-7.2-1.1-10.8
		c-0.3-2.7-0.6-5.4-1-8.1c-0.2-1.4-0.2-2.8-0.2-4.3c1.1,0.5,0.6,1.6,0.7,2.4c0.5,3.2,0.7,6.4,1.2,9.5c0.7,4.5,1,9,1.7,13.4
		c0.5,3.7,0.2,7.2-1.1,10.5C188.2,369.9,187.8,371.8,186.1,372.8z"/>
	<path class="st2" d="M186.4,330.5c-1-0.6-0.5-1.6-0.6-2.3c-0.3-2.2-0.7-4.4-0.7-6.6c1.1,0.7,0.5,1.9,0.7,2.8
		c0.4,1.8,0.4,3.7,0.8,5.5C186.6,330.2,186.6,330.4,186.4,330.5z"/>
	<path class="st2" d="M184.2,315.4c-0.1-0.6-0.1-1.2-0.2-1.9c0.8,0.8,0.9,1.8,0.3,2.4c0,0-0.1,0-0.1,0
		C184.2,315.8,184.2,315.6,184.2,315.4z"/>
	<path class="st4" d="M183.9,313.5c-0.9-0.4-0.5-1-0.3-1.6c0.1,0,0.2,0,0.3,0C183.9,312.4,183.9,313,183.9,313.5z"/>
	<path class="st2" d="M184.8,318.6c-0.5-0.5-0.2-1.1-0.3-1.6C185.2,317.5,185.2,318,184.8,318.6z"/>
	<path class="st2" d="M184,311.9c-0.1,0-0.2,0-0.3,0c0-0.3,0-0.5,0-0.8C184.3,311.2,184.4,311.5,184,311.9z"/>
	<path class="st7" d="M190.4,372.5c0,0.6-0.4,0.6-0.8,0.6C189.7,372.7,190.1,372.6,190.4,372.5z"/>
	<path class="st2" d="M185,320.3c-0.2-0.1-0.3-0.3-0.3-0.6C185.1,319.8,185.4,319.8,185,320.3z"/>
	<path class="st2" d="M183.4,309.5c0-0.2,0-0.4,0-0.5c0.3,0.1,0.7,0.1,0.3,0.5C183.6,309.5,183.5,309.5,183.4,309.5z"/>
	<path class="st7" d="M191.1,372.3c-0.2,0.2-0.4,0.3-0.7,0.3C190.6,372.3,190.8,372.2,191.1,372.3z"/>
	<path class="st4" d="M238.1,337.8c-3.4-4.5-7.1-8.7-11.3-12.4c-8.6-7.4-18.4-12.4-29.4-15.1c-0.3-0.1-0.7-0.2-1-0.3
		c-0.2-0.6,0.5-0.8,0.5-1.3c0.3,0.1,0.5,0.2,0.8,0.2c3.2,0.6,6.2,1.8,9.2,2.9c1.7,0.6,3.4,1.2,5,2c2.3,1.2,4.5,2.4,6.8,3.7
		c1.7,1.1,3.3,2.2,5,3.3c1,0.9,2,1.7,3,2.6c4.6,3.9,8.8,8.2,12.2,13.3C238,336.6,238.1,337.2,238.1,337.8z"/>
	<path class="st13" d="M218.7,317.6c-2.3-1.2-4.5-2.5-6.8-3.7c-1.6-0.8-3.3-1.4-5-2c0.3-1.5,1.3-2.3,2.4-1.9
		c3.6,1.6,7.1,3.5,10.3,5.9C218.9,316.3,218.7,316.9,218.7,317.6z"/>
	<path class="st3" d="M197.7,308.9c-0.3-0.1-0.5-0.2-0.8-0.2c-1.2-0.2-2.4-0.5-3.6-0.7c-0.9-0.2-1.2-0.6-0.6-1.5
		c0.5-0.7,1.1-1.1,1.8-1.5c1.4,0.2,2.7,0.6,4,1c1.1,0.3,0.9,0.7,0.3,1.4C198.2,307.7,197.8,308.2,197.7,308.9z"/>
	<path class="st12" d="M218.7,317.6c0-0.7,0.2-1.3,0.8-1.6c0.8,0.5,1.6,0.9,2.3,1.4c1,1,2.3,1.6,3.3,2.7c-0.7,0-0.9,0.7-1.5,0.8
		C222,319.7,220.4,318.6,218.7,317.6z"/>
	<path class="st5" d="M238.1,337.8c0-0.6-0.1-1.2,0.8-1.1c0.1,0.2,0.2,0.3,0.3,0.5c-0.1,0.6-0.1,1.2,0.8,1.1
		c1.6,2.1,2.8,4.4,4.1,6.7c1.4,2.5,2.3,5.3,3.7,7.8c0,0,0,0,0,0c0,0.2,0,0.4,0,0.5c0.3,0.5,0.2,1.2,0.8,1.6c0,0,0,0,0,0
		c0,0.4-0.1,0.8,0.3,1.1l0,0c0,0.4-0.2,0.8,0.4,1c0.3,1.1,0.6,2.3,1,3.4c0.4,2.2,0.8,4.5,1,6.7c-0.9,0.2-0.8-1-1.5-1.1
		c-1.3-7.5-3.8-14.6-7.4-21.4c0-0.1-0.1-0.2-0.1-0.2c0-0.1-0.1-0.2-0.1-0.3c-0.1-0.1-0.1-0.2-0.2-0.2c-1.1-1.8-2.2-3.6-3.3-5.4
		C238.7,338.2,238.7,337.8,238.1,337.8L238.1,337.8z"/>
	<path class="st5" d="M251.8,369.3c0.6,2.5,1.5,5,3,7.1c0.8,1.1,0.9,2.2,0.7,3.4c-1.4-1.7-2.3-3.6-2.9-5.8c-0.1-0.5-0.1-1-0.6-1.3
		C252.1,371.6,250.9,370.6,251.8,369.3z"/>
	<path class="st12" d="M255.4,385.7c-0.1,0.5-0.2,0.9-0.3,1.4c-0.5,0-0.5-0.4-0.5-0.8c-0.3-1.6-1.4-2.8-2.1-4.3
		c0-0.1-0.2-0.1-0.4-0.1c0-0.3,0.1-0.5,0.1-0.8c0,0,0.1,0,0.1-0.1c0-0.1-0.1-0.1-0.1-0.2c0-0.7,0-1.4,0-2.2c1,1.7,2,3.4,2.6,5.2
		c0.1,0.3,0.1,0.6,0.5,0.7C255.4,385,255.4,385.4,255.4,385.7z"/>
	<path class="st3" d="M252.1,372.8c0.5,0.3,0.5,0.8,0.6,1.3c0.6,2.1,1.5,4.1,2.9,5.8c0,0.9,0,1.8,0,2.7c-0.1-0.1-0.3-0.1-0.3-0.2
		c-0.5-2.2-2.4-3.7-2.6-6c0-0.1-0.3-0.2-0.4-0.2C252.1,375,252.1,373.9,252.1,372.8z"/>
	<path class="st13" d="M252.2,376.1c0.1,0.1,0.4,0.2,0.4,0.2c0.2,2.3,2.1,3.9,2.6,6c0,0.1,0.2,0.1,0.3,0.2c0,0.7,0.2,1.5-0.2,2.1
		c-0.4,0-0.4-0.3-0.5-0.7c-0.6-1.9-1.6-3.6-2.6-5.2C252.2,377.9,252.2,377,252.2,376.1z"/>
	<path class="st5" d="M250.3,369c0-0.1,0-0.2,0-0.3c0-0.3,0.2-0.5,0.5-0.4c0.2,0,0.3,0.2,0.2,0.4C250.9,369.1,250.6,369,250.3,369z"
		/>
	<path class="st9" d="M252.2,380.9c0,0.1,0.1,0.1,0.1,0.2c0,0-0.1,0-0.1,0.1C252.1,381.1,252.2,381,252.2,380.9z"/>
	<path class="st11" d="M247.8,352.9c-1.4-2.5-2.3-5.3-3.7-7.8c-1.3-2.3-2.5-4.6-4.1-6.7c-0.2-0.4-0.4-0.8-0.8-1.1
		c-0.1-0.2-0.2-0.3-0.3-0.5c-3.4-5-7.6-9.4-12.2-13.3c-1-0.9-2-1.7-3-2.6c0.6-0.1,0.8-0.9,1.5-0.8c2.4,1.9,4.7,4,6.9,6.2
		c2.9,3.2,5.6,6.6,8.1,10.2c2.3,3.6,4.2,7.4,6.1,11.3c0,0.1,0.1,0.2,0.1,0.3c0.1,0.1,0.1,0.2,0.2,0.3
		C246.8,349.9,247.8,351.2,247.8,352.9z"/>
	<path class="st12" d="M248.6,355c-0.6-0.4-0.5-1.1-0.8-1.6c0.1,0,0.2,0,0.3,0C248.4,353.9,248.7,354.4,248.6,355z"/>
	<path class="st12" d="M249.3,357c-0.6-0.1-0.4-0.6-0.4-1C249.3,356.3,249.1,356.8,249.3,357z"/>
	<path class="st12" d="M248.9,356.1c-0.4-0.3-0.3-0.7-0.3-1.1C249,355.3,248.9,355.7,248.9,356.1z"/>
	<path class="st11" d="M248.2,353.4c-0.1,0-0.2,0-0.3,0c0-0.2,0-0.4,0-0.5C248.2,352.9,248.1,353.2,248.2,353.4z"/>
	<path class="st5" d="M246.4,348.4c-0.1-0.1-0.1-0.2-0.2-0.3C246.3,348.1,246.4,348.2,246.4,348.4z"/>
	<path class="st10" d="M138.1,434.5c3.5,2.6,7.1,4.8,11,6.8c0.4,0.2,0.8,0.4,1.2,0.7c-0.8,0.8-1.8,1.4-2.2,2.5
		c-4.3-2.1-8.3-4.6-11.9-7.7C136.6,435.9,137.6,435.4,138.1,434.5z"/>
	<path class="st6" d="M138.1,434.5c-0.5,0.9-1.5,1.3-1.9,2.3c-1.8-1.4-3.6-2.7-5.1-4.4c0.2-0.4,0.4-0.9,0.7-1.3
		c0.4-0.7,1.1-0.9,1.7-0.5C135.1,431.9,136.6,433.2,138.1,434.5z"/>
	<path class="st5" d="M122.5,418.1c1.6,1.7,2.9,3.7,4.3,5.5c0.7,0.9,0,1.5-0.7,1.9c-0.3,0.2-0.8,0-1,0.5c-0.4-0.4-0.9-0.8-1.3-1.2
		c-0.7-1.3-1.9-2.3-2.5-3.7c0.8-0.7,1.7-1.4,0.9-2.6C122.2,418.5,122.4,418.2,122.5,418.1z"/>
	<path class="st3" d="M200.4,399.5c0.9,0.1,1.9,0.1,2.4,1C202,400.2,201.1,400,200.4,399.5z"/>
	<path class="st4" d="M158.3,443.7c-0.2-0.1-0.3-0.1-0.5-0.2C158,443.6,158.1,443.6,158.3,443.7z"/>
	<path class="st4" d="M159.9,444.2c-0.1,0-0.1,0-0.1,0C159.8,444.2,159.8,444.2,159.9,444.2L159.9,444.2z"/>
	<path class="st3" d="M203.7,400.8c0.1,0,0.1,0,0.2,0.1c0,0-0.1,0-0.1,0L203.7,400.8z"/>
	<path class="st3" d="M203.1,400.6c0.1,0.1,0.2,0.1,0.3,0.2C203.3,400.7,203.2,400.6,203.1,400.6z"/>
	<path class="st6" d="M199.8,399.2c0.1,0.1,0.2,0.1,0.3,0.2C200,399.3,199.9,399.3,199.8,399.2z"/>
	<path class="st4" d="M159,444.2c-0.1,0-0.1-0.1-0.1-0.1C159,444.1,159,444.1,159,444.2z"/>
	<path class="st10" d="M116,353.2c0.1-0.1,0.2-0.2,0.2-0.3C116.2,353,116.1,353.1,116,353.2z"/>
	<path class="st4" d="M184.2,315.4c0,0.2,0,0.4,0,0.6c-0.1-0.1-0.4-0.1-0.4-0.2C183.7,315.5,184,315.4,184.2,315.4z"/>
	<path class="st4" d="M238.1,337.8c0.6,0,0.6,0.4,0.6,0.8C238.4,338.4,238.2,338.1,238.1,337.8z"/>
	<path class="st4" d="M242.3,344.5c0.1,0,0.1,0.1,0.1,0.2C242.3,344.7,242.3,344.6,242.3,344.5z"/>
	<path class="st4" d="M242,344c0.1,0.1,0.1,0.2,0.2,0.2C242.1,344.1,242,344.1,242,344z"/>
	<path class="st4" d="M239.2,337.2c0.4,0.3,0.6,0.7,0.8,1.1C239.1,338.4,239.2,337.8,239.2,337.2z"/>
</g>
</svg>
