<?xml version="1.0" encoding="utf-8"?>
<!-- Generator: Adobe Illustrator 19.0.1, SVG Export Plug-In . SVG Version: 6.00 Build 0)  -->
<svg version="1.1" id="Слой_1" xmlns="http://www.w3.org/2000/svg" xmlns:xlink="http://www.w3.org/1999/xlink" x="0px" y="0px"
	 viewBox="-58 181.4 478.5 478.5" style="enable-background:new -58 181.4 478.5 478.5;" xml:space="preserve">
<style type="text/css">
	.st0{fill:#091C5A;}
</style>
<g>
	<path class="st0" d="M16.2,536.7c-0.9-8.6-24.3-19.1-24.3-19.1c-6.1-3.7-3.5-8.4-3.5-8.4c3.7-8.2,23.3-0.5,23.3-0.5l3.7-8.9
		C5,492-8.2,493.6-8.2,493.6c-16.3,1.9-18.7,12.9-18.7,12.9c-3.7,16.9,9.3,20.9,9.3,20.9c11.9,5.6,15.4,7.9,15.4,7.9
		c9.7,6.3,1.1,10.4,1.1,10.4c-10.6,5-23.9-1.9-23.9-1.9l-4.1,9.7c11,7.4,28,4.3,28,4.3C20.6,554.7,16.2,536.7,16.2,536.7L16.2,536.7
		z"/>
	<path class="st0" d="M51,540.1c-0.7-7-19.6-15.5-19.6-15.5c-4.9-3-2.8-6.8-2.8-6.8c3-6.6,18.9-0.4,18.9-0.4l3-7.2
		c-8.4-6.3-19.1-5-19.1-5c-13.2,1.5-15.2,10.4-15.2,10.4c-3,13.6,7.5,16.9,7.5,16.9c9.6,4.5,12.5,6.4,12.5,6.4
		c7.9,5.1,0.9,8.4,0.9,8.4c-8.6,4.1-19.3-1.5-19.3-1.5l-3.3,7.9c8.9,6,22.7,3.5,22.7,3.5C54.5,554.7,51,540.1,51,540.1L51,540.1z"/>
	<path class="st0" d="M81.9,506.5H66.7l-18.6,50l10.7,0.2l4.9-10.9h22.5l4.9,9.9h10.3L81.9,506.5z M67.4,536.9l7.1-17.4l7.7,17.4
		H67.4z"/>
	<polygon class="st0" points="136,539.5 115.2,506.9 101.4,506.9 101.4,555.7 111.5,555.9 111.5,523.9 133.8,557.3 146.6,557.3 
		146.6,507.1 136,507.1 	"/>
	<path class="st0" d="M191.9,529h-17v7.7h11.6v11.7c-7.9,3-16.2-0.2-16.2-0.2c-16.4-10.9-7.5-24.5-7.5-24.5
		c10.1-15.8,34.2-6.1,34.2-6.1v-9.1c-29.4-9.5-41.9,6.5-41.9,6.5c-16.6,22.9,4.1,37.9,4.1,37.9c20.3,12.6,39.7,1.6,39.7,1.6v-18
		C198.4,528.2,191.9,529,191.9,529L191.9,529z"/>
	<path class="st0" d="M384.6,529h-17v7.7h11.5v11.7c-7.9,3-16.2-0.2-16.2-0.2c-16.4-10.9-7.5-24.5-7.5-24.5
		c10.1-15.8,34.2-6.1,34.2-6.1v-9.1c-29.4-9.5-41.9,6.5-41.9,6.5c-16.6,22.9,4,37.9,4,37.9c20.3,12.6,39.7,1.6,39.7,1.6v-18
		C391.1,528.2,384.6,529,384.6,529L384.6,529z"/>
	<polygon class="st0" points="237.5,495.8 221.9,521.7 206.3,496.4 192.8,496.4 216,534.3 203.1,558.6 215.4,558.6 251.3,495.8 	"/>
	<path class="st0" d="M263.9,505.8c-14.7,0-26.6,11.9-26.6,26.6s11.9,26.6,26.6,26.6s26.6-11.9,26.6-26.6S278.6,505.8,263.9,505.8z
		 M263.9,548.6c-8.9,0-16.2-7.3-16.2-16.2s7.2-16.2,16.2-16.2c8.9,0,16.2,7.3,16.2,16.2C280.1,541.4,272.8,548.6,263.9,548.6z"/>
	<polygon class="st0" points="329.1,538.9 308.2,506.7 294,506.7 294,556.7 304.8,556.5 304.8,524.1 326.9,557.1 339.8,557.1 
		339.8,506.5 329.1,506.5 	"/>
	<path class="st0" d="M316.8,341.1C309,312.5,272,298,272,298c-9.9-3.6-5.9,2.1-5.9,2.1s42.6,19.6,42.6,47c0,33.8-46.5,44-46.5,44
		c42.3-13.4,42.4-42.2,42.4-42.2c-0.7-28.7-38.6-48.8-38.6-48.8c-14.6-8.3-22.5-10.3-22.5-10.3c-19-6.4-12.9,1-12.9,1
		s57.4,18.1,57.4,58c0,40.8-80,53.9-80,53.9c75.3-14,75.3-53.5,75.3-53.5c0-35.6-52.7-58.3-52.7-58.3c-7.9-4.3-21.3-7.8-21.3-7.8
		c-12.4-2.6-5.4,2.8-5.4,2.8c50.4,29.5,50.4,62.1,50.4,62.1c0,36.2-33.2,45.2-33.2,45.2c-9.6,3.8-28.3,6.8-28.3,6.8
		c-3,0.9-5.1,3-5.1,5.4c0,1,0.2,2,1,2.7c1.8,1.9,8,6.5,8,6.5c2.2,2.1,3.5,4.6,3.5,7.4c0,6.8-7.8,12.3-17.5,12.4H182
		c-9.7-0.1-17.5-5.6-17.5-12.4c0-2.8,1.3-5.3,3.5-7.4c0,0,6.1-4.6,8-6.5c0.7-0.8,1-1.7,1-2.7c0-2.4-2.1-4.5-5.1-5.4
		c0,0-18.7-3-28.3-6.8c0,0-33.2-9-33.2-45.2c0,0,0-32.6,50.4-62.1c0,0,7-5.4-5.4-2.8c0,0-13.4,3.5-21.3,7.8c0,0-52.7,22.7-52.7,58.3
		c0,0,0,39.6,75.3,53.5c0,0-80-13.1-80-53.9c0-39.9,57.4-58,57.4-58s6.2-7.4-12.9-1c0,0-7.9,2.1-22.5,10.3c0,0-37.8,20.1-38.6,48.8
		c0,0,0.1,28.7,42.4,42.2c0,0-46.5-10.1-46.5-44c0-27.3,42.6-47,42.6-47s4-5.7-5.9-2.1c0,0-37.1,14.4-44.8,43.1
		c0,0-2.3,10.8,1.1,18.7c4.2,9.7,15,25.6,42.7,34.6c0,0,12.6,5.2,63,15.3l3,0.7c0,0,2.2,0.9,0.6,2.7l-6.9,6c0,0-10.2,7.8,4.4,14.4
		c0,0,8.9,3,15.1,9.7c0,0,4,3.8,10.8,4l0,0h0.5c0,0,0,0,0.1,0l0,0h0.3l0,0c0,0,0,0,0.1,0h0.3l0,0c6.9-0.1,11-4,11-4
		c6.3-6.7,15.1-9.7,15.1-9.7c14.6-6.6,4.4-14.4,4.4-14.4l-6.9-6c-1.6-1.7,0.6-2.7,0.6-2.7l3-0.7c50.4-10.1,63-15.3,63-15.3
		c27.7-9,38.6-24.9,42.8-34.6C319.2,351.8,316.8,341.1,316.8,341.1L316.8,341.1z"/>
</g>
</svg>
