<?xml version="1.0" encoding="utf-8"?>
<!-- Generator: Adobe Illustrator 19.0.1, SVG Export Plug-In . SVG Version: 6.00 Build 0)  -->
<svg version="1.1" id="Слой_1" xmlns="http://www.w3.org/2000/svg" xmlns:xlink="http://www.w3.org/1999/xlink" x="0px" y="0px"
	 viewBox="-217 404.1 160.2 34.8" style="enable-background:new -217 404.1 160.2 34.8;" xml:space="preserve">
<style type="text/css">
	.st0{fill:#003F98;}
	.st1{fill:#013F98;}
	.st2{fill:#0196DF;}
	.st3{fill:#014098;}
	.st4{fill:#2692D1;}
</style>
<path class="st0" d="M-180.1,410.8c1.9,0,3.4,0,5.1,0c0.8,3,1.6,6.1,2.5,9.8c1.1-3.7,2-6.7,2.9-9.7c1.7,0,3.2,0,5.3,0
	c-2,7.2-4,14.2-6,21.3c-1.6,0-3,0-4.6,0c-0.9-3.4-1.7-6.8-2.7-10.9c-1.2,4-2.2,7.5-3.3,10.9c-1.7,0-3.2,0-5.3,0
	C-184.1,425-182.1,418-180.1,410.8z"/>
<path class="st1" d="M-188.5,410.8h5.5c-1.8,5.9-3.2,11.7-5.5,17.2c-1.7,4.3-8.7,5.9-12.8,3.8c-2.2-1.1-2.5-3.1-2-5.1
	c1.4-5.3,2.9-10.5,4.3-15.9h5.5c-1.5,5.3-2.9,10.4-4.3,15.5c-0.2,0.7,0.3,1.5,1,1.6c2.4,0.6,3.5-0.7,4.1-2.8
	C-191.3,420.4-189.9,415.6-188.5,410.8z"/>
<path class="st2" d="M-145.2,419.2c-0.9-0.7-2-1.2-2.7-2.2c-0.5-0.6-0.2-1.5,0.5-1.9c0.4-0.2,0.8-0.3,1.2-0.4c0-0.8,0.2-1.7,0.7-2.4
	c0.2-0.4,0.4-0.7,0.6-1.1c0,0,0,0,0,0c0-0.1,0.1-0.1,0.1-0.2c0.1-0.2,0.1-0.4,0.2-0.7c-2.1,0-4.1,0.4-6.1,1.4
	c-5,2.5-5.3,7.3-0.9,10.5c1.1,0.8,2.6,1.3,3.1,2.7c0.3,0.7,0.1,1.5-0.5,2.1c-2.4,2.4-5.7,0.5-8.6,0.7c-0.6,1.1-1,2-1.1,3.3
	c0,0.5,0.3,1,0.8,1.1c4.2,0.9,8.3,1,12.2-1.4C-140.9,427.8-140.8,422.6-145.2,419.2z"/>
<path class="st1" d="M-63.5,410.8c-0.4,1.4-0.7,2.6-1.1,4c-1.9,0-3.8,0-5.9,0c-1.7,5.8-3.4,11.5-5.1,17.3c-1.8,0-3.4,0-5.4,0
	c1.6-5.7,3.2-11.3,4.8-17.2c-2.1,0-3.8,0-5.5,0l0.9-4.1C-75.1,410.8-69.4,410.8-63.5,410.8z"/>
<path class="st3" d="M-161.5,410.8c1.9,0,3.4,0,5.5,0c-2.2,7.3-4.2,14.3-6.2,21.4c-1.8,0-3.4,0-5.4,0
	C-165.6,424.9-163.6,417.9-161.5,410.8z"/>
<path class="st0" d="M-87.2,432.1c0,0-1.5-6.5-2.2-9.6c0.7-0.4,1.4-0.7,1.9-1.1c2.6-1.7,4.4-4.1,3.6-7.3c-0.8-3.2-3.8-3.4-6.5-3.5
	c-2.7,0-5.4,0-8.3,0c-2.1,7.1-4.1,14.2-6.2,21.4h5.4c1-3.1,1.9-6,2.8-9c0.4,0,0.7,0,1.1,0c0.8,2.9,1.7,6.1,2.5,9L-87.2,432.1z
	 M-94.5,415c1.2-0.2,2.3-0.4,3.4,0c0.9,0.3,1.4,1.3,1,2.3c-0.8,2.2-3.1,2.1-5.6,2.1C-95.3,417.7-94.9,416.4-94.5,415z"/>
<path class="st1" d="M-113.1,410.9c-4,7.1-7.9,14.1-12,21.4c2.1,0,3.6,0,5.2,0c0.7-1.1,1.5-2.3,2.1-3.3c2,0,3.9,0,5.7,0
	c0.1,1.2,0.2,2.1,0.4,3.2c1.8,0,3.4,0,5.1,0c0-7.1,0-14.2,0-21.3C-108.9,410.9-111,410.9-113.1,410.9z M-112.1,424.3
	c-0.9,0-1.8,0-3.1,0c1-1.9,1.8-3.5,3.1-5.8C-112.1,420.9-112.1,422.4-112.1,424.3z"/>
<path class="st2" d="M-119.7,414.2c-0.8-3.1-3.6-3.3-6.2-3.4c-2.8-0.1-5.6,0-8.8,0c-2.1,7.2-4.1,14.2-6.2,21.5c2,0,3.6,0,5.4,0
	c0.8-2.8,1.7-5.5,2.5-8.2c3.5-0.3,7-0.2,9.9-2.1C-120.4,420-119,417.4-119.7,414.2z M-131.8,419.3c0.4-1.4,0.8-2.8,1.3-4.4
	c1.2,0,2.3-0.2,3.3,0c0.9,0.2,1.4,1.1,1.3,1.9C-126.2,419.1-128.1,419.9-131.8,419.3z"/>
<path class="st4" d="M-153.7,432.5c-0.5-0.1-1.6-0.2-2.7-0.4c-1.3-0.1-2.7-0.2-2.2-2.2c0.4-1.6,0.8-3.2,3.1-2.3
	c1.5,0.5,3.1,0.5,4.7,0.2c1.1-0.2,2.1-0.9,2.4-2c0.3-1.1-0.5-1.8-1.3-2.4c-0.7-0.5-1.5-1-2.2-1.5c-3.8-2.8-3.7-7.1,0.2-9.7
	c3.4-2.3,7.3-2.3,11.2-1.4c1.5,0.3,1.1,1.4,0.8,2.4c-0.3,1-0.3,2.2-2,2c-1.5-0.2-2.9-0.3-4.4-0.4c-0.9,0-1.9,0.1-2.2,1.1
	c-0.3,0.9,0.6,1.4,1.1,1.9c0.7,0.6,1.4,1.1,2.1,1.6c3.9,3.1,3.9,7.6,0,10.7C-147.1,431.6-149.9,432.5-153.7,432.5z"/>
</svg>
