<?xml version="1.0" encoding="utf-8"?>
<!-- Generator: Adobe Illustrator 18.1.1, SVG Export Plug-In . SVG Version: 6.00 Build 0)  -->
<svg version="1.1" id="Слой_1" xmlns="http://www.w3.org/2000/svg" xmlns:xlink="http://www.w3.org/1999/xlink" x="0px" y="0px"
	 viewBox="0 0 160.2 34.8" enable-background="new 0 0 160.2 34.8" xml:space="preserve">
<path fill="#003F98" d="M36.9,6.7c1.9,0,3.4,0,5.1,0c0.8,3,1.6,6.1,2.5,9.8c1.1-3.7,2-6.7,2.9-9.7c1.7,0,3.2,0,5.3,0
	C50.7,14,48.7,21,46.7,28.1c-1.6,0-3,0-4.6,0c-0.9-3.4-1.7-6.8-2.7-10.9c-1.2,4-2.2,7.5-3.3,10.9c-1.7,0-3.2,0-5.3,0
	C32.9,20.9,34.9,13.9,36.9,6.7z"/>
<path fill="#013F98" d="M28.5,6.7H34c-1.8,5.9-3.2,11.7-5.5,17.2c-1.7,4.3-8.7,5.9-12.8,3.8c-2.2-1.1-2.5-3.1-2-5.1
	c1.4-5.3,2.9-10.5,4.3-15.9h5.5c-1.5,5.3-2.9,10.4-4.3,15.5c-0.2,0.7,0.3,1.5,1,1.6c2.4,0.6,3.5-0.7,4.1-2.8
	C25.7,16.3,27.1,11.5,28.5,6.7z"/>
<path fill="#0196DF" d="M58.3,27.8c-0.1-1.7,0.3-2.9,1.1-4.2c2.9-0.2,6.2,1.7,8.6-0.7c0.6-0.6,0.8-1.4,0.5-2.1
	c-0.5-1.4-2-1.9-3.1-2.7c-4.4-3.2-4.1-8,0.9-10.5c3.6-1.8,7.4-1.7,11.2-0.5c0.1,1.5-0.1,2.8-1,3.8c-2.3,0.3-4.7-1.1-6.9,0.1
	c-0.7,0.4-1,1.3-0.5,1.9c0.7,1,1.8,1.5,2.7,2.2c4.4,3.4,4.3,8.6-0.5,11.5C67.2,29.2,62.8,28.9,58.3,27.8z"/>
<path fill="#013F98" d="M153.5,6.7c-0.4,1.4-0.7,2.6-1.1,4c-1.9,0-3.8,0-5.9,0c-1.7,5.8-3.4,11.5-5.1,17.3c-1.8,0-3.4,0-5.4,0
	c1.6-5.7,3.2-11.3,4.8-17.2c-2.1,0-3.8,0-5.5,0l0.9-4.1C141.9,6.7,147.6,6.7,153.5,6.7z"/>
<path fill="#014098" d="M55.5,6.7c1.9,0,3.4,0,5.5,0C58.8,14,56.8,21,54.8,28.1c-1.8,0-3.4,0-5.4,0C51.4,20.8,53.4,13.8,55.5,6.7z"
	/>
<path fill="#003F98" d="M129.8,28c0,0-1.5-6.5-2.2-9.6c0.7-0.4,1.4-0.7,1.9-1.1c2.6-1.7,4.4-4.1,3.6-7.3c-0.8-3.2-3.8-3.4-6.5-3.5
	c-2.7,0-5.4,0-8.3,0c-2.1,7.1-4.1,14.2-6.2,21.4h5.4c1-3.1,1.9-6,2.8-9c0.4,0,0.7,0,1.1,0c0.8,2.9,1.7,6.1,2.5,9L129.8,28z
	 M122.5,10.9c1.2-0.2,2.3-0.4,3.4,0c0.9,0.3,1.4,1.3,1,2.3c-0.8,2.2-3.1,2.1-5.6,2.1C121.7,13.6,122.1,12.3,122.5,10.9z"/>
<path fill="#013F98" d="M103.9,6.8c-4,7.1-7.9,14.1-12,21.4c2.1,0,3.6,0,5.2,0c0.7-1.1,1.5-2.3,2.1-3.3c2,0,3.9,0,5.7,0
	c0.1,1.2,0.2,2.1,0.4,3.2c1.8,0,3.4,0,5.1,0c0-7.1,0-14.2,0-21.3C108.1,6.8,106,6.8,103.9,6.8z M104.9,20.2c-0.9,0-1.8,0-3.1,0
	c1-1.9,1.8-3.5,3.1-5.8C104.9,16.8,104.9,18.3,104.9,20.2z"/>
<path fill="#0196DF" d="M97.3,10.1c-0.8-3.1-3.6-3.3-6.2-3.4c-2.8-0.1-5.6,0-8.8,0c-2.1,7.2-4.1,14.2-6.2,21.5c2,0,3.6,0,5.4,0
	c0.8-2.8,1.7-5.5,2.5-8.2c3.5-0.3,7-0.2,9.9-2.1C96.6,15.9,98,13.3,97.3,10.1z M85.2,15.2c0.4-1.4,0.8-2.8,1.3-4.4
	c1.2,0,2.3-0.2,3.3,0c0.9,0.2,1.4,1.1,1.3,1.9C90.8,15,88.9,15.8,85.2,15.2z"/>
</svg>
