<?xml version="1.0" encoding="utf-8"?>
<!-- Generator: Adobe Illustrator 19.0.1, SVG Export Plug-In . SVG Version: 6.00 Build 0)  -->
<svg version="1.1" id="Слой_1" xmlns="http://www.w3.org/2000/svg" xmlns:xlink="http://www.w3.org/1999/xlink" x="0px" y="0px"
	 viewBox="-1036.8 797.6 607.8 59.8" style="enable-background:new -1036.8 797.6 607.8 59.8;" xml:space="preserve">
<style type="text/css">
	.st0{fill:#323D8F;}
	.st1{fill:#0094E7;}
	.st2{fill:#6B69AA;}
	.st3{fill:#A5A9CF;}
	.st4{fill:#0E43A1;}
	.st5{fill:#149CEA;}
</style>
<g>
	<polygon class="st0" points="-509.4,817.6 -506.2,805.4 -493.4,805.4 -496.7,817.6 	"/>
	<polygon class="st0" points="-499.7,829.7 -496.7,817.6 -483.7,817.6 -487,829.7 	"/>
	<polygon class="st0" points="-483.7,817.6 -480.5,805.4 -467.7,805.4 -471,817.6 	"/>
	<polygon class="st1" points="-474.2,829.7 -471,817.6 -458.2,817.6 -461.5,829.7 	"/>
	<polygon class="st0" points="-458.2,817.6 -455,805.4 -442.2,805.4 -445.5,817.6 	"/>
	<polygon class="st2" points="-515.7,841.9 -512.5,829.7 -499.7,829.7 -503,841.9 	"/>
	<polygon class="st2" points="-506.2,854.1 -503,841.9 -490,841.9 -493.4,854.1 	"/>
	<polygon class="st3" points="-490,841.9 -487,829.7 -474.2,829.7 -477.4,841.9 	"/>
	<polygon class="st3" points="-464.7,841.9 -461.5,829.7 -448.7,829.7 -452,841.9 	"/>
	<polygon class="st3" points="-448.7,829.7 -445.5,817.6 -432.7,817.6 -436,829.7 	"/>
</g>
<g id="ЧЕТКОСТЬ_И_СЛАЖЕННОСТЬ_XXI_ВЕКА_________РЕВОЛЮЦИЯ_АВТОЗАПЧАСТЕЙ">
	<g>
		<path class="st4" d="M-1029.3,805.5c-0.2,0-0.5,0.1-0.8,0.1c-0.3,0-0.6,0-0.8,0c-0.5,0-0.9-0.1-1.2-0.2c-0.3-0.1-0.5-0.3-0.6-0.5
			c-0.1-0.3-0.2-0.5-0.2-0.8c0-0.3,0.1-0.7,0.2-1.2l0.5-2.8h-3l-0.8,4.4c-0.1,0.6-0.1,1.2,0,1.6c0.1,0.4,0.3,0.8,0.6,1.1
			c0.3,0.3,0.7,0.5,1.1,0.6c0.4,0.1,0.9,0.2,1.4,0.2c0.7,0,1.2,0,1.7-0.1c0.4-0.1,0.9-0.2,1.5-0.3l-0.8,4.4h3l2.1-12h-3
			L-1029.3,805.5z M-1023.3,812h8.1l0.4-2.3h-5.1l0.5-3h4.7l0.4-2.3h-4.7l0.4-2.1h5.1l0.4-2.3h-8.1L-1023.3,812z M-1011,802.3h3.5
			l-1.7,9.7h3l1.7-9.7h3.5l0.4-2.3h-10.1L-1011,802.3z M-988.8,800c-0.8,0-1.5,0.2-2.1,0.5c-0.6,0.3-1.1,0.8-1.6,1.6
			c-0.1,0.2-0.3,0.4-0.4,0.7c-0.2,0.3-0.3,0.5-0.4,0.7c-0.4,0.6-0.8,1.1-1.1,1.2c-0.3,0.2-0.6,0.3-1.1,0.3l0.9-4.9h-3l-2.1,12h3
			l0.9-4.8h0.8l2.4,4.8h3.6l-3.1-6.2c0.2-0.1,0.4-0.3,0.6-0.5c0.2-0.3,0.5-0.6,0.8-1.1c0.4-0.6,0.7-1.1,1-1.3c0.3-0.2,0.6-0.3,1-0.3
			h0.7l0.5-2.6c-0.1,0-0.2,0-0.4,0C-988.3,800-988.5,800-988.8,800z M-979.2,799.7c-1.8,0-3.3,0.6-4.6,1.7c-1.2,1.1-2,2.6-2.4,4.6
			c-0.3,1.9-0.1,3.4,0.7,4.6c0.8,1.1,2.2,1.7,4,1.7c1.8,0,3.3-0.6,4.6-1.7c1.2-1.1,2-2.6,2.4-4.6c0.3-1.9,0.1-3.5-0.7-4.6
			C-976.1,800.3-977.4,799.7-979.2,799.7z M-977.6,806c-0.1,0.8-0.3,1.4-0.5,1.8c-0.2,0.5-0.5,0.9-0.8,1.2c-0.3,0.3-0.6,0.6-1,0.7
			s-0.7,0.2-1.1,0.2c-0.3,0-0.7-0.1-1-0.2c-0.3-0.1-0.6-0.4-0.8-0.7c-0.2-0.3-0.3-0.7-0.4-1.2c-0.1-0.5,0-1.1,0.1-1.8
			c0.1-0.7,0.3-1.3,0.6-1.8c0.2-0.5,0.5-0.9,0.8-1.2c0.3-0.3,0.7-0.6,1-0.7c0.3-0.1,0.7-0.2,1-0.2c0.3,0,0.7,0.1,1,0.2
			c0.3,0.1,0.5,0.4,0.8,0.7c0.2,0.3,0.3,0.7,0.4,1.2C-977.5,804.7-977.5,805.3-977.6,806z M-962.5,800.1c-0.3-0.1-0.7-0.2-1.1-0.2
			c-0.4-0.1-0.8-0.1-1.3-0.1c-1.8,0-3.3,0.6-4.6,1.7c-1.3,1.1-2.1,2.6-2.4,4.5c-0.3,2-0.1,3.5,0.8,4.6c0.9,1.1,2.2,1.6,4,1.6
			c0.6,0,1,0,1.4-0.1c0.3-0.1,0.7-0.1,1.1-0.3c0.3-0.1,0.6-0.2,1-0.3c0.3-0.1,0.6-0.2,0.8-0.4l0.5-2.8h-0.3
			c-0.2,0.1-0.4,0.3-0.6,0.5c-0.2,0.2-0.5,0.3-0.8,0.5c-0.3,0.2-0.6,0.3-1,0.4c-0.4,0.1-0.8,0.2-1.2,0.2c-0.4,0-0.8-0.1-1.1-0.2
			c-0.4-0.1-0.7-0.4-0.9-0.7c-0.3-0.3-0.5-0.7-0.6-1.2c-0.1-0.5-0.1-1.1,0-1.9c0.1-0.7,0.3-1.3,0.6-1.8c0.3-0.5,0.6-0.9,1-1.2
			c0.4-0.3,0.8-0.6,1.2-0.7c0.4-0.1,0.8-0.2,1.2-0.2c0.4,0,0.7,0.1,1,0.2c0.3,0.1,0.6,0.3,0.8,0.4c0.2,0.2,0.5,0.3,0.7,0.5
			c0.2,0.2,0.3,0.3,0.5,0.5h0.3l0.5-2.9c-0.2-0.1-0.4-0.2-0.7-0.4C-961.9,800.3-962.2,800.1-962.5,800.1z M-959,802.3h3.5l-1.7,9.7
			h3l1.7-9.7h3.5l0.4-2.3h-10.1L-959,802.3z M-938.1,805.3c-0.4-0.4-0.9-0.6-1.4-0.7c-0.6-0.1-1.2-0.1-1.9-0.1h-1.9l0.8-4.5h-3
			l-2.1,12h4.9c0.8,0,1.4-0.1,2-0.2c0.6-0.2,1.1-0.4,1.6-0.8c0.4-0.3,0.8-0.7,1.1-1.2c0.3-0.5,0.5-1,0.6-1.6c0.1-0.6,0.1-1.1,0-1.6
			C-937.6,806.1-937.8,805.7-938.1,805.3z M-940.6,808.2c-0.1,0.5-0.3,0.9-0.7,1.1c-0.4,0.3-0.9,0.4-1.5,0.4h-1.5l0.5-3.1h1.5
			c0.4,0,0.8,0,1,0.1c0.2,0.1,0.4,0.2,0.5,0.3c0.1,0.2,0.2,0.3,0.2,0.5C-940.5,807.9-940.5,808-940.6,808.2z M-924.6,807.1l1.3-7.1
			h-3l-2.1,12h2.8l6-7.9l-1.4,7.9h3l2.1-12h-3.1L-924.6,807.1z M-897.8,800.1c-0.3-0.1-0.7-0.2-1.1-0.2c-0.4-0.1-0.8-0.1-1.3-0.1
			c-1.8,0-3.3,0.6-4.6,1.7c-1.3,1.1-2.1,2.6-2.4,4.5c-0.3,2-0.1,3.5,0.8,4.6c0.9,1.1,2.2,1.6,4,1.6c0.6,0,1,0,1.4-0.1
			c0.3-0.1,0.7-0.1,1.1-0.3c0.3-0.1,0.6-0.2,1-0.3c0.3-0.1,0.6-0.2,0.8-0.4l0.5-2.8h-0.3c-0.2,0.1-0.4,0.3-0.6,0.5
			c-0.2,0.2-0.5,0.3-0.8,0.5c-0.3,0.2-0.6,0.3-1,0.4c-0.4,0.1-0.8,0.2-1.2,0.2c-0.4,0-0.8-0.1-1.1-0.2c-0.4-0.1-0.7-0.4-0.9-0.7
			c-0.3-0.3-0.5-0.7-0.6-1.2c-0.1-0.5-0.1-1.1,0-1.9c0.1-0.7,0.3-1.3,0.6-1.8c0.3-0.5,0.6-0.9,1-1.2c0.4-0.3,0.8-0.6,1.2-0.7
			c0.4-0.1,0.8-0.2,1.2-0.2c0.4,0,0.7,0.1,1,0.2c0.3,0.1,0.6,0.3,0.8,0.4c0.2,0.2,0.5,0.3,0.7,0.5c0.2,0.2,0.3,0.3,0.5,0.5h0.3
			l0.5-2.9c-0.2-0.1-0.4-0.2-0.7-0.4C-897.3,800.3-897.5,800.1-897.8,800.1z M-891.7,802.3c-0.1,0.5-0.2,1.1-0.4,1.8
			c-0.3,1.4-0.6,2.6-0.9,3.3c-0.3,0.8-0.6,1.3-1.1,1.7c-0.1,0.1-0.3,0.2-0.5,0.2c-0.2,0-0.4,0.1-0.5,0.1c-0.1,0-0.1,0-0.2,0
			c-0.1,0-0.1,0-0.2,0h-0.1l-0.5,2.7c0.1,0,0.3,0,0.6,0c0.3,0,0.6,0,0.8,0c0.4,0,0.8-0.1,1.2-0.2c0.4-0.1,0.8-0.4,1.1-0.6
			c0.2-0.2,0.4-0.4,0.7-0.7c0.2-0.3,0.5-0.7,0.8-1.2c0.3-0.5,0.5-1.1,0.8-1.9c0.3-0.8,0.5-1.7,0.8-2.7c0.1-0.4,0.2-0.8,0.3-1.2
			c0.1-0.4,0.2-0.8,0.3-1.3h3l-1.7,9.7h3l2.1-12h-8.9C-891.4,801-891.6,801.8-891.7,802.3z M-875.4,800l-6.2,12h3l1.2-2.5h3.8
			l0.3,2.5h3.1l-1.9-12H-875.4z M-876.4,807.4l1.9-4l0.5,4H-876.4z M-850.8,800c-0.8,0-1.5,0.2-2.1,0.5c-0.6,0.3-1,0.8-1.5,1.5
			c-0.1,0.2-0.3,0.4-0.4,0.7c-0.1,0.3-0.3,0.5-0.4,0.7c-0.4,0.7-0.8,1.1-1,1.3c-0.3,0.2-0.6,0.3-1.1,0.3l0.9-5h-3l-0.9,5
			c-0.4,0-0.7-0.1-1-0.3c-0.2-0.2-0.4-0.6-0.6-1.3c-0.1-0.2-0.1-0.4-0.2-0.7c0-0.2-0.1-0.5-0.1-0.7c-0.2-0.7-0.5-1.2-0.9-1.5
			c-0.4-0.3-1.1-0.5-1.9-0.5c-0.3,0-0.5,0-0.7,0c-0.2,0-0.3,0-0.4,0l-0.5,2.6h0.5c0.4,0,0.7,0.1,0.9,0.4c0.2,0.2,0.3,0.7,0.4,1.2
			c0.1,0.5,0.2,0.9,0.3,1.1c0.1,0.3,0.3,0.5,0.4,0.6l-4.8,6.1h3.5l3.8-4.9h0.8l-0.9,4.9h3l0.9-4.9h0.8l2.1,4.9h3.6l-2.7-6.1
			c0.2-0.1,0.4-0.3,0.6-0.6c0.2-0.3,0.4-0.6,0.7-1.1c0.3-0.6,0.6-1,0.9-1.2c0.2-0.2,0.6-0.4,1-0.4h0.5l0.5-2.6c-0.1,0-0.2,0-0.4,0
			C-850.3,800-850.6,800-850.8,800z M-848.5,812h8.1l0.4-2.3h-5.1l0.5-3h4.7l0.4-2.3h-4.7l0.4-2.1h5.1l0.4-2.3h-8.1L-848.5,812z
			 M-828.2,804.4h-4.1l0.8-4.4h-3l-2.1,12h3l0.9-5.3h4.1l-0.9,5.3h3l2.1-12h-3L-828.2,804.4z M-814,804.4h-4.1l0.8-4.4h-3l-2.1,12h3
			l0.9-5.3h4.1l-0.9,5.3h3l2.1-12h-3L-814,804.4z M-800.9,799.7c-1.8,0-3.3,0.6-4.6,1.7c-1.2,1.1-2,2.6-2.4,4.6
			c-0.3,1.9-0.1,3.4,0.7,4.6c0.8,1.1,2.2,1.7,4,1.7c1.8,0,3.3-0.6,4.6-1.7c1.2-1.1,2-2.6,2.4-4.6c0.3-1.9,0.1-3.5-0.7-4.6
			C-797.8,800.3-799.1,799.7-800.9,799.7z M-799.3,806c-0.1,0.8-0.3,1.4-0.5,1.8c-0.2,0.5-0.5,0.9-0.8,1.2c-0.3,0.3-0.6,0.6-1,0.7
			s-0.7,0.2-1.1,0.2c-0.3,0-0.7-0.1-1-0.2c-0.3-0.1-0.6-0.4-0.8-0.7c-0.2-0.3-0.3-0.7-0.4-1.2c-0.1-0.5,0-1.1,0.1-1.8
			c0.1-0.7,0.3-1.3,0.6-1.8c0.2-0.5,0.5-0.9,0.8-1.2c0.3-0.3,0.7-0.6,1-0.7c0.3-0.1,0.7-0.2,1-0.2c0.3,0,0.7,0.1,1,0.2
			c0.3,0.1,0.5,0.4,0.8,0.7c0.2,0.3,0.3,0.7,0.4,1.2C-799.1,804.7-799.2,805.3-799.3,806z M-784.1,800.1c-0.3-0.1-0.7-0.2-1.1-0.2
			c-0.4-0.1-0.8-0.1-1.3-0.1c-1.8,0-3.3,0.6-4.6,1.7c-1.3,1.1-2.1,2.6-2.4,4.5c-0.3,2-0.1,3.5,0.8,4.6c0.9,1.1,2.2,1.6,4,1.6
			c0.6,0,1,0,1.4-0.1c0.3-0.1,0.7-0.1,1.1-0.3c0.3-0.1,0.6-0.2,1-0.3c0.3-0.1,0.6-0.2,0.8-0.4l0.5-2.8h-0.3
			c-0.2,0.1-0.4,0.3-0.6,0.5c-0.2,0.2-0.5,0.3-0.8,0.5c-0.3,0.2-0.6,0.3-1,0.4c-0.4,0.1-0.8,0.2-1.2,0.2c-0.4,0-0.8-0.1-1.1-0.2
			c-0.4-0.1-0.7-0.4-0.9-0.7c-0.3-0.3-0.5-0.7-0.6-1.2c-0.1-0.5-0.1-1.1,0-1.9c0.1-0.7,0.3-1.3,0.6-1.8c0.3-0.5,0.6-0.9,1-1.2
			c0.4-0.3,0.8-0.6,1.2-0.7c0.4-0.1,0.8-0.2,1.2-0.2c0.4,0,0.7,0.1,1,0.2c0.3,0.1,0.6,0.3,0.8,0.4c0.2,0.2,0.5,0.3,0.7,0.5
			c0.2,0.2,0.3,0.3,0.5,0.5h0.3l0.5-2.9c-0.2-0.1-0.4-0.2-0.7-0.4C-783.6,800.3-783.9,800.1-784.1,800.1z M-780.7,802.3h3.5
			l-1.7,9.7h3l1.7-9.7h3.5l0.4-2.3h-10.1L-780.7,802.3z M-759.8,805.3c-0.4-0.4-0.9-0.6-1.4-0.7c-0.6-0.1-1.2-0.1-1.9-0.1h-1.9
			l0.8-4.5h-3l-2.1,12h4.9c0.8,0,1.4-0.1,2-0.2c0.6-0.2,1.1-0.4,1.6-0.8c0.4-0.3,0.8-0.7,1.1-1.2c0.3-0.5,0.5-1,0.6-1.6
			c0.1-0.6,0.1-1.1,0-1.6C-759.2,806.1-759.4,805.7-759.8,805.3z M-762.2,808.2c-0.1,0.5-0.3,0.9-0.7,1.1c-0.4,0.3-0.9,0.4-1.5,0.4
			h-1.5l0.5-3.1h1.5c0.4,0,0.8,0,1,0.1c0.2,0.1,0.4,0.2,0.5,0.3c0.1,0.2,0.2,0.3,0.2,0.5C-762.2,807.9-762.2,808-762.2,808.2z
			 M-737.9,800h-3.3l-2.9,3.6l-1.5-3.6h-3.5l2.7,6l-5,6h3.3l3-3.8l1.6,3.8h3.5l-2.8-6.2L-737.9,800z M-728.3,800l-2.9,3.6l-1.5-3.6
			h-3.5l2.7,6l-5,6h3.3l3-3.8l1.6,3.8h3.5l-2.8-6.2l4.8-5.8H-728.3z M-722.9,802.1h1.7l-1.4,7.8h-1.7l-0.4,2.1h6.5l0.4-2.1h-1.7
			l1.4-7.8h1.7l0.4-2.1h-6.5L-722.9,802.1z M-698.5,800.5c-0.4-0.2-0.8-0.4-1.2-0.4c-0.4-0.1-1.1-0.1-2-0.1h-4.2l-2.1,12h4.8
			c0.8,0,1.5-0.1,2.1-0.2c0.6-0.2,1.1-0.4,1.6-0.8c0.4-0.3,0.8-0.7,1.1-1.1c0.3-0.5,0.5-1,0.6-1.6c0.1-0.8,0-1.5-0.3-1.9
			c-0.4-0.5-0.9-0.8-1.6-1l0-0.1c0.6-0.2,1-0.6,1.4-1c0.4-0.5,0.6-1,0.7-1.6c0.1-0.5,0.1-1-0.1-1.3S-698.1,800.7-698.5,800.5z
			 M-700.9,808.3c-0.1,0.3-0.2,0.5-0.3,0.8c-0.2,0.2-0.4,0.4-0.7,0.5c-0.3,0.1-0.7,0.2-1,0.2c-0.3,0-0.8,0-1.6,0h-0.2l0.5-3h0.6
			c0.5,0,1,0,1.3,0c0.3,0,0.6,0,0.7,0.1c0.3,0.1,0.5,0.3,0.6,0.5C-700.8,807.6-700.8,807.9-700.9,808.3z M-700.8,803.4
			c0,0.3-0.1,0.5-0.3,0.7c-0.1,0.2-0.3,0.4-0.6,0.5c-0.2,0.1-0.5,0.2-0.7,0.2c-0.2,0-0.6,0-1.1,0h-0.4l0.4-2.5h0.2
			c0.5,0,0.9,0,1.2,0c0.3,0,0.5,0.1,0.7,0.1c0.2,0.1,0.3,0.2,0.4,0.4C-700.8,803-700.7,803.2-700.8,803.4z M-695.1,812h8.1l0.4-2.3
			h-5.1l0.5-3h4.7l0.4-2.3h-4.7l0.4-2.1h5.1l0.4-2.3h-8.1L-695.1,812z M-671.7,800c-0.2,0-0.4,0-0.7,0c-0.8,0-1.5,0.2-2.1,0.5
			c-0.6,0.3-1.1,0.8-1.6,1.6c-0.1,0.2-0.3,0.4-0.4,0.7c-0.2,0.3-0.3,0.5-0.4,0.7c-0.4,0.6-0.8,1.1-1.1,1.2c-0.3,0.2-0.6,0.3-1.1,0.3
			l0.9-4.9h-3l-2.1,12h3l0.9-4.8h0.8l2.4,4.8h3.6l-3.1-6.2c0.2-0.1,0.4-0.3,0.6-0.5c0.2-0.3,0.5-0.6,0.8-1.1c0.4-0.6,0.7-1.1,1-1.3
			c0.3-0.2,0.6-0.3,1-0.3h0.7l0.5-2.6C-671.3,800-671.5,800-671.7,800z M-661.9,800h-3.3l-6.2,12h3l1.2-2.5h3.8l0.3,2.5h3.1
			L-661.9,800z M-666.1,807.4l1.9-4l0.5,4H-666.1z"/>
	</g>
</g>
<g id="ЧЕТКОСТЬ_И_СЛАЖЕННОСТЬ_XXI_ВЕКА_________РЕВОЛЮЦИЯ_АВТОЗАПЧАСТЕЙ_копия">
	<g>
		<path class="st5" d="M-962.2,822.8c-0.5-0.4-1.2-0.7-1.9-0.9c-0.7-0.2-1.6-0.3-2.6-0.3h-7l-3.2,18h4.5l1-5.9h2.4
			c0.6,0,1.2-0.1,1.8-0.2c0.5-0.1,1-0.2,1.5-0.4c0.5-0.2,0.9-0.4,1.3-0.7c0.4-0.3,0.8-0.6,1.2-0.9c0.6-0.5,1.1-1.1,1.5-1.9
			c0.4-0.8,0.7-1.6,0.8-2.4c0.2-1,0.2-1.9-0.1-2.7C-961.2,823.9-961.6,823.3-962.2,822.8z M-965.5,827.4c-0.1,0.5-0.2,1-0.4,1.3
			c-0.2,0.3-0.4,0.6-0.8,0.9c-0.2,0.1-0.4,0.3-0.7,0.4c-0.3,0.1-0.6,0.2-0.8,0.2c-0.3,0-0.6,0.1-1,0.1c-0.4,0-0.8,0-1.2,0h-0.3
			l1-5.4h0.6c0.7,0,1.2,0,1.6,0c0.4,0,0.8,0.1,1.2,0.3c0.3,0.1,0.6,0.4,0.7,0.8C-965.5,826.5-965.4,826.9-965.5,827.4z
			 M-958.1,839.6h12.2l0.6-3.4h-7.7l0.8-4.5h7.1l0.6-3.4h-7.1l0.6-3.2h7.7l0.6-3.4H-955L-958.1,839.6z M-926.1,822.4
			c-0.5-0.3-1.1-0.5-1.8-0.6c-0.7-0.1-1.7-0.2-3-0.2h-6.4l-3.2,18h7.2c1.2,0,2.3-0.1,3.1-0.3c0.8-0.2,1.7-0.6,2.4-1.1
			c0.7-0.4,1.2-1,1.7-1.7c0.5-0.7,0.8-1.5,0.9-2.4c0.2-1.2,0.1-2.2-0.5-2.9c-0.5-0.7-1.3-1.2-2.4-1.4l0-0.1c0.8-0.3,1.5-0.8,2.1-1.5
			c0.6-0.7,0.9-1.5,1.1-2.3c0.1-0.8,0.1-1.4-0.1-2C-925.1,823.2-925.5,822.8-926.1,822.4z M-929.7,834c-0.1,0.4-0.2,0.8-0.5,1.2
			c-0.2,0.3-0.6,0.6-1,0.8c-0.5,0.2-1,0.3-1.4,0.3c-0.5,0-1.3,0-2.4,0h-0.2l0.8-4.5h0.8c0.8,0,1.4,0,1.9,0c0.5,0,0.8,0.1,1.1,0.2
			c0.4,0.2,0.7,0.4,0.9,0.7C-929.6,833.1-929.6,833.5-929.7,834z M-929.5,826.7c-0.1,0.4-0.2,0.7-0.4,1c-0.2,0.3-0.5,0.5-0.9,0.7
			c-0.4,0.2-0.7,0.2-1,0.3c-0.3,0-0.9,0-1.6,0h-0.6l0.7-3.8h0.3c0.8,0,1.4,0,1.8,0c0.4,0,0.7,0.1,1,0.2c0.3,0.1,0.5,0.4,0.6,0.7
			C-929.5,826.1-929.5,826.4-929.5,826.7z M-910.1,821.3c-2.7,0-5,0.8-6.8,2.5c-1.8,1.7-3,4-3.5,6.9c-0.5,2.9-0.1,5.1,1.1,6.8
			c1.2,1.7,3.2,2.5,5.9,2.5c2.7,0,5-0.8,6.8-2.5c1.8-1.7,3-4,3.5-6.9c0.5-2.9,0.1-5.2-1.1-6.9C-905.4,822.1-907.3,821.3-910.1,821.3
			z M-907.6,830.6c-0.2,1.1-0.5,2-0.8,2.7c-0.3,0.7-0.7,1.3-1.2,1.8c-0.4,0.5-0.9,0.8-1.5,1.1c-0.5,0.2-1.1,0.3-1.6,0.3
			c-0.5,0-1-0.1-1.5-0.3c-0.5-0.2-0.8-0.6-1.1-1.1c-0.3-0.5-0.5-1.1-0.6-1.8c-0.1-0.7,0-1.6,0.2-2.8c0.2-1.1,0.5-2,0.8-2.8
			c0.4-0.8,0.8-1.4,1.2-1.9c0.5-0.5,1-0.9,1.5-1.1c0.5-0.2,1-0.3,1.6-0.3c0.5,0,1,0.1,1.5,0.3c0.4,0.2,0.8,0.6,1.1,1.1
			c0.3,0.5,0.5,1.1,0.6,1.9C-907.4,828.7-907.5,829.6-907.6,830.6z M-894.7,825.1c-0.2,0.8-0.3,1.7-0.6,2.7c-0.5,2.2-1,3.8-1.4,5
			c-0.4,1.1-1,2-1.6,2.5c-0.2,0.2-0.4,0.3-0.8,0.3c-0.3,0.1-0.6,0.1-0.8,0.1c-0.1,0-0.2,0-0.3,0c-0.1,0-0.2,0-0.2,0h-0.2l-0.7,4
			c0.1,0,0.4,0,0.8,0.1c0.4,0,0.9,0,1.2,0c0.6,0,1.2-0.1,1.8-0.3c0.6-0.2,1.2-0.5,1.6-0.9c0.3-0.3,0.6-0.6,1-1.1
			c0.4-0.4,0.8-1.1,1.2-1.8c0.4-0.7,0.8-1.7,1.2-2.8c0.4-1.1,0.8-2.5,1.2-4.1c0.1-0.5,0.3-1.1,0.4-1.7c0.1-0.6,0.3-1.3,0.4-2h4.5
			l-2.6,14.6h4.5l3.2-18H-894C-894.3,823.1-894.6,824.3-894.7,825.1z M-857.8,821.3c-2.3,0-4.2,0.6-5.9,1.9
			c-1.7,1.2-2.9,2.9-3.6,5.1h-3.8l1.2-6.6h-4.5l-3.2,18h4.5l1.4-8h3.7c-0.3,2.6,0.2,4.6,1.4,6.1c1.2,1.5,3.1,2.2,5.6,2.2
			c1.3,0,2.6-0.2,3.7-0.7c1.1-0.4,2.2-1.1,3.1-1.9c0.9-0.8,1.6-1.8,2.2-3c0.6-1.2,1-2.4,1.2-3.8c0.5-2.9,0.1-5.2-1.1-6.9
			C-853.2,822.1-855.2,821.3-857.8,821.3z M-855.6,830.6c-0.2,1-0.4,1.9-0.8,2.6c-0.3,0.7-0.7,1.4-1.2,1.9c-0.4,0.5-0.9,0.8-1.4,1.1
			c-0.5,0.2-1.1,0.4-1.6,0.4c-0.5,0-1-0.1-1.5-0.3c-0.4-0.2-0.8-0.6-1.1-1.1c-0.3-0.5-0.5-1.1-0.6-1.8c-0.1-0.7,0-1.6,0.2-2.8
			c0.2-1.1,0.5-2,0.8-2.8c0.4-0.8,0.8-1.4,1.2-1.9c0.5-0.5,1-0.8,1.5-1s1-0.3,1.5-0.3c0.5,0,1,0.1,1.4,0.3c0.4,0.2,0.8,0.6,1.1,1.1
			c0.3,0.5,0.5,1.1,0.6,1.9C-855.3,828.7-855.4,829.6-855.6,830.6z M-833.5,821.6l-2.6,14.6h-6.1l2.6-14.6h-4.5l-3.2,18h12.7
			l-0.7,4.1h4.1l1.3-7.6h-1.7l2.6-14.6H-833.5z M-819.9,832.4l1.9-10.7h-4.4l-3.2,18h4.2l9-11.9l-2.1,11.9h4.4l3.2-18h-4.7
			L-819.9,832.4z M-796.8,821.9c-0.8,0.2-1.5,0.5-2.1,0.8c-0.7,0.4-1.3,1-1.9,1.7c-0.5,0.7-0.9,1.5-1,2.4c-0.2,1.4-0.1,2.5,0.3,3.3
			c0.4,0.9,1.2,1.5,2.2,2l-6.7,7.5h5.4l5.7-6.6h1.7l-1.2,6.6h4.5l3.2-18h-7.3C-795.1,821.6-796,821.7-796.8,821.9z M-791.8,825
			l-0.9,4.8h-1.4c-0.7,0-1.2,0-1.6-0.1c-0.4-0.1-0.7-0.2-1-0.4c-0.2-0.2-0.4-0.5-0.5-0.8c-0.1-0.3-0.1-0.7,0-1.1
			c0.1-0.4,0.2-0.8,0.4-1.1c0.2-0.3,0.5-0.6,0.8-0.8c0.4-0.3,0.8-0.4,1.2-0.5c0.4,0,0.9-0.1,1.6-0.1H-791.8z M-766.7,821.6l-9.3,18
			h4.5l1.8-3.7h5.7l0.5,3.7h4.7l-2.9-18H-766.7z M-768.1,832.7l2.9-5.9l0.8,5.9H-768.1z M-740.3,822.4c-0.5-0.3-1.1-0.5-1.8-0.6
			c-0.7-0.1-1.7-0.2-3-0.2h-6.4l-3.2,18h7.2c1.2,0,2.3-0.1,3.1-0.3c0.8-0.2,1.7-0.6,2.4-1.1c0.7-0.4,1.2-1,1.7-1.7
			c0.5-0.7,0.8-1.5,0.9-2.4c0.2-1.2,0.1-2.2-0.5-2.9c-0.5-0.7-1.3-1.2-2.4-1.4l0-0.1c0.8-0.3,1.5-0.8,2.1-1.5
			c0.6-0.7,0.9-1.5,1.1-2.3c0.1-0.8,0.1-1.4-0.1-2C-739.3,823.2-739.7,822.8-740.3,822.4z M-743.8,834c-0.1,0.4-0.2,0.8-0.5,1.2
			c-0.2,0.3-0.6,0.6-1,0.8c-0.5,0.2-1,0.3-1.4,0.3c-0.5,0-1.3,0-2.4,0h-0.2l0.8-4.5h0.8c0.8,0,1.4,0,1.9,0c0.5,0,0.8,0.1,1.1,0.2
			c0.4,0.2,0.7,0.4,0.9,0.7C-743.8,833.1-743.7,833.5-743.8,834z M-743.7,826.7c-0.1,0.4-0.2,0.7-0.4,1c-0.2,0.3-0.5,0.5-0.9,0.7
			c-0.4,0.2-0.7,0.2-1,0.3c-0.3,0-0.9,0-1.6,0h-0.6l0.7-3.8h0.3c0.8,0,1.4,0,1.8,0c0.4,0,0.7,0.1,1,0.2c0.3,0.1,0.5,0.4,0.6,0.7
			C-743.7,826.1-743.6,826.4-743.7,826.7z M-734.4,825.1h5.3l-2.6,14.6h4.5l2.6-14.6h5.3l0.6-3.4h-15.2L-734.4,825.1z M-706.6,821.3
			c-2.7,0-5,0.8-6.8,2.5c-1.8,1.7-3,4-3.5,6.9c-0.5,2.9-0.1,5.1,1.1,6.8c1.2,1.7,3.2,2.5,5.9,2.5c2.7,0,5-0.8,6.8-2.5
			c1.8-1.7,3-4,3.5-6.9c0.5-2.9,0.1-5.2-1.1-6.9C-701.9,822.1-703.9,821.3-706.6,821.3z M-704.2,830.6c-0.2,1.1-0.5,2-0.8,2.7
			c-0.3,0.7-0.7,1.3-1.2,1.8c-0.4,0.5-0.9,0.8-1.5,1.1c-0.5,0.2-1.1,0.3-1.6,0.3c-0.5,0-1-0.1-1.5-0.3c-0.5-0.2-0.8-0.6-1.1-1.1
			c-0.3-0.5-0.5-1.1-0.6-1.8c-0.1-0.7,0-1.6,0.2-2.8c0.2-1.1,0.5-2,0.8-2.8c0.4-0.8,0.8-1.4,1.2-1.9c0.5-0.5,1-0.9,1.5-1.1
			c0.5-0.2,1-0.3,1.6-0.3c0.5,0,1,0.1,1.5,0.3c0.4,0.2,0.8,0.6,1.1,1.1c0.3,0.5,0.5,1.1,0.6,1.9C-703.9,828.7-704,829.6-704.2,830.6
			z M-682.1,822.4c-1-0.8-2.7-1.2-5-1.2c-1.3,0-2.6,0.1-3.8,0.4c-1.2,0.3-2.1,0.5-2.7,0.8l-0.7,3.7h0.4c0.2-0.1,0.5-0.2,0.9-0.4
			c0.4-0.2,0.8-0.4,1.3-0.5c0.5-0.2,1-0.3,1.5-0.4c0.5-0.1,1-0.2,1.6-0.2c1,0,1.7,0.1,2.2,0.4c0.5,0.3,0.7,0.7,0.6,1.3
			c-0.1,0.7-0.5,1.2-1.1,1.5c-0.6,0.3-1.4,0.5-2.6,0.5h-2.5l-0.6,3.2h2.6c1.4,0,2.3,0.2,2.7,0.6c0.5,0.4,0.6,1,0.5,1.7
			c-0.2,0.9-0.6,1.6-1.4,2c-0.8,0.4-1.8,0.7-3,0.7c-0.9,0-1.9-0.2-2.8-0.6c-0.9-0.4-1.6-0.8-2.2-1.2h-0.4l-0.7,4
			c0.8,0.4,1.7,0.6,2.8,0.9c1,0.2,2.1,0.3,3.3,0.3c2.6,0,4.7-0.5,6.2-1.5c1.6-1,2.5-2.4,2.8-4.2c0.1-0.7,0.1-1.4,0-1.9
			c-0.2-0.5-0.4-0.9-0.7-1.3c-0.3-0.3-0.7-0.5-1.1-0.7c-0.5-0.2-0.9-0.3-1.2-0.4l0-0.2c1-0.2,1.9-0.7,2.7-1.5
			c0.8-0.7,1.2-1.6,1.4-2.6C-680.7,824.3-681.1,823.2-682.1,822.4z M-670.4,821.6l-9.3,18h4.5l1.8-3.7h5.7l0.5,3.7h4.7l-2.9-18
			H-670.4z M-671.8,832.7l2.9-5.9l0.8,5.9H-671.8z M-658.3,839.6h4.5l2.6-14.6h6.2l-2.6,14.6h4.5l3.2-18h-15.2L-658.3,839.6z
			 M-625.6,829.8c-0.3,0.1-0.7,0.1-1.2,0.1c-0.5,0-0.9,0.1-1.2,0.1c-0.8,0-1.4-0.1-1.8-0.3c-0.4-0.2-0.7-0.5-0.9-0.8
			c-0.2-0.4-0.3-0.8-0.3-1.3c0-0.4,0.1-1,0.2-1.8l0.8-4.3h-4.5l-1.2,6.6c-0.2,0.9-0.2,1.7,0,2.4c0.2,0.7,0.5,1.2,0.9,1.6
			c0.4,0.4,1,0.8,1.6,1c0.6,0.2,1.3,0.3,2.1,0.3c1,0,1.8-0.1,2.5-0.2c0.6-0.1,1.4-0.2,2.3-0.4l-1.2,6.7h4.5l3.2-18h-4.5
			L-625.6,829.8z M-609.3,821.6l-9.3,18h4.5l1.8-3.7h5.7l0.5,3.7h4.7l-2.9-18H-609.3z M-610.7,832.7l2.9-5.9l0.8,5.9H-610.7z
			 M-582.7,821.7c-0.5-0.1-1-0.3-1.6-0.3c-0.6-0.1-1.2-0.1-1.9-0.1c-2.7,0-5,0.8-6.9,2.5c-1.9,1.7-3.1,4-3.6,6.8
			c-0.5,3-0.1,5.3,1.2,6.9c1.3,1.6,3.3,2.4,6,2.4c0.9,0,1.5,0,2.1-0.1c0.5-0.1,1.1-0.2,1.7-0.4c0.5-0.1,1-0.3,1.4-0.5
			c0.5-0.2,0.9-0.4,1.2-0.5l0.7-4.2h-0.4c-0.3,0.2-0.6,0.4-0.9,0.7c-0.4,0.3-0.8,0.5-1.2,0.8c-0.4,0.2-0.9,0.5-1.5,0.7
			c-0.6,0.2-1.2,0.3-1.8,0.3c-0.6,0-1.1-0.1-1.7-0.3c-0.5-0.2-1-0.5-1.4-1c-0.4-0.5-0.7-1.1-0.8-1.8c-0.2-0.8-0.1-1.7,0.1-2.8
			c0.2-1.1,0.5-2,0.9-2.8c0.4-0.8,0.9-1.4,1.4-1.9c0.6-0.5,1.2-0.9,1.7-1.1c0.6-0.2,1.2-0.3,1.8-0.3c0.5,0,1.1,0.1,1.5,0.3
			c0.5,0.2,0.9,0.4,1.3,0.7c0.4,0.3,0.7,0.5,1,0.8c0.3,0.3,0.5,0.5,0.7,0.7h0.5l0.8-4.3c-0.3-0.2-0.6-0.3-1.1-0.5
			C-581.9,822-582.3,821.9-582.7,821.7z M-577.5,825.1h5.3l-2.6,14.6h4.5l2.6-14.6h5.3l0.6-3.4h-15.2L-577.5,825.1z M-560.6,839.6
			h12.2l0.6-3.4h-7.7l0.8-4.5h7.1l0.6-3.4h-7.1l0.6-3.2h7.7l0.6-3.4h-12.2L-560.6,839.6z M-531.7,820.5c2.2,0,3.9-0.4,5-1.3
			c1.2-0.9,1.9-2,2.2-3.5h-4c-0.2,0.9-0.5,1.5-0.9,1.9c-0.4,0.4-1.1,0.6-2,0.6c-0.9,0-1.5-0.2-1.8-0.6s-0.4-1-0.2-1.9h-4
			c-0.2,1.4,0.1,2.6,1,3.5C-535.3,820-533.8,820.5-531.7,820.5z M-528.8,821.6l-8.3,10.7l1.9-10.7h-4.4l-3.2,18h4.2l9-11.9
			l-2.1,11.9h4.4l3.2-18H-528.8z"/>
	</g>
</g>
</svg>
