<?xml version="1.0" encoding="utf-8"?>
<!-- Generator: Adobe Illustrator 19.0.1, SVG Export Plug-In . SVG Version: 6.00 Build 0)  -->
<svg version="1.1" id="Слой_1" xmlns="http://www.w3.org/2000/svg" xmlns:xlink="http://www.w3.org/1999/xlink" x="0px" y="0px"
	 viewBox="-256 396.2 83 48.7" style="enable-background:new -256 396.2 83 48.7;" xml:space="preserve">
<style type="text/css">
	.st0{fill:#323D8F;}
	.st1{fill:#0094E7;}
	.st2{fill:#6B69AA;}
	.st3{fill:#A5A9CF;}
</style>
<g>
	<polygon class="st0" points="-249.7,408.4 -246.5,396.2 -233.7,396.2 -237,408.4 	"/>
	<polygon class="st0" points="-240,420.5 -237,408.4 -224,408.4 -227.3,420.5 	"/>
	<polygon class="st0" points="-224,408.4 -220.8,396.2 -208,396.2 -211.3,408.4 	"/>
	<polygon class="st1" points="-214.5,420.5 -211.3,408.4 -198.5,408.4 -201.8,420.5 	"/>
	<polygon class="st0" points="-198.5,408.4 -195.3,396.2 -182.5,396.2 -185.8,408.4 	"/>
	<polygon class="st2" points="-256,432.7 -252.8,420.5 -240,420.5 -243.3,432.7 	"/>
	<polygon class="st2" points="-246.5,444.9 -243.3,432.7 -230.3,432.7 -233.7,444.9 	"/>
	<polygon class="st3" points="-230.3,432.7 -227.3,420.5 -214.5,420.5 -217.7,432.7 	"/>
	<polygon class="st3" points="-205,432.7 -201.8,420.5 -189,420.5 -192.3,432.7 	"/>
	<polygon class="st3" points="-189,420.5 -185.8,408.4 -173,408.4 -176.3,420.5 	"/>
</g>
</svg>
